<?xml version="1.0" encoding="UTF-8"?>
<!DOCTYPE svg PUBLIC "-//W3C//DTD SVG 1.1//EN" "http://www.w3.org/Graphics/SVG/1.1/DTD/svg11.dtd">
<svg xmlns="http://www.w3.org/2000/svg" version="1.1" width="600px" height="600px" style="shape-rendering:geometricPrecision; text-rendering:geometricPrecision; image-rendering:optimizeQuality; fill-rule:evenodd; clip-rule:evenodd" xmlns:xlink="http://www.w3.org/1999/xlink">
<g><path style="opacity:0.992" fill="#70e5be" d="M 28.5,-0.5 C 57.8333,-0.5 87.1667,-0.5 116.5,-0.5C 129.641,7.13464 141.141,16.8013 151,28.5C 167.906,52.3933 177.072,78.7266 178.5,107.5C 174.325,116.502 168.658,124.502 161.5,131.5C 166.562,100.476 158.228,72.9759 136.5,49C 127.846,42.0026 118.513,36.0026 108.5,31C 82.1692,19.3949 55.5025,8.89491 28.5,-0.5 Z"/></g>
<g><path style="opacity:0.992" fill="#76e5c4" d="M 116.5,-0.5 C 130.5,-0.5 144.5,-0.5 158.5,-0.5C 168.741,15.8742 177.074,33.2075 183.5,51.5C 185.397,63.0913 185.897,74.7579 185,86.5C 183.908,93.8788 181.741,100.879 178.5,107.5C 177.072,78.7266 167.906,52.3933 151,28.5C 141.141,16.8013 129.641,7.13464 116.5,-0.5 Z"/></g>
<g><path style="opacity:0.992" fill="#93e4d2" d="M 183.5,-0.5 C 185.167,-0.5 186.833,-0.5 188.5,-0.5C 194.593,12.0208 200.426,24.6875 206,37.5C 216.512,53.8653 224.012,71.532 228.5,90.5C 223.184,91.6562 218.184,93.6562 213.5,96.5C 212.037,85.3458 210.87,74.0124 210,62.5C 202.255,41.0136 193.422,20.0136 183.5,-0.5 Z"/></g>
<g><path style="opacity:0.988" fill="#9be3d8" d="M 188.5,-0.5 C 190.833,-0.5 193.167,-0.5 195.5,-0.5C 207.059,19.9521 217.559,40.9521 227,62.5C 227.359,59.4557 228.026,59.1224 229,61.5C 232.516,70.0621 236.016,78.5621 239.5,87C 239.167,87.3333 238.833,87.6667 238.5,88C 239.244,89.8148 239.911,91.6481 240.5,93.5C 236.647,91.995 232.647,90.995 228.5,90.5C 224.012,71.532 216.512,53.8653 206,37.5C 200.426,24.6875 194.593,12.0208 188.5,-0.5 Z"/></g>
<g><path style="opacity:0.99" fill="#9ee1dd" d="M 195.5,-0.5 C 205.833,-0.5 216.167,-0.5 226.5,-0.5C 229.026,4.71834 231.693,9.88501 234.5,15C 233.692,15.3076 233.025,15.8076 232.5,16.5C 242.426,38.0425 254.093,58.3758 267.5,77.5C 267.291,78.086 266.957,78.586 266.5,79C 271.794,84.5396 277.461,90.5396 283.5,97C 286.115,97.6119 287.781,99.1119 288.5,101.5C 282.913,104.689 281.246,109.355 283.5,115.5C 281.176,115.995 279.009,115.995 277,115.5C 274.667,116.5 272.333,117.5 270,118.5C 264.137,116.485 258.637,113.818 253.5,110.5C 251.533,107.784 250.033,104.784 249,101.5C 245.667,99.3329 242.834,96.6662 240.5,93.5C 239.911,91.6481 239.244,89.8148 238.5,88C 238.833,87.6667 239.167,87.3333 239.5,87C 236.016,78.5621 232.516,70.0621 229,61.5C 228.026,59.1224 227.359,59.4557 227,62.5C 217.559,40.9521 207.059,19.9521 195.5,-0.5 Z"/></g>
<g><path style="opacity:0.995" fill="#8cdedc" d="M 226.5,-0.5 C 230.5,-0.5 234.5,-0.5 238.5,-0.5C 255.502,22.0073 272.335,44.6739 289,67.5C 294.899,73.7097 300.399,79.543 305.5,85C 307.888,85.0408 310.221,85.8742 312.5,87.5C 313.086,87.2907 313.586,86.9574 314,86.5C 315.03,88.7764 316.53,89.4431 318.5,88.5C 321.212,89.5315 324.212,90.6982 327.5,92C 333.348,92.1728 339.015,92.6728 344.5,93.5C 328.999,92.7291 313.665,93.8958 298.5,97C 295.264,98.7862 291.93,100.286 288.5,101.5C 287.781,99.1119 286.115,97.6119 283.5,97C 277.461,90.5396 271.794,84.5396 266.5,79C 266.957,78.586 267.291,78.086 267.5,77.5C 254.093,58.3758 242.426,38.0425 232.5,16.5C 233.025,15.8076 233.692,15.3076 234.5,15C 231.693,9.88501 229.026,4.71834 226.5,-0.5 Z"/></g>
<g><path style="opacity:0.998" fill="#09e1dd" d="M 266.5,-0.5 C 280.833,-0.5 295.167,-0.5 309.5,-0.5C 316.603,5.42938 323.603,11.596 330.5,18C 332.809,18.7562 334.809,18.2562 336.5,16.5C 337.5,17 338.5,17.5 339.5,18C 344.376,22.7136 349.376,27.2136 354.5,31.5C 356.394,29.219 358.728,28.0524 361.5,28C 363.281,30.2365 365.281,32.2365 367.5,34C 376.028,40.0929 384.694,45.9263 393.5,51.5C 396.144,49.69 398.644,47.69 401,45.5C 434.953,64.9963 469.953,80.9963 506,93.5C 508.184,92.8919 510.184,93.5586 512,95.5C 512.414,95.0426 512.914,94.7093 513.5,94.5C 515.564,96.2614 517.731,96.5947 520,95.5C 525.402,96.7249 530.736,97.7249 536,98.5C 538.042,97.7146 540.042,98.048 542,99.5C 549.357,99.1428 557.024,99.1428 565,99.5C 566.473,99.9031 567.806,100.57 569,101.5C 573.784,101.153 578.451,101.153 583,101.5C 587.37,102.315 591.704,103.315 596,104.5C 597.011,103.663 598.178,103.33 599.5,103.5C 599.5,136.5 599.5,169.5 599.5,202.5C 568.538,196.901 538.871,187.401 510.5,174C 500.767,167.272 490.767,160.938 480.5,155C 481.056,154.617 481.389,154.117 481.5,153.5C 487.296,150.776 493.296,148.276 499.5,146C 526.224,137.323 552.891,128.656 579.5,120C 512.744,111.676 446.077,103.843 379.5,96.5C 369.344,90.0683 359.011,83.5683 348.5,77C 344.502,76.5044 341.835,74.3377 340.5,70.5C 328.207,63.7604 317.041,55.4271 307,45.5C 306.517,44.552 306.351,43.552 306.5,42.5C 305.448,42.6495 304.448,42.4828 303.5,42C 289.904,28.906 277.571,14.7393 266.5,-0.5 Z"/></g>
<g><path style="opacity:0.999" fill="#00e9e2" d="M 309.5,-0.5 C 406.167,-0.5 502.833,-0.5 599.5,-0.5C 599.5,34.1667 599.5,68.8333 599.5,103.5C 598.178,103.33 597.011,103.663 596,104.5C 591.704,103.315 587.37,102.315 583,101.5C 578.451,101.153 573.784,101.153 569,101.5C 567.806,100.57 566.473,99.9031 565,99.5C 557.024,99.1428 549.357,99.1428 542,99.5C 540.042,98.048 538.042,97.7146 536,98.5C 530.736,97.7249 525.402,96.7249 520,95.5C 517.731,96.5947 515.564,96.2614 513.5,94.5C 512.914,94.7093 512.414,95.0426 512,95.5C 510.184,93.5586 508.184,92.8919 506,93.5C 469.953,80.9963 434.953,64.9963 401,45.5C 398.644,47.69 396.144,49.69 393.5,51.5C 384.694,45.9263 376.028,40.0929 367.5,34C 365.281,32.2365 363.281,30.2365 361.5,28C 358.728,28.0524 356.394,29.219 354.5,31.5C 349.376,27.2136 344.376,22.7136 339.5,18C 338.5,17.5 337.5,17 336.5,16.5C 334.809,18.2562 332.809,18.7562 330.5,18C 323.603,11.596 316.603,5.42938 309.5,-0.5 Z"/></g>
<g><path style="opacity:0.995" fill="#7adedc" d="M 238.5,-0.5 C 242.5,-0.5 246.5,-0.5 250.5,-0.5C 260.834,12.6726 271.001,26.0059 281,39.5C 284.4,43.2385 288.067,46.5718 292,49.5C 300.896,63.8229 312.229,73.8229 326,79.5C 326.724,81.9589 328.057,82.9589 330,82.5C 331.657,84.5669 333.324,85.9002 335,86.5C 336.507,85.4652 338.007,85.6319 339.5,87C 339.167,87.3333 338.833,87.6667 338.5,88C 342.99,88.426 346.656,90.2594 349.5,93.5C 347.833,93.5 346.167,93.5 344.5,93.5C 339.015,92.6728 333.348,92.1728 327.5,92C 324.212,90.6982 321.212,89.5315 318.5,88.5C 316.53,89.4431 315.03,88.7764 314,86.5C 313.586,86.9574 313.086,87.2907 312.5,87.5C 310.221,85.8742 307.888,85.0408 305.5,85C 300.399,79.543 294.899,73.7097 289,67.5C 272.335,44.6739 255.502,22.0073 238.5,-0.5 Z"/></g>
<g><path style="opacity:0.995" fill="#69dddb" d="M 250.5,-0.5 C 252.833,-0.5 255.167,-0.5 257.5,-0.5C 265.273,9.51854 272.773,19.8519 280,30.5C 290.376,41.3873 300.876,52.2206 311.5,63C 314.557,65.7226 317.89,68.056 321.5,70C 320.833,70.3333 320.167,70.6667 319.5,71C 334.064,78.2432 347.731,86.0765 360.5,94.5C 356.865,93.8857 353.198,93.5524 349.5,93.5C 346.656,90.2594 342.99,88.426 338.5,88C 338.833,87.6667 339.167,87.3333 339.5,87C 338.007,85.6319 336.507,85.4652 335,86.5C 333.324,85.9002 331.657,84.5669 330,82.5C 328.057,82.9589 326.724,81.9589 326,79.5C 312.229,73.8229 300.896,63.8229 292,49.5C 288.067,46.5718 284.4,43.2385 281,39.5C 271.001,26.0059 260.834,12.6726 250.5,-0.5 Z"/></g>
<g><path style="opacity:0.992" fill="#87e4cc" d="M 158.5,-0.5 C 166.833,-0.5 175.167,-0.5 183.5,-0.5C 193.422,20.0136 202.255,41.0136 210,62.5C 210.87,74.0124 212.037,85.3458 213.5,96.5C 207.254,101.405 201.254,106.738 195.5,112.5C 196.157,91.4472 192.157,71.1139 183.5,51.5C 177.074,33.2075 168.741,15.8742 158.5,-0.5 Z"/></g>
<g><path style="opacity:0.992" fill="#85e5c2" d="M 183.5,51.5 C 192.157,71.1139 196.157,91.4472 195.5,112.5C 188.909,123.356 184.242,135.023 181.5,147.5C 169.106,159.233 156.439,170.566 143.5,181.5C 146.034,175.232 148.367,168.898 150.5,162.5C 155.001,153.334 158.334,143.668 160.5,133.5C 160.833,132.833 161.167,132.167 161.5,131.5C 168.658,124.502 174.325,116.502 178.5,107.5C 181.741,100.879 183.908,93.8788 185,86.5C 185.897,74.7579 185.397,63.0913 183.5,51.5 Z"/></g>
<g><path style="opacity:0.992" fill="#70e4b7" d="M -0.5,-0.5 C 9.16667,-0.5 18.8333,-0.5 28.5,-0.5C 55.5025,8.89491 82.1692,19.3949 108.5,31C 118.513,36.0026 127.846,42.0026 136.5,49C 158.228,72.9759 166.562,100.476 161.5,131.5C 161.167,132.167 160.833,132.833 160.5,133.5C 142.27,152.122 121.937,168.122 99.5,181.5C 95.8333,176.833 92.1667,172.167 88.5,167.5C 102.862,160.202 116.529,151.702 129.5,142C 131.213,140.622 132.547,138.955 133.5,137C 132.994,114.631 122.994,96.9643 103.5,84C 78.7258,69.9602 52.7258,58.6269 25.5,50C 16.9879,46.8729 8.32122,44.3729 -0.5,42.5C -0.5,28.1667 -0.5,13.8333 -0.5,-0.5 Z"/></g>
<g><path style="opacity:0.992" fill="#6be4b2" d="M -0.5,42.5 C 8.32122,44.3729 16.9879,46.8729 25.5,50C 52.7258,58.6269 78.7258,69.9602 103.5,84C 122.994,96.9643 132.994,114.631 133.5,137C 132.547,138.955 131.213,140.622 129.5,142C 116.529,151.702 102.862,160.202 88.5,167.5C 83.3362,162.504 78.0028,157.671 72.5,153C 69.4642,150.994 66.1309,150.16 62.5,150.5C 63.964,149.84 65.6307,149.507 67.5,149.5C 69.6413,149.613 71.4747,150.28 73,151.5C 74.0217,150.646 74.8551,149.646 75.5,148.5C 70.9971,142.499 65.9971,136.999 60.5,132C 41.2782,120.306 20.9449,110.806 -0.5,103.5C -0.5,83.1667 -0.5,62.8333 -0.5,42.5 Z"/></g>
<g><path style="opacity:1" fill="#53dedb" d="M 257.5,-0.5 C 260.5,-0.5 263.5,-0.5 266.5,-0.5C 277.571,14.7393 289.904,28.906 303.5,42C 304.448,42.4828 305.448,42.6495 306.5,42.5C 306.351,43.552 306.517,44.552 307,45.5C 317.041,55.4271 328.207,63.7604 340.5,70.5C 341.835,74.3377 344.502,76.5044 348.5,77C 359.011,83.5683 369.344,90.0683 379.5,96.5C 373.147,95.9946 366.813,95.3279 360.5,94.5C 347.731,86.0765 334.064,78.2432 319.5,71C 320.167,70.6667 320.833,70.3333 321.5,70C 317.89,68.056 314.557,65.7226 311.5,63C 300.876,52.2206 290.376,41.3873 280,30.5C 272.773,19.8519 265.273,9.51854 257.5,-0.5 Z"/></g>
<g><path style="opacity:1" fill="#000100" d="M 228.5,90.5 C 232.647,90.995 236.647,91.995 240.5,93.5C 242.834,96.6662 245.667,99.3329 249,101.5C 250.033,104.784 251.533,107.784 253.5,110.5C 254.347,123.937 257.847,136.603 264,148.5C 268.956,165.612 274.29,182.612 280,199.5C 282.904,205.447 286.071,211.114 289.5,216.5C 299.045,234.611 308.878,252.611 319,270.5C 323.623,276.792 328.623,282.792 334,288.5C 335.916,279.262 336.749,269.929 336.5,260.5C 338.062,242.349 338.562,224.016 338,205.5C 337,202.5 336,199.5 335,196.5C 319.844,168.181 302.678,141.181 283.5,115.5C 281.246,109.355 282.913,104.689 288.5,101.5C 291.93,100.286 295.264,98.7862 298.5,97C 313.665,93.8958 328.999,92.7291 344.5,93.5C 346.167,93.5 347.833,93.5 349.5,93.5C 353.198,93.5524 356.865,93.8857 360.5,94.5C 366.813,95.3279 373.147,95.9946 379.5,96.5C 446.077,103.843 512.744,111.676 579.5,120C 552.891,128.656 526.224,137.323 499.5,146C 493.296,148.276 487.296,150.776 481.5,153.5C 477.646,154.93 473.979,156.597 470.5,158.5C 467.515,159.326 464.849,160.659 462.5,162.5C 459.55,163.308 456.883,164.642 454.5,166.5C 452.632,167.263 450.965,168.263 449.5,169.5C 445.628,171.597 441.961,173.931 438.5,176.5C 432.19,180.815 426.19,185.482 420.5,190.5C 414.795,195.204 409.795,200.537 405.5,206.5C 391.72,221.381 382.053,238.714 376.5,258.5C 372.768,268.492 370.434,278.826 369.5,289.5C 365.715,309.29 360.049,328.623 352.5,347.5C 351.227,349.713 350.227,352.046 349.5,354.5C 348.326,355.514 347.66,356.847 347.5,358.5C 346.326,359.514 345.66,360.847 345.5,362.5C 343.182,366.465 340.848,370.465 338.5,374.5C 336.5,377.833 334.5,381.167 332.5,384.5C 329.936,387.28 327.603,390.28 325.5,393.5C 321.833,398.167 318.167,402.833 314.5,407.5C 311.8,409.234 309.8,411.568 308.5,414.5C 303.807,418.861 299.141,423.195 294.5,427.5C 293.5,427.833 292.833,428.5 292.5,429.5C 289.527,431.147 286.86,433.147 284.5,435.5C 280.476,438.531 276.476,441.531 272.5,444.5C 268.779,446.354 265.446,448.687 262.5,451.5C 259.24,452.774 256.24,454.44 253.5,456.5C 249.638,458.262 245.972,460.262 242.5,462.5C 239.515,463.326 236.849,464.659 234.5,466.5C 230.503,467.603 226.836,469.269 223.5,471.5C 217.001,473.591 210.668,475.925 204.5,478.5C 200.216,479.261 196.216,480.595 192.5,482.5C 184.613,484.054 176.946,486.054 169.5,488.5C 162.283,489.344 155.283,490.678 148.5,492.5C 143.63,492.69 138.964,493.356 134.5,494.5C 123.982,495.092 113.649,496.092 103.5,497.5C 89.5087,498.129 75.5087,498.463 61.5,498.5C 57.8212,498.276 54.1545,497.942 50.5,497.5C 44.4539,496.495 40.4539,493.161 38.5,487.5C 37.4486,480.772 39.7819,475.605 45.5,472C 59.1792,465.829 73.5125,461.995 88.5,460.5C 97.5165,459.278 106.517,458.278 115.5,457.5C 120.923,457.476 126.257,456.81 131.5,455.5C 135.337,455.069 139.003,454.402 142.5,453.5C 154.153,452.086 165.486,449.42 176.5,445.5C 185.876,443.042 195.209,440.376 204.5,437.5C 208.571,435.815 212.571,434.148 216.5,432.5C 220.797,431.345 224.797,429.679 228.5,427.5C 232.582,426.624 236.249,424.957 239.5,422.5C 244.625,420.438 249.625,418.104 254.5,415.5C 258.881,413.316 262.881,410.65 266.5,407.5C 274.315,403.2 281.148,397.533 287,390.5C 293.657,382.435 292.824,375.269 284.5,369C 278.698,364.766 272.364,361.599 265.5,359.5C 249.169,354.446 232.836,349.279 216.5,344C 190.25,332.721 166.917,317.221 146.5,297.5C 117.846,268.511 89.8456,238.844 62.5,208.5C 62.1667,209.833 61.8333,211.167 61.5,212.5C 62.9519,232.312 64.2852,251.979 65.5,271.5C 65.1778,277.358 65.5111,283.025 66.5,288.5C 66.1818,293.032 66.5151,297.366 67.5,301.5C 67.448,303.903 67.7814,306.236 68.5,308.5C 68.2053,310.735 68.5386,312.735 69.5,314.5C 70.6848,333.371 79.0181,348.205 94.5,359C 112.563,368.96 128.73,381.46 143,396.5C 145.248,399.328 147.248,402.328 149,405.5C 149.942,410.091 149.442,414.424 147.5,418.5C 140.286,420.906 132.953,421.072 125.5,419C 119.435,416.591 113.435,414.091 107.5,411.5C 97.6966,405.093 88.0299,398.426 78.5,391.5C 65.0884,380.757 53.4217,368.423 43.5,354.5C 38.6883,347.208 34.6883,339.542 31.5,331.5C 30.2876,326.897 29.2876,322.231 28.5,317.5C 27.7514,311.845 27.0848,306.178 26.5,300.5C 25.9258,294.516 25.5925,288.516 25.5,282.5C 25.5127,268.824 25.8461,255.157 26.5,241.5C 27.9328,222.522 31.2661,203.856 36.5,185.5C 40.1946,174.282 45.8613,164.115 53.5,155C 56.2432,152.962 59.2432,151.462 62.5,150.5C 66.1309,150.16 69.4642,150.994 72.5,153C 78.0028,157.671 83.3362,162.504 88.5,167.5C 92.1667,172.167 95.8333,176.833 99.5,181.5C 103.197,186.191 106.864,190.858 110.5,195.5C 118.421,208.41 127.088,220.744 136.5,232.5C 150.479,249.812 166.146,265.479 183.5,279.5C 183.833,278.667 184.167,277.833 184.5,277C 183.337,270.68 181.67,264.514 179.5,258.5C 173.125,246.869 169.459,234.369 168.5,221C 168.988,208.134 169.821,195.301 171,182.5C 174.505,170.827 178.005,159.16 181.5,147.5C 184.242,135.023 188.909,123.356 195.5,112.5C 201.254,106.738 207.254,101.405 213.5,96.5C 218.184,93.6562 223.184,91.6562 228.5,90.5 Z"/></g>
<g><path style="opacity:0.992" fill="#6ce4ab" d="M -0.5,103.5 C 20.9449,110.806 41.2782,120.306 60.5,132C 65.9971,136.999 70.9971,142.499 75.5,148.5C 74.8551,149.646 74.0217,150.646 73,151.5C 71.4747,150.28 69.6413,149.613 67.5,149.5C 65.6307,149.507 63.964,149.84 62.5,150.5C 59.2432,151.462 56.2432,152.962 53.5,155C 45.8613,164.115 40.1946,174.282 36.5,185.5C 34.8541,181.398 32.5208,177.565 29.5,174C 20.2657,166.223 10.2657,159.723 -0.5,154.5C -0.5,137.5 -0.5,120.5 -0.5,103.5 Z"/></g>
<g><path style="opacity:1" fill="#a1dbda" d="M 388.5,161.5 C 374.865,149.356 360.198,138.689 344.5,129.5C 346.221,127.306 348.555,126.139 351.5,126C 365.13,123.636 377.797,125.97 389.5,133C 396.242,142.744 395.909,152.244 388.5,161.5 Z"/></g>
<g><path style="opacity:0.996" fill="#b9dfde" d="M 253.5,110.5 C 258.637,113.818 264.137,116.485 270,118.5C 272.333,117.5 274.667,116.5 277,115.5C 279.009,115.995 281.176,115.995 283.5,115.5C 302.678,141.181 319.844,168.181 335,196.5C 336,199.5 337,202.5 338,205.5C 338.562,224.016 338.062,242.349 336.5,260.5C 336.666,255.489 336.499,250.489 336,245.5C 330.262,238.603 323.429,232.936 315.5,228.5C 314.772,226.807 313.772,225.307 312.5,224C 304.999,220.912 297.332,218.412 289.5,216.5C 286.071,211.114 282.904,205.447 280,199.5C 274.29,182.612 268.956,165.612 264,148.5C 257.847,136.603 254.347,123.937 253.5,110.5 Z"/></g>
<g><path style="opacity:1" fill="#afdedc" d="M 344.5,129.5 C 360.198,138.689 374.865,149.356 388.5,161.5C 383.811,168.7 378.144,175.2 371.5,181C 370.552,181.483 369.552,181.649 368.5,181.5C 360.805,165.781 352.305,150.448 343,135.5C 342.059,133.011 342.559,131.011 344.5,129.5 Z"/></g>
<g><path style="opacity:1" fill="#50dedb" d="M 481.5,153.5 C 481.389,154.117 481.056,154.617 480.5,155C 490.767,160.938 500.767,167.272 510.5,174C 538.871,187.401 568.538,196.901 599.5,202.5C 599.5,208.833 599.5,215.167 599.5,221.5C 576.498,216.444 554.165,209.277 532.5,200C 522.201,194.516 512.201,188.516 502.5,182C 491.52,174.369 480.854,166.535 470.5,158.5C 473.979,156.597 477.646,154.93 481.5,153.5 Z"/></g>
<g><path style="opacity:0.992" fill="#81e4b4" d="M 160.5,133.5 C 158.334,143.668 155.001,153.334 150.5,162.5C 136.559,172.775 123.226,183.775 110.5,195.5C 106.864,190.858 103.197,186.191 99.5,181.5C 121.937,168.122 142.27,152.122 160.5,133.5 Z"/></g>
<g><path style="opacity:1" fill="#6cdddb" d="M 470.5,158.5 C 480.854,166.535 491.52,174.369 502.5,182C 512.201,188.516 522.201,194.516 532.5,200C 554.165,209.277 576.498,216.444 599.5,221.5C 599.5,227.833 599.5,234.167 599.5,240.5C 557.82,233.161 521.82,214.994 491.5,186C 481.521,178.696 471.521,171.362 461.5,164C 462.056,163.617 462.389,163.117 462.5,162.5C 464.849,160.659 467.515,159.326 470.5,158.5 Z"/></g>
<g><path style="opacity:1" fill="#7ddddb" d="M 462.5,162.5 C 462.389,163.117 462.056,163.617 461.5,164C 471.521,171.362 481.521,178.696 491.5,186C 521.82,214.994 557.82,233.161 599.5,240.5C 599.5,245.167 599.5,249.833 599.5,254.5C 557.021,246.937 521.354,227.437 492.5,196C 486.145,191.865 480.311,187.032 475,181.5C 474.667,181.833 474.333,182.167 474,182.5C 467.695,176.837 461.195,171.504 454.5,166.5C 456.883,164.642 459.55,163.308 462.5,162.5 Z"/></g>
<g><path style="opacity:1" fill="#8adddb" d="M 454.5,166.5 C 461.195,171.504 467.695,176.837 474,182.5C 474.333,182.167 474.667,181.833 475,181.5C 480.311,187.032 486.145,191.865 492.5,196C 521.354,227.437 557.021,246.937 599.5,254.5C 599.5,259.833 599.5,265.167 599.5,270.5C 575.809,265.637 553.475,257.47 532.5,246C 531.167,245 531.167,244 532.5,243C 519.411,233.963 507.411,222.963 496.5,210C 480.983,196.316 465.316,182.816 449.5,169.5C 450.965,168.263 452.632,167.263 454.5,166.5 Z"/></g>
<g><path style="opacity:1" fill="#97dddb" d="M 449.5,169.5 C 465.316,182.816 480.983,196.316 496.5,210C 507.411,222.963 519.411,233.963 532.5,243C 531.167,244 531.167,245 532.5,246C 553.475,257.47 575.809,265.637 599.5,270.5C 599.5,276.167 599.5,281.833 599.5,287.5C 580.251,282.584 561.251,276.751 542.5,270C 525.886,262.29 511.386,251.79 499,238.5C 497.92,236.004 496.586,233.67 495,231.5C 477.265,211.93 458.431,193.596 438.5,176.5C 441.961,173.931 445.628,171.597 449.5,169.5 Z"/></g>
<g><path style="opacity:0.992" fill="#a6e7c1" d="M 181.5,147.5 C 178.005,159.16 174.505,170.827 171,182.5C 169.821,195.301 168.988,208.134 168.5,221C 169.459,234.369 173.125,246.869 179.5,258.5C 170.399,252.58 161.399,246.413 152.5,240C 149.216,240.184 147.216,238.684 146.5,235.5C 147.263,234.281 148.263,233.281 149.5,232.5C 148.311,231.571 146.978,231.238 145.5,231.5C 145.782,226.073 145.449,220.74 144.5,215.5C 146.033,213.21 145.7,212.544 143.5,213.5C 140.573,210.744 138.24,207.578 136.5,204C 138.122,196.261 140.456,188.761 143.5,181.5C 156.439,170.566 169.106,159.233 181.5,147.5 Z"/></g>
<g><path style="opacity:0.992" fill="#96e3b7" d="M 150.5,162.5 C 148.367,168.898 146.034,175.232 143.5,181.5C 140.456,188.761 138.122,196.261 136.5,204C 138.24,207.578 140.573,210.744 143.5,213.5C 145.7,212.544 146.033,213.21 144.5,215.5C 143.883,215.389 143.383,215.056 143,214.5C 140,217.167 137,219.833 134,222.5C 133.333,224.167 133.333,225.833 134,227.5C 135.892,228.617 136.725,230.284 136.5,232.5C 127.088,220.744 118.421,208.41 110.5,195.5C 123.226,183.775 136.559,172.775 150.5,162.5 Z"/></g>
<g><path style="opacity:0.999" fill="#a3dddb" d="M 438.5,176.5 C 458.431,193.596 477.265,211.93 495,231.5C 496.586,233.67 497.92,236.004 499,238.5C 511.386,251.79 525.886,262.29 542.5,270C 561.251,276.751 580.251,282.584 599.5,287.5C 599.5,294.5 599.5,301.5 599.5,308.5C 577.349,304.045 555.682,297.879 534.5,290C 537.464,289.16 537.797,288.16 535.5,287C 520.553,281.036 505.886,275.369 491.5,270C 486.833,266.667 482.833,262.667 479.5,258C 476.879,256.405 474.213,254.905 471.5,253.5C 466.513,242.188 460.013,231.855 452,222.5C 445.638,215.474 439.305,208.474 433,201.5C 429.042,197.463 424.876,193.796 420.5,190.5C 426.19,185.482 432.19,180.815 438.5,176.5 Z"/></g>
<g><path style="opacity:0.992" fill="#72e4a4" d="M -0.5,154.5 C 10.2657,159.723 20.2657,166.223 29.5,174C 32.5208,177.565 34.8541,181.398 36.5,185.5C 31.2661,203.856 27.9328,222.522 26.5,241.5C 17.319,234.742 8.31904,227.742 -0.5,220.5C -0.5,198.5 -0.5,176.5 -0.5,154.5 Z"/></g>
<g><path style="opacity:0.997" fill="#b0dfdd" d="M 420.5,190.5 C 424.876,193.796 429.042,197.463 433,201.5C 439.305,208.474 445.638,215.474 452,222.5C 460.013,231.855 466.513,242.188 471.5,253.5C 474.213,254.905 476.879,256.405 479.5,258C 482.833,262.667 486.833,266.667 491.5,270C 505.886,275.369 520.553,281.036 535.5,287C 537.797,288.16 537.464,289.16 534.5,290C 555.682,297.879 577.349,304.045 599.5,308.5C 599.5,319.833 599.5,331.167 599.5,342.5C 597.443,340.73 595.609,338.73 594,336.5C 562.494,328.709 531.494,319.376 501,308.5C 500.667,308.833 500.333,309.167 500,309.5C 493.868,307.583 487.368,305.75 480.5,304C 476.66,302.582 473.326,300.415 470.5,297.5C 462.567,287.725 454.4,278.059 446,268.5C 444.092,264.495 442.258,260.995 440.5,258C 440.957,257.586 441.291,257.086 441.5,256.5C 440.147,255.315 438.98,253.981 438,252.5C 437.667,252.833 437.333,253.167 437,253.5C 432.31,239.057 424.477,226.224 413.5,215C 413.833,214.667 414.167,214.333 414.5,214C 411.398,211.474 408.398,208.974 405.5,206.5C 409.795,200.537 414.795,195.204 420.5,190.5 Z"/></g>
<g><path style="opacity:0.998" fill="#b9dfde" d="M 405.5,206.5 C 408.398,208.974 411.398,211.474 414.5,214C 414.167,214.333 413.833,214.667 413.5,215C 424.477,226.224 432.31,239.057 437,253.5C 437.333,253.167 437.667,252.833 438,252.5C 438.98,253.981 440.147,255.315 441.5,256.5C 441.291,257.086 440.957,257.586 440.5,258C 442.258,260.995 444.092,264.495 446,268.5C 454.4,278.059 462.567,287.725 470.5,297.5C 461.464,292.987 452.131,288.987 442.5,285.5C 439.316,284.579 436.15,283.579 433,282.5C 431.295,283.763 429.628,284.097 428,283.5C 424.433,286.563 421.599,286.063 419.5,282C 419.833,281.667 420.167,281.333 420.5,281C 418.113,280.024 416.946,278.191 417,275.5C 415.833,274.333 414.667,273.167 413.5,272C 400.881,268.184 388.548,263.684 376.5,258.5C 382.053,238.714 391.72,221.381 405.5,206.5 Z"/></g>
<g><path style="opacity:0.994" fill="#d5e6dc" d="M 295.5,324.5 C 295.611,323.883 295.944,323.383 296.5,323C 290.601,316.685 284.101,311.852 277,308.5C 269.612,298.106 261.112,288.606 251.5,280C 250.256,279.544 249.423,280.044 249,281.5C 246.463,278.628 243.63,276.128 240.5,274C 240.835,272.836 240.835,271.503 240.5,270C 236.575,267.07 232.408,264.57 228,262.5C 227.667,262.833 227.333,263.167 227,263.5C 226.228,262.151 225.061,261.318 223.5,261C 224.451,260.282 224.617,259.449 224,258.5C 222.6,257.252 221.1,256.252 219.5,255.5C 219.333,231.164 219.5,206.831 220,182.5C 219.653,170.256 221.986,158.589 227,147.5C 230.462,166.602 234.462,185.602 239,204.5C 241.735,213.704 245.069,222.704 249,231.5C 250.418,240.104 252.751,248.438 256,256.5C 263.894,265.274 271.56,274.274 279,283.5C 284.376,288.706 290.209,293.373 296.5,297.5C 302.464,304.799 308.797,311.799 315.5,318.5C 309.395,322.312 302.728,324.312 295.5,324.5 Z"/></g>
<g><path style="opacity:0.995" fill="#a2e9b7" d="M 144.5,215.5 C 145.449,220.74 145.782,226.073 145.5,231.5C 146.978,231.238 148.311,231.571 149.5,232.5C 148.263,233.281 147.263,234.281 146.5,235.5C 147.216,238.684 149.216,240.184 152.5,240C 161.399,246.413 170.399,252.58 179.5,258.5C 181.67,264.514 183.337,270.68 184.5,277C 184.167,277.833 183.833,278.667 183.5,279.5C 166.146,265.479 150.479,249.812 136.5,232.5C 136.725,230.284 135.892,228.617 134,227.5C 133.333,225.833 133.333,224.167 134,222.5C 137,219.833 140,217.167 143,214.5C 143.383,215.056 143.883,215.389 144.5,215.5 Z"/></g>
<g><path style="opacity:0.987" fill="#cae3dd" d="M 289.5,216.5 C 297.332,218.412 304.999,220.912 312.5,224C 313.772,225.307 314.772,226.807 315.5,228.5C 323.429,232.936 330.262,238.603 336,245.5C 336.499,250.489 336.666,255.489 336.5,260.5C 336.749,269.929 335.916,279.262 334,288.5C 328.623,282.792 323.623,276.792 319,270.5C 308.878,252.611 299.045,234.611 289.5,216.5 Z"/></g>
<g><path style="opacity:0.992" fill="#71e49e" d="M -0.5,220.5 C 8.31904,227.742 17.319,234.742 26.5,241.5C 25.8461,255.157 25.5127,268.824 25.5,282.5C 24.8018,279.103 24.1352,275.603 23.5,272C 20.331,271.166 17.1643,270.332 14,269.5C 11.8491,269.773 9.84911,270.439 8,271.5C 5.34135,269.754 2.50801,268.42 -0.5,267.5C -0.5,251.833 -0.5,236.167 -0.5,220.5 Z"/></g>
<g><path style="opacity:0.992" fill="#7fe3a3" d="M 146.5,297.5 C 142.419,296.6 138.919,294.6 136,291.5C 135.282,292.451 134.449,292.617 133.5,292C 131.702,289.528 129.368,287.861 126.5,287C 122.964,282.763 119.798,278.263 117,273.5C 115.229,272.696 113.729,271.529 112.5,270C 102.017,266.951 91.8502,263.118 82,258.5C 76.9842,261.45 71.8175,264.117 66.5,266.5C 65.5481,268.045 65.2148,269.712 65.5,271.5C 64.2852,251.979 62.9519,232.312 61.5,212.5C 61.8333,211.167 62.1667,209.833 62.5,208.5C 89.8456,238.844 117.846,268.511 146.5,297.5 Z"/></g>
<g><path style="opacity:0.983" fill="#cfe8d5" d="M 219.5,255.5 C 221.1,256.252 222.6,257.252 224,258.5C 224.617,259.449 224.451,260.282 223.5,261C 225.061,261.318 226.228,262.151 227,263.5C 227.333,263.167 227.667,262.833 228,262.5C 232.408,264.57 236.575,267.07 240.5,270C 240.835,271.503 240.835,272.836 240.5,274C 243.63,276.128 246.463,278.628 249,281.5C 249.423,280.044 250.256,279.544 251.5,280C 261.112,288.606 269.612,298.106 277,308.5C 284.101,311.852 290.601,316.685 296.5,323C 295.944,323.383 295.611,323.883 295.5,324.5C 292.167,324.5 288.833,324.5 285.5,324.5C 264.071,304.803 242.404,286.47 220.5,269.5C 220.002,264.848 219.669,260.181 219.5,255.5 Z"/></g>
<g><path style="opacity:0.993" fill="#bfe1dd" d="M 376.5,258.5 C 388.548,263.684 400.881,268.184 413.5,272C 414.667,273.167 415.833,274.333 417,275.5C 416.946,278.191 418.113,280.024 420.5,281C 420.167,281.333 419.833,281.667 419.5,282C 421.599,286.063 424.433,286.563 428,283.5C 429.628,284.097 431.295,283.763 433,282.5C 436.15,283.579 439.316,284.579 442.5,285.5C 449.526,292.358 455.193,300.191 459.5,309C 459.441,312.76 458.775,316.593 457.5,320.5C 456.448,320.351 455.448,320.517 454.5,321C 454.833,321.333 455.167,321.667 455.5,322C 453.574,322.422 452.574,323.589 452.5,325.5C 451.167,325.833 449.833,326.167 448.5,326.5C 442.797,326.525 437.297,326.525 432,326.5C 431.055,326.905 430.388,327.572 430,328.5C 428.249,327.826 426.583,327.493 425,327.5C 423.561,329.014 422.061,329.347 420.5,328.5C 416.895,329.49 413.228,330.156 409.5,330.5C 414.932,327.692 419.765,324.026 424,319.5C 424.749,318.365 424.583,317.365 423.5,316.5C 422.033,316.723 420.533,317.056 419,317.5C 417.829,316.107 416.329,315.273 414.5,315C 416.421,313.759 416.754,312.259 415.5,310.5C 412.097,310.254 408.264,310.587 404,311.5C 401.075,311.477 398.241,310.977 395.5,310C 386.096,304.096 377.43,297.262 369.5,289.5C 370.434,278.826 372.768,268.492 376.5,258.5 Z"/></g>
<g><path style="opacity:0.992" fill="#61e693" d="M -0.5,267.5 C 2.50801,268.42 5.34135,269.754 8,271.5C 9.84911,270.439 11.8491,269.773 14,269.5C 17.1643,270.332 20.331,271.166 23.5,272C 24.1352,275.603 24.8018,279.103 25.5,282.5C 25.5925,288.516 25.9258,294.516 26.5,300.5C 25.5655,299.432 25.2322,298.099 25.5,296.5C 24.1779,296.33 23.0113,296.663 22,297.5C 14.569,296.607 7.06896,295.941 -0.5,295.5C -0.5,286.167 -0.5,276.833 -0.5,267.5 Z"/></g>
<g><path style="opacity:0.999" fill="#61e991" d="M 254.5,415.5 C 249.625,418.104 244.625,420.438 239.5,422.5C 237.353,420.53 235.02,418.697 232.5,417C 234.301,416.683 234.634,416.016 233.5,415C 195.03,396.172 161.863,370.672 134,338.5C 127.507,330.182 121.507,321.515 116,312.5C 115,312.167 114,311.833 113,311.5C 111.08,308.661 109.413,305.661 108,302.5C 107.667,302.833 107.333,303.167 107,303.5C 103.613,296.879 98.1134,293.379 90.5,293C 82.7458,291.955 75.0791,291.455 67.5,291.5C 67.5,294.167 67.5,296.833 67.5,299.5C 67.5,300.167 67.5,300.833 67.5,301.5C 66.5151,297.366 66.1818,293.032 66.5,288.5C 66.5,285.833 66.5,283.167 66.5,280.5C 76.4281,280.598 86.4281,281.264 96.5,282.5C 104.96,280.818 110.46,284.151 113,292.5C 118.687,296.318 123.687,300.985 128,306.5C 140.806,328.983 156.973,348.816 176.5,366C 187.82,375.079 199.153,383.412 210.5,391C 224.246,397.038 237.912,403.371 251.5,410C 252.634,411.016 252.301,411.683 250.5,412C 252.324,412.66 253.657,413.827 254.5,415.5 Z"/></g>
<g><path style="opacity:0.996" fill="#b7e1dc" d="M 442.5,285.5 C 452.131,288.987 461.464,292.987 470.5,297.5C 473.326,300.415 476.66,302.582 480.5,304C 487.368,305.75 493.868,307.583 500,309.5C 500.333,309.167 500.667,308.833 501,308.5C 531.494,319.376 562.494,328.709 594,336.5C 595.609,338.73 597.443,340.73 599.5,342.5C 599.5,354.167 599.5,365.833 599.5,377.5C 592.395,370.767 584.062,365.767 574.5,362.5C 573.094,361.049 571.594,359.716 570,358.5C 569.667,358.833 569.333,359.167 569,359.5C 563.61,354.121 557.61,350.454 551,348.5C 547.336,345.464 543.003,342.797 538,340.5C 537.667,340.833 537.333,341.167 537,341.5C 535.027,340.36 533.193,339.027 531.5,337.5C 527.132,337.553 523.132,336.053 519.5,333C 517.236,332.764 515.069,332.264 513,331.5C 512.667,331.833 512.333,332.167 512,332.5C 509.919,330.518 507.419,329.184 504.5,328.5C 503.914,328.709 503.414,329.043 503,329.5C 489.79,324.881 476.29,322.714 462.5,323C 459.765,324.46 456.932,325.627 454,326.5C 453.617,325.944 453.117,325.611 452.5,325.5C 452.574,323.589 453.574,322.422 455.5,322C 455.167,321.667 454.833,321.333 454.5,321C 455.448,320.517 456.448,320.351 457.5,320.5C 458.775,316.593 459.441,312.76 459.5,309C 455.193,300.191 449.526,292.358 442.5,285.5 Z"/></g>
<g><path style="opacity:0.982" fill="#c1e7cb" d="M 220.5,269.5 C 242.404,286.47 264.071,304.803 285.5,324.5C 281.958,324.813 278.625,324.479 275.5,323.5C 275.938,323.565 276.272,323.399 276.5,323C 258.502,307.679 240.169,292.846 221.5,278.5C 220.841,275.545 220.508,272.545 220.5,269.5 Z"/></g>
<g><path style="opacity:0.992" fill="#cbe3dc" d="M 369.5,289.5 C 377.43,297.262 386.096,304.096 395.5,310C 398.241,310.977 401.075,311.477 404,311.5C 408.264,310.587 412.097,310.254 415.5,310.5C 416.754,312.259 416.421,313.759 414.5,315C 416.329,315.273 417.829,316.107 419,317.5C 420.533,317.056 422.033,316.723 423.5,316.5C 424.583,317.365 424.749,318.365 424,319.5C 419.765,324.026 414.932,327.692 409.5,330.5C 406.408,331.544 403.408,332.878 400.5,334.5C 399.914,334.291 399.414,333.957 399,333.5C 391.992,335.931 383.659,338.598 374,341.5C 373.127,341.265 372.293,340.931 371.5,340.5C 368.485,341.673 365.485,342.673 362.5,343.5C 361.707,343.069 360.873,342.735 360,342.5C 357.614,344.395 355.114,346.062 352.5,347.5C 360.049,328.623 365.715,309.29 369.5,289.5 Z"/></g>
<g><path style="opacity:0.995" fill="#98e9b0" d="M 223.5,292.5 C 233.508,298.661 242.842,305.828 251.5,314C 250.004,314.507 248.837,314.007 248,312.5C 247.5,313 247,313.5 246.5,314C 247.756,314.417 248.423,315.25 248.5,316.5C 241.173,314.339 234.173,311.339 227.5,307.5C 225.155,302.781 223.822,297.781 223.5,292.5 Z"/></g>
<g><path style="opacity:0.999" fill="#50e88b" d="M 239.5,422.5 C 236.249,424.957 232.582,426.624 228.5,427.5C 224.91,423.424 220.577,420.257 215.5,418C 215.5,417 215.5,416 215.5,415C 213.234,413.848 210.9,413.348 208.5,413.5C 208.06,412.302 207.727,411.135 207.5,410C 203.332,407.75 199.332,405.25 195.5,402.5C 194.914,402.709 194.414,403.043 194,403.5C 193.758,401.862 192.925,400.362 191.5,399C 164.83,379.668 140.664,357.502 119,332.5C 115.166,327.503 111.833,322.17 109,316.5C 108.667,317.167 108.333,317.833 108,318.5C 107.316,317.216 107.483,316.049 108.5,315C 105.845,311.371 103.179,307.705 100.5,304C 98.9194,303.293 97.4194,302.46 96,301.5C 95.6667,302.167 95.3333,302.833 95,303.5C 89.4699,301.743 83.8033,300.409 78,299.5C 74.4073,299.574 70.9073,299.574 67.5,299.5C 67.5,296.833 67.5,294.167 67.5,291.5C 75.0791,291.455 82.7458,291.955 90.5,293C 98.1134,293.379 103.613,296.879 107,303.5C 107.333,303.167 107.667,302.833 108,302.5C 109.413,305.661 111.08,308.661 113,311.5C 114,311.833 115,312.167 116,312.5C 121.507,321.515 127.507,330.182 134,338.5C 161.863,370.672 195.03,396.172 233.5,415C 234.634,416.016 234.301,416.683 232.5,417C 235.02,418.697 237.353,420.53 239.5,422.5 Z"/></g>
<g><path style="opacity:1" fill="#76ec9d" d="M 146.5,297.5 C 166.917,317.221 190.25,332.721 216.5,344C 232.836,349.279 249.169,354.446 265.5,359.5C 267.237,362.896 268.904,366.396 270.5,370C 270.341,373.573 268.341,376.24 264.5,378C 264.833,378.333 265.167,378.667 265.5,379C 264.13,380.441 263.13,382.108 262.5,384C 261.673,385.893 261.673,388.059 262.5,390.5C 261.96,391.748 261.293,392.915 260.5,394C 261.435,398.728 263.435,403.228 266.5,407.5C 262.881,410.65 258.881,413.316 254.5,415.5C 253.657,413.827 252.324,412.66 250.5,412C 252.301,411.683 252.634,411.016 251.5,410C 237.912,403.371 224.246,397.038 210.5,391C 199.153,383.412 187.82,375.079 176.5,366C 156.973,348.816 140.806,328.983 128,306.5C 123.687,300.985 118.687,296.318 113,292.5C 110.46,284.151 104.96,280.818 96.5,282.5C 86.4281,281.264 76.4281,280.598 66.5,280.5C 66.5,283.167 66.5,285.833 66.5,288.5C 65.5111,283.025 65.1778,277.358 65.5,271.5C 65.2148,269.712 65.5481,268.045 66.5,266.5C 71.8175,264.117 76.9842,261.45 82,258.5C 91.8502,263.118 102.017,266.951 112.5,270C 113.729,271.529 115.229,272.696 117,273.5C 119.798,278.263 122.964,282.763 126.5,287C 129.368,287.861 131.702,289.528 133.5,292C 134.449,292.617 135.282,292.451 136,291.5C 138.919,294.6 142.419,296.6 146.5,297.5 Z"/></g>
<g><path style="opacity:0.992" fill="#3ae682" d="M -0.5,295.5 C 7.06896,295.941 14.569,296.607 22,297.5C 23.0113,296.663 24.1779,296.33 25.5,296.5C 25.2322,298.099 25.5655,299.432 26.5,300.5C 27.0848,306.178 27.7514,311.845 28.5,317.5C 27.8423,316.602 27.1757,315.602 26.5,314.5C 17.7476,315.13 8.74759,315.463 -0.5,315.5C -0.5,308.833 -0.5,302.167 -0.5,295.5 Z"/></g>
<g><path style="opacity:0.987" fill="#ade8bd" d="M 221.5,278.5 C 240.169,292.846 258.502,307.679 276.5,323C 276.272,323.399 275.938,323.565 275.5,323.5C 266.041,322.553 257.041,320.219 248.5,316.5C 248.423,315.25 247.756,314.417 246.5,314C 247,313.5 247.5,313 248,312.5C 248.837,314.007 250.004,314.507 251.5,314C 242.842,305.828 233.508,298.661 223.5,292.5C 222.761,287.853 222.094,283.186 221.5,278.5 Z"/></g>
<g><path style="opacity:0.995" fill="#b7e2d7" d="M 599.5,377.5 C 599.5,384.833 599.5,392.167 599.5,399.5C 593.424,397.287 587.424,394.12 581.5,390C 580.638,387.266 579.805,387.099 579,389.5C 578.558,387.321 577.558,386.655 576,387.5C 573.667,385.833 571.333,384.167 569,382.5C 568.282,383.451 567.449,383.617 566.5,383C 565.498,381.328 564.332,380.162 563,379.5C 561.002,380.271 559.335,379.605 558,377.5C 556.16,378.833 555.66,378.666 556.5,377C 555.551,376.383 554.718,376.549 554,377.5C 552.258,375.071 550.258,373.737 548,373.5C 547.228,373.645 546.561,373.978 546,374.5C 543.806,372.306 541.64,370.14 539.5,368C 537.433,367.464 535.599,367.964 534,369.5C 529.069,367.386 524.069,364.719 519,361.5C 518.586,361.957 518.086,362.291 517.5,362.5C 514.056,360.427 510.556,358.427 507,356.5C 505.984,357.634 505.317,357.301 505,355.5C 504.586,355.957 504.086,356.291 503.5,356.5C 496.866,353.159 490.366,350.492 484,348.5C 481.602,348.935 479.269,348.269 477,346.5C 474.184,347.13 471.518,346.464 469,344.5C 468.667,344.833 468.333,345.167 468,345.5C 466.921,343.606 465.587,343.273 464,344.5C 453.46,342.401 443.294,340.068 433.5,337.5C 437.827,335.243 441.994,332.576 446,329.5C 446.333,329.833 446.667,330.167 447,330.5C 448.188,329.437 448.688,328.103 448.5,326.5C 449.833,326.167 451.167,325.833 452.5,325.5C 453.117,325.611 453.617,325.944 454,326.5C 456.932,325.627 459.765,324.46 462.5,323C 476.29,322.714 489.79,324.881 503,329.5C 503.414,329.043 503.914,328.709 504.5,328.5C 507.419,329.184 509.919,330.518 512,332.5C 512.333,332.167 512.667,331.833 513,331.5C 515.069,332.264 517.236,332.764 519.5,333C 523.132,336.053 527.132,337.553 531.5,337.5C 533.193,339.027 535.027,340.36 537,341.5C 537.333,341.167 537.667,340.833 538,340.5C 543.003,342.797 547.336,345.464 551,348.5C 557.61,350.454 563.61,354.121 569,359.5C 569.333,359.167 569.667,358.833 570,358.5C 571.594,359.716 573.094,361.049 574.5,362.5C 584.062,365.767 592.395,370.767 599.5,377.5 Z"/></g>
<g><path style="opacity:0.996" fill="#02e674" d="M 28.5,317.5 C 29.2876,322.231 30.2876,326.897 31.5,331.5C 20.7264,331.953 10.0598,331.953 -0.5,331.5C -0.5,326.167 -0.5,320.833 -0.5,315.5C 8.74759,315.463 17.7476,315.13 26.5,314.5C 27.1757,315.602 27.8423,316.602 28.5,317.5 Z"/></g>
<g><path style="opacity:0.991" fill="#c4e5d7" d="M 448.5,326.5 C 448.688,328.103 448.188,329.437 447,330.5C 446.667,330.167 446.333,329.833 446,329.5C 441.994,332.576 437.827,335.243 433.5,337.5C 432.305,337.322 431.138,336.989 430,336.5C 425.963,338.27 421.797,339.603 417.5,340.5C 416.914,340.291 416.414,339.957 416,339.5C 411.683,340.952 407.683,341.286 404,340.5C 391.972,343.553 379.806,346.053 367.5,348C 364.703,349.233 362.037,350.733 359.5,352.5C 357.223,352.015 355.056,352.681 353,354.5C 352.014,353.829 350.847,353.829 349.5,354.5C 350.227,352.046 351.227,349.713 352.5,347.5C 355.114,346.062 357.614,344.395 360,342.5C 360.873,342.735 361.707,343.069 362.5,343.5C 365.485,342.673 368.485,341.673 371.5,340.5C 372.293,340.931 373.127,341.265 374,341.5C 383.659,338.598 391.992,335.931 399,333.5C 399.414,333.957 399.914,334.291 400.5,334.5C 403.408,332.878 406.408,331.544 409.5,330.5C 413.228,330.156 416.895,329.49 420.5,328.5C 422.061,329.347 423.561,329.014 425,327.5C 426.583,327.493 428.249,327.826 430,328.5C 430.388,327.572 431.055,326.905 432,326.5C 437.297,326.525 442.797,326.525 448.5,326.5 Z"/></g>
<g><path style="opacity:1" fill="#07e475" d="M 204.5,437.5 C 195.209,440.376 185.876,443.042 176.5,445.5C 166.585,436.923 156.918,427.923 147.5,418.5C 149.442,414.424 149.942,410.091 149,405.5C 147.248,402.328 145.248,399.328 143,396.5C 128.73,381.46 112.563,368.96 94.5,359C 79.0181,348.205 70.6848,333.371 69.5,314.5C 69.369,313.761 69.5357,313.094 70,312.5C 76.3672,312.99 82.8672,314.156 89.5,316C 93.3097,318.313 96.9764,320.813 100.5,323.5C 102.868,327.899 104.368,332.565 105,337.5C 111.007,346.071 116.674,354.404 122,362.5C 149.469,387.908 176.969,412.908 204.5,437.5 Z"/></g>
<g><path style="opacity:1" fill="#31e680" d="M 216.5,432.5 C 212.571,434.148 208.571,435.815 204.5,437.5C 176.969,412.908 149.469,387.908 122,362.5C 116.674,354.404 111.007,346.071 105,337.5C 104.368,332.565 102.868,327.899 100.5,323.5C 96.9764,320.813 93.3097,318.313 89.5,316C 82.8672,314.156 76.3672,312.99 70,312.5C 69.5357,313.094 69.369,313.761 69.5,314.5C 68.5386,312.735 68.2053,310.735 68.5,308.5C 70.6778,307.796 72.6778,307.463 74.5,307.5C 82.8937,308.804 90.8937,310.638 98.5,313C 101.596,317.027 103.763,321.527 105,326.5C 108.823,330.811 112.156,335.478 115,340.5C 115.617,341.449 115.451,342.282 114.5,343C 128.175,357.341 142.508,371.008 157.5,384C 177.065,400.409 196.732,416.575 216.5,432.5 Z"/></g>
<g><path style="opacity:0.996" fill="#00e567" d="M -0.5,331.5 C 10.0598,331.953 20.7264,331.953 31.5,331.5C 34.6883,339.542 38.6883,347.208 43.5,354.5C 28.805,353.065 14.1383,351.732 -0.5,350.5C -0.5,344.167 -0.5,337.833 -0.5,331.5 Z"/></g>
<g><path style="opacity:0.993" fill="#b4e4d1" d="M 433.5,337.5 C 443.294,340.068 453.46,342.401 464,344.5C 465.587,343.273 466.921,343.606 468,345.5C 468.333,345.167 468.667,344.833 469,344.5C 471.518,346.464 474.184,347.13 477,346.5C 479.269,348.269 481.602,348.935 484,348.5C 490.366,350.492 496.866,353.159 503.5,356.5C 504.086,356.291 504.586,355.957 505,355.5C 505.317,357.301 505.984,357.634 507,356.5C 510.556,358.427 514.056,360.427 517.5,362.5C 518.086,362.291 518.586,361.957 519,361.5C 524.069,364.719 529.069,367.386 534,369.5C 535.599,367.964 537.433,367.464 539.5,368C 541.64,370.14 543.806,372.306 546,374.5C 546.561,373.978 547.228,373.645 548,373.5C 550.258,373.737 552.258,375.071 554,377.5C 554.718,376.549 555.551,376.383 556.5,377C 555.66,378.666 556.16,378.833 558,377.5C 559.335,379.605 561.002,380.271 563,379.5C 564.332,380.162 565.498,381.328 566.5,383C 567.449,383.617 568.282,383.451 569,382.5C 571.333,384.167 573.667,385.833 576,387.5C 577.558,386.655 578.558,387.321 579,389.5C 579.805,387.099 580.638,387.266 581.5,390C 587.424,394.12 593.424,397.287 599.5,399.5C 599.5,412.167 599.5,424.833 599.5,437.5C 596.735,435.787 594.402,433.62 592.5,431C 591.24,429.887 590.073,429.72 589,430.5C 587.513,429.747 587.346,428.914 588.5,428C 572.836,416.831 556.502,405.497 539.5,394C 525.03,387.649 510.363,381.815 495.5,376.5C 494.325,377.855 493.325,377.688 492.5,376C 492.833,375.667 493.167,375.333 493.5,375C 495.279,375.979 496.945,375.646 498.5,374C 495.692,373.402 493.192,372.235 491,370.5C 490.667,370.833 490.333,371.167 490,371.5C 487.01,369.347 484.01,368.014 481,367.5C 480.667,367.833 480.333,368.167 480,368.5C 473.224,365.523 466.39,362.856 459.5,360.5C 458.914,360.709 458.414,361.043 458,361.5C 454.951,360.061 451.785,358.894 448.5,358C 435.143,355.415 422.143,353.248 409.5,351.5C 408.522,351.977 407.689,352.643 407,353.5C 406.667,353.167 406.333,352.833 406,352.5C 404.333,353.167 402.667,353.833 401,354.5C 389.342,353.535 377.842,352.535 366.5,351.5C 360.544,354.7 354.211,357.033 347.5,358.5C 347.66,356.847 348.326,355.514 349.5,354.5C 350.847,353.829 352.014,353.829 353,354.5C 355.056,352.681 357.223,352.015 359.5,352.5C 362.037,350.733 364.703,349.233 367.5,348C 379.806,346.053 391.972,343.553 404,340.5C 407.683,341.286 411.683,340.952 416,339.5C 416.414,339.957 416.914,340.291 417.5,340.5C 421.797,339.603 425.963,338.27 430,336.5C 431.138,336.989 432.305,337.322 433.5,337.5 Z"/></g>
<g><path style="opacity:1" fill="#41e784" d="M 67.5,299.5 C 70.9073,299.574 74.4073,299.574 78,299.5C 83.8033,300.409 89.4699,301.743 95,303.5C 95.3333,302.833 95.6667,302.167 96,301.5C 97.4194,302.46 98.9194,303.293 100.5,304C 103.179,307.705 105.845,311.371 108.5,315C 107.483,316.049 107.316,317.216 108,318.5C 108.333,317.833 108.667,317.167 109,316.5C 111.833,322.17 115.166,327.503 119,332.5C 140.664,357.502 164.83,379.668 191.5,399C 192.925,400.362 193.758,401.862 194,403.5C 194.414,403.043 194.914,402.709 195.5,402.5C 199.332,405.25 203.332,407.75 207.5,410C 207.727,411.135 208.06,412.302 208.5,413.5C 210.9,413.348 213.234,413.848 215.5,415C 215.5,416 215.5,417 215.5,418C 220.577,420.257 224.91,423.424 228.5,427.5C 224.797,429.679 220.797,431.345 216.5,432.5C 196.732,416.575 177.065,400.409 157.5,384C 142.508,371.008 128.175,357.341 114.5,343C 115.451,342.282 115.617,341.449 115,340.5C 112.156,335.478 108.823,330.811 105,326.5C 103.763,321.527 101.596,317.027 98.5,313C 90.8937,310.638 82.8937,308.804 74.5,307.5C 72.6778,307.463 70.6778,307.796 68.5,308.5C 67.7814,306.236 67.448,303.903 67.5,301.5C 67.5,300.833 67.5,300.167 67.5,299.5 Z"/></g>
<g><path style="opacity:0.99" fill="#b1e6cb" d="M 599.5,437.5 C 599.5,460.167 599.5,482.833 599.5,505.5C 592.909,503.765 586.575,501.265 580.5,498C 572.836,492.098 565.502,485.932 558.5,479.5C 557.402,478.603 557.402,477.77 558.5,477C 557.956,476.283 557.289,475.783 556.5,475.5C 556.207,471.876 556.207,467.543 556.5,462.5C 556.032,460.866 555.032,459.7 553.5,459C 553.255,457.089 553.255,455.089 553.5,453C 552.672,452.085 551.672,451.419 550.5,451C 551.925,449.286 551.592,447.953 549.5,447C 552.907,444.72 552.907,442.053 549.5,439C 549.493,437.417 549.826,435.751 550.5,434C 549.167,433 547.833,432 546.5,431C 547.89,428.006 546.89,426.006 543.5,425C 544.458,423.853 544.125,422.853 542.5,422C 543.738,422.077 544.738,421.911 545.5,421.5C 543.922,420.702 542.256,420.202 540.5,420C 541.308,419.692 541.975,419.192 542.5,418.5C 541.603,418.331 540.603,417.998 539.5,417.5C 540.165,415.899 540.499,414.399 540.5,413C 539.167,412 537.833,411 536.5,410C 536.833,409.667 537.167,409.333 537.5,409C 536,406.833 534.5,404.667 533,402.5C 532.667,402.833 532.333,403.167 532,403.5C 529.056,401.059 527.056,398.059 526,394.5C 525.282,395.451 524.449,395.617 523.5,395C 524.451,394.282 524.617,393.449 524,392.5C 522.667,392.5 521.333,392.5 520,392.5C 518.513,391.747 518.346,390.914 519.5,390C 516.309,391.204 514.143,390.037 513,386.5C 512.439,387.022 511.772,387.355 511,387.5C 504.087,385.182 497.754,382.515 492,379.5C 489.667,379.5 487.333,379.5 485,379.5C 483.488,378.743 482.154,377.743 481,376.5C 479.333,376.833 477.667,377.167 476,377.5C 475.667,376.5 475.333,375.5 475,374.5C 472.067,375.466 469.401,375.466 467,374.5C 464.488,373.614 461.821,372.28 459,370.5C 457.413,371.727 456.079,371.394 455,369.5C 451.493,369.995 447.993,369.328 444.5,367.5C 441.65,367.744 438.817,368.077 436,368.5C 435.333,367.833 434.667,367.167 434,366.5C 432.026,366.647 430.026,366.981 428,367.5C 427.667,366.833 427.333,366.167 427,365.5C 425.667,365.5 424.333,365.5 423,365.5C 422.333,366.167 421.667,366.833 421,367.5C 419.333,366.833 417.667,366.167 416,365.5C 415.333,366.167 414.667,366.833 414,367.5C 405.207,366.627 396.041,366.627 386.5,367.5C 381.757,369.018 376.924,370.351 372,371.5C 369.201,370.763 369.034,369.93 371.5,369C 362.593,366.704 353.926,364.537 345.5,362.5C 345.66,360.847 346.326,359.514 347.5,358.5C 354.211,357.033 360.544,354.7 366.5,351.5C 377.842,352.535 389.342,353.535 401,354.5C 402.667,353.833 404.333,353.167 406,352.5C 406.333,352.833 406.667,353.167 407,353.5C 407.689,352.643 408.522,351.977 409.5,351.5C 422.143,353.248 435.143,355.415 448.5,358C 451.785,358.894 454.951,360.061 458,361.5C 458.414,361.043 458.914,360.709 459.5,360.5C 466.39,362.856 473.224,365.523 480,368.5C 480.333,368.167 480.667,367.833 481,367.5C 484.01,368.014 487.01,369.347 490,371.5C 490.333,371.167 490.667,370.833 491,370.5C 493.192,372.235 495.692,373.402 498.5,374C 496.945,375.646 495.279,375.979 493.5,375C 493.167,375.333 492.833,375.667 492.5,376C 493.325,377.688 494.325,377.855 495.5,376.5C 510.363,381.815 525.03,387.649 539.5,394C 556.502,405.497 572.836,416.831 588.5,428C 587.346,428.914 587.513,429.747 589,430.5C 590.073,429.72 591.24,429.887 592.5,431C 594.402,433.62 596.735,435.787 599.5,437.5 Z"/></g>
<g><path style="opacity:0.992" fill="#abe6c9" d="M 556.5,475.5 C 551.2,470.407 545.7,465.407 540,460.5C 540.984,462.598 540.651,464.598 539,466.5C 538,466.833 537,467.167 536,467.5C 529.073,460.968 521.906,454.802 514.5,449C 511.789,445.992 509.122,442.992 506.5,440C 505.552,439.517 504.552,439.351 503.5,439.5C 503.649,438.448 503.483,437.448 503,436.5C 502.667,436.833 502.333,437.167 502,437.5C 498.503,432.668 494.003,428.168 488.5,424C 476.436,409.563 461.769,397.897 444.5,389C 443.624,387.414 442.624,385.914 441.5,384.5C 442.326,383.549 442.492,382.549 442,381.5C 440.333,381.5 438.667,381.5 437,381.5C 436.167,380.5 435.333,379.5 434.5,378.5C 433.914,378.709 433.414,379.043 433,379.5C 425.506,376.537 417.839,373.87 410,371.5C 409.667,371.833 409.333,372.167 409,372.5C 401.456,370.626 393.956,368.96 386.5,367.5C 396.041,366.627 405.207,366.627 414,367.5C 414.667,366.833 415.333,366.167 416,365.5C 417.667,366.167 419.333,366.833 421,367.5C 421.667,366.833 422.333,366.167 423,365.5C 424.333,365.5 425.667,365.5 427,365.5C 427.333,366.167 427.667,366.833 428,367.5C 430.026,366.981 432.026,366.647 434,366.5C 434.667,367.167 435.333,367.833 436,368.5C 438.817,368.077 441.65,367.744 444.5,367.5C 447.993,369.328 451.493,369.995 455,369.5C 456.079,371.394 457.413,371.727 459,370.5C 461.821,372.28 464.488,373.614 467,374.5C 469.401,375.466 472.067,375.466 475,374.5C 475.333,375.5 475.667,376.5 476,377.5C 477.667,377.167 479.333,376.833 481,376.5C 482.154,377.743 483.488,378.743 485,379.5C 487.333,379.5 489.667,379.5 492,379.5C 497.754,382.515 504.087,385.182 511,387.5C 511.772,387.355 512.439,387.022 513,386.5C 514.143,390.037 516.309,391.204 519.5,390C 518.346,390.914 518.513,391.747 520,392.5C 521.333,392.5 522.667,392.5 524,392.5C 524.617,393.449 524.451,394.282 523.5,395C 524.449,395.617 525.282,395.451 526,394.5C 527.056,398.059 529.056,401.059 532,403.5C 532.333,403.167 532.667,402.833 533,402.5C 534.5,404.667 536,406.833 537.5,409C 537.167,409.333 536.833,409.667 536.5,410C 537.833,411 539.167,412 540.5,413C 540.499,414.399 540.165,415.899 539.5,417.5C 540.603,417.998 541.603,418.331 542.5,418.5C 541.975,419.192 541.308,419.692 540.5,420C 542.256,420.202 543.922,420.702 545.5,421.5C 544.738,421.911 543.738,422.077 542.5,422C 544.125,422.853 544.458,423.853 543.5,425C 546.89,426.006 547.89,428.006 546.5,431C 547.833,432 549.167,433 550.5,434C 549.826,435.751 549.493,437.417 549.5,439C 552.907,442.053 552.907,444.72 549.5,447C 551.592,447.953 551.925,449.286 550.5,451C 551.672,451.419 552.672,452.085 553.5,453C 553.255,455.089 553.255,457.089 553.5,459C 555.032,459.7 556.032,460.866 556.5,462.5C 556.207,467.543 556.207,471.876 556.5,475.5 Z"/></g>
<g><path style="opacity:0.996" fill="#00e557" d="M -0.5,350.5 C 14.1383,351.732 28.805,353.065 43.5,354.5C 53.4217,368.423 65.0884,380.757 78.5,391.5C 74.1076,390.67 70.2742,389.337 67,387.5C 65.8525,388.458 64.8525,388.125 64,386.5C 63.2753,387.059 62.4419,387.392 61.5,387.5C 57.8079,386.056 53.9746,385.056 50,384.5C 47.2717,384.986 44.605,384.32 42,382.5C 35.0345,383.579 27.8678,382.912 20.5,380.5C 17.6304,381.729 14.7971,381.395 12,379.5C 8.10294,380.796 3.93627,380.796 -0.5,379.5C -0.5,369.833 -0.5,360.167 -0.5,350.5 Z"/></g>
<g><path style="opacity:0.999" fill="#80eba2" d="M 265.5,359.5 C 272.364,361.599 278.698,364.766 284.5,369C 292.824,375.269 293.657,382.435 287,390.5C 281.148,397.533 274.315,403.2 266.5,407.5C 263.435,403.228 261.435,398.728 260.5,394C 261.293,392.915 261.96,391.748 262.5,390.5C 261.673,388.059 261.673,385.893 262.5,384C 263.13,382.108 264.13,380.441 265.5,379C 265.167,378.667 264.833,378.333 264.5,378C 268.341,376.24 270.341,373.573 270.5,370C 268.904,366.396 267.237,362.896 265.5,359.5 Z"/></g>
<g><path style="opacity:0.993" fill="#a8e7c4" d="M 345.5,362.5 C 353.926,364.537 362.593,366.704 371.5,369C 369.034,369.93 369.201,370.763 372,371.5C 376.924,370.351 381.757,369.018 386.5,367.5C 393.956,368.96 401.456,370.626 409,372.5C 409.333,372.167 409.667,371.833 410,371.5C 417.839,373.87 425.506,376.537 433,379.5C 433.414,379.043 433.914,378.709 434.5,378.5C 435.333,379.5 436.167,380.5 437,381.5C 438.667,381.5 440.333,381.5 442,381.5C 442.492,382.549 442.326,383.549 441.5,384.5C 442.624,385.914 443.624,387.414 444.5,389C 461.769,397.897 476.436,409.563 488.5,424C 494.003,428.168 498.503,432.668 502,437.5C 502.333,437.167 502.667,436.833 503,436.5C 503.483,437.448 503.649,438.448 503.5,439.5C 504.552,439.351 505.552,439.517 506.5,440C 509.122,442.992 511.789,445.992 514.5,449C 521.906,454.802 529.073,460.968 536,467.5C 537,467.167 538,466.833 539,466.5C 540.651,464.598 540.984,462.598 540,460.5C 545.7,465.407 551.2,470.407 556.5,475.5C 557.289,475.783 557.956,476.283 558.5,477C 557.402,477.77 557.402,478.603 558.5,479.5C 557.752,481.584 557.752,483.584 558.5,485.5C 557.833,485.833 557.167,486.167 556.5,486.5C 557.376,487.251 558.376,487.751 559.5,488C 558.167,488.667 558.167,489.333 559.5,490C 556.388,490.851 556.054,492.017 558.5,493.5C 559.131,495.478 559.131,497.645 558.5,500C 561.167,501.667 561.167,503.333 558.5,505C 560.04,510.922 561.04,517.089 561.5,523.5C 559.461,525.448 559.461,527.615 561.5,530C 566.167,532.667 570.833,535.333 575.5,538C 576.184,539.693 577.184,541.193 578.5,542.5C 577.653,544.061 577.986,545.561 579.5,547C 578.672,547.915 577.672,548.581 576.5,549C 577.114,552.633 578.447,556.3 580.5,560C 579.833,560.333 579.167,560.667 578.5,561C 578.5,562.667 578.5,564.333 578.5,566C 581.714,566.41 582.38,567.91 580.5,570.5C 582.531,572.557 582.531,574.39 580.5,576C 581.289,578.365 582.456,580.532 584,582.5C 584.684,583.784 584.517,584.951 583.5,586C 585.202,588.235 586.202,590.735 586.5,593.5C 560.264,572.43 536.597,548.93 515.5,523C 515.833,522.667 516.167,522.333 516.5,522C 513.612,518.778 511.112,515.278 509,511.5C 506.697,511.591 505.03,510.257 504,507.5C 503.667,507.833 503.333,508.167 503,508.5C 503.305,506.557 503.305,504.557 503,502.5C 502.667,503.167 502.333,503.833 502,504.5C 501.79,502.942 501.29,501.609 500.5,500.5C 501.197,498.929 501.53,497.429 501.5,496C 500.624,494.414 499.624,492.914 498.5,491.5C 499.167,491.167 499.833,490.833 500.5,490.5C 499.975,489.808 499.308,489.308 498.5,489C 499.641,488.259 499.641,487.425 498.5,486.5C 497.726,485.289 496.893,485.289 496,486.5C 495.396,484.314 494.23,484.148 492.5,486C 495.063,486.763 495.063,487.263 492.5,487.5C 486.618,481.618 481.452,474.951 477,467.5C 463.94,451.784 450.94,436.117 438,420.5C 429.552,413.687 421.385,406.52 413.5,399C 409.489,396.58 405.489,394.247 401.5,392C 398.904,390.203 399.237,388.869 402.5,388C 397.884,385.463 393.05,383.296 388,381.5C 387.667,381.833 387.333,382.167 387,382.5C 379.585,379.683 372.085,378.183 364.5,378C 366,376.5 367.5,375 369,373.5C 369.591,372.517 369.257,371.85 368,371.5C 358.374,373.814 348.541,374.814 338.5,374.5C 340.848,370.465 343.182,366.465 345.5,362.5 Z"/></g>
<g><path style="opacity:0.998" fill="#00e34d" d="M -0.5,379.5 C 3.93627,380.796 8.10294,380.796 12,379.5C 14.7971,381.395 17.6304,381.729 20.5,380.5C 27.8678,382.912 35.0345,383.579 42,382.5C 44.605,384.32 47.2717,384.986 50,384.5C 53.9746,385.056 57.8079,386.056 61.5,387.5C 62.4419,387.392 63.2753,387.059 64,386.5C 64.8525,388.125 65.8525,388.458 67,387.5C 70.2742,389.337 74.1076,390.67 78.5,391.5C 88.0299,398.426 97.6966,405.093 107.5,411.5C 119.144,425.481 130.81,439.481 142.5,453.5C 139.003,454.402 135.337,455.069 131.5,455.5C 123.547,445.042 115.381,434.708 107,424.5C 100.653,418.408 93.8196,412.908 86.5,408C 78.8948,405.666 70.3948,402.833 61,399.5C 58.7827,399.063 56.4494,399.063 54,399.5C 53.5112,397.396 52.3445,397.062 50.5,398.5C 46.7708,397.099 43.1042,396.099 39.5,395.5C 38.2836,396.002 37.1169,396.335 36,396.5C 33.5657,394.977 30.899,393.977 28,393.5C 27.586,393.957 27.086,394.291 26.5,394.5C 21.927,393.729 17.427,392.729 13,391.5C 8.44278,391.544 3.94278,391.544 -0.5,391.5C -0.5,387.5 -0.5,383.5 -0.5,379.5 Z"/></g>
<g><path style="opacity:0.993" fill="#a1e6be" d="M 500.5,500.5 C 498.682,496.166 495.849,492.499 492,489.5C 490.118,490.093 489.118,491.427 489,493.5C 488.577,492.044 487.744,491.544 486.5,492C 486.957,492.414 487.291,492.914 487.5,493.5C 486.014,495.302 485.014,497.302 484.5,499.5C 481.774,499.264 479.441,500.097 477.5,502C 478.167,503 478.833,504 479.5,505C 478.069,505.465 476.903,506.299 476,507.5C 475.658,505.381 474.825,505.047 473.5,506.5C 453.479,478.242 431.812,450.742 408.5,424C 406.793,423.805 405.126,423.805 403.5,424C 404.451,423.282 404.617,422.449 404,421.5C 403,421.167 402,420.833 401,420.5C 393.511,408.385 382.677,398.219 368.5,390C 362.841,387.514 357.341,386.681 352,387.5C 345.397,385.591 338.897,384.591 332.5,384.5C 334.5,381.167 336.5,377.833 338.5,374.5C 348.541,374.814 358.374,373.814 368,371.5C 369.257,371.85 369.591,372.517 369,373.5C 367.5,375 366,376.5 364.5,378C 372.085,378.183 379.585,379.683 387,382.5C 387.333,382.167 387.667,381.833 388,381.5C 393.05,383.296 397.884,385.463 402.5,388C 399.237,388.869 398.904,390.203 401.5,392C 405.489,394.247 409.489,396.58 413.5,399C 421.385,406.52 429.552,413.687 438,420.5C 450.94,436.117 463.94,451.784 477,467.5C 481.452,474.951 486.618,481.618 492.5,487.5C 495.063,487.263 495.063,486.763 492.5,486C 494.23,484.148 495.396,484.314 496,486.5C 496.893,485.289 497.726,485.289 498.5,486.5C 499.641,487.425 499.641,488.259 498.5,489C 499.308,489.308 499.975,489.808 500.5,490.5C 499.833,490.833 499.167,491.167 498.5,491.5C 499.624,492.914 500.624,494.414 501.5,496C 501.53,497.429 501.197,498.929 500.5,500.5 Z"/></g>
<g><path style="opacity:0.993" fill="#9ce7b8" d="M 332.5,384.5 C 338.897,384.591 345.397,385.591 352,387.5C 357.341,386.681 362.841,387.514 368.5,390C 382.677,398.219 393.511,408.385 401,420.5C 402,420.833 403,421.167 404,421.5C 404.617,422.449 404.451,423.282 403.5,424C 405.126,423.805 406.793,423.805 408.5,424C 431.812,450.742 453.479,478.242 473.5,506.5C 473.826,508.661 474.826,510.494 476.5,512C 475.754,514.742 475.754,517.242 476.5,519.5C 477.313,520.814 478.313,521.981 479.5,523C 477.408,524.991 477.742,526.991 480.5,529C 480.167,529.333 479.833,529.667 479.5,530C 480.685,531.353 482.019,532.52 483.5,533.5C 497.688,555.216 511.354,577.216 524.5,599.5C 509.5,599.5 494.5,599.5 479.5,599.5C 467.482,578.637 454.815,558.137 441.5,538C 442.255,535.867 443.588,534.2 445.5,533C 424.028,500.606 400.195,468.773 374,437.5C 365.333,425.5 356.667,413.5 348,401.5C 345.102,398.562 341.602,396.729 337.5,396C 340.028,395.331 340.028,394.498 337.5,393.5C 333.734,392.28 329.734,392.28 325.5,393.5C 327.603,390.28 329.936,387.28 332.5,384.5 Z"/></g>
<g><path style="opacity:0.998" fill="#00e343" d="M 131.5,455.5 C 126.257,456.81 120.923,457.476 115.5,457.5C 113.189,454.337 111.022,451.003 109,447.5C 107.89,445.963 106.39,445.297 104.5,445.5C 104.649,444.448 104.483,443.448 104,442.5C 103.667,442.833 103.333,443.167 103,443.5C 101.315,440.416 98.8148,438.416 95.5,437.5C 95.3385,435.176 94.1718,433.509 92,432.5C 90.984,433.634 90.3173,433.301 90,431.5C 88.927,432.28 87.7604,432.113 86.5,431C 84.1548,427.646 81.3214,425.813 78,425.5C 71.726,421.394 65.3926,419.061 59,418.5C 56.6667,417.5 54.3333,416.5 52,415.5C 49.0732,416.042 46.2398,415.375 43.5,413.5C 42.2836,414.002 41.1169,414.335 40,414.5C 36.537,413.518 32.8704,412.185 29,410.5C 27.6012,410.501 26.1012,410.835 24.5,411.5C 22.5607,409.382 20.394,409.049 18,410.5C 15.9571,408.479 13.9571,408.146 12,409.5C 10.6667,408.833 9.33333,408.167 8,407.5C 5.37867,407.704 2.54533,407.704 -0.5,407.5C -0.5,402.167 -0.5,396.833 -0.5,391.5C 3.94278,391.544 8.44278,391.544 13,391.5C 17.427,392.729 21.927,393.729 26.5,394.5C 27.086,394.291 27.586,393.957 28,393.5C 30.899,393.977 33.5657,394.977 36,396.5C 37.1169,396.335 38.2836,396.002 39.5,395.5C 43.1042,396.099 46.7708,397.099 50.5,398.5C 52.3445,397.062 53.5112,397.396 54,399.5C 56.4494,399.063 58.7827,399.063 61,399.5C 70.3948,402.833 78.8948,405.666 86.5,408C 93.8196,412.908 100.653,418.408 107,424.5C 115.381,434.708 123.547,445.042 131.5,455.5 Z"/></g>
<g><path style="opacity:0.999" fill="#00e237" d="M -0.5,407.5 C 2.54533,407.704 5.37867,407.704 8,407.5C 9.33333,408.167 10.6667,408.833 12,409.5C 13.9571,408.146 15.9571,408.479 18,410.5C 20.394,409.049 22.5607,409.382 24.5,411.5C 26.1012,410.835 27.6012,410.501 29,410.5C 32.8704,412.185 36.537,413.518 40,414.5C 41.1169,414.335 42.2836,414.002 43.5,413.5C 46.2398,415.375 49.0732,416.042 52,415.5C 54.3333,416.5 56.6667,417.5 59,418.5C 65.3926,419.061 71.726,421.394 78,425.5C 81.3214,425.813 84.1548,427.646 86.5,431C 87.7604,432.113 88.927,432.28 90,431.5C 90.3173,433.301 90.984,433.634 92,432.5C 94.1718,433.509 95.3385,435.176 95.5,437.5C 98.8148,438.416 101.315,440.416 103,443.5C 103.333,443.167 103.667,442.833 104,442.5C 104.483,443.448 104.649,444.448 104.5,445.5C 106.39,445.297 107.89,445.963 109,447.5C 111.022,451.003 113.189,454.337 115.5,457.5C 106.517,458.278 97.5165,459.278 88.5,460.5C 86.5363,458.873 85.203,456.873 84.5,454.5C 82.8762,454.64 81.7096,453.973 81,452.5C 80.6667,452.833 80.3333,453.167 80,453.5C 79.6667,452.5 79.3333,451.5 79,450.5C 78.6667,450.833 78.3333,451.167 78,451.5C 75.1076,450.606 72.7743,448.94 71,446.5C 70.6667,446.833 70.3333,447.167 70,447.5C 69.5814,446.328 68.9147,445.328 68,444.5C 66.9399,444.254 65.7732,444.254 64.5,444.5C 58.6114,440.436 53.1114,437.436 48,435.5C 46.1724,437.807 44.5057,437.474 43,434.5C 41.3333,434.5 39.6667,434.5 38,434.5C 36.324,433.939 34.9906,432.939 34,431.5C 32.4667,431.944 30.9667,432.277 29.5,432.5C 28.0944,431.573 26.5944,430.573 25,429.5C 24.4387,430.022 23.772,430.355 23,430.5C 18.9992,429.474 15.1659,428.141 11.5,426.5C 10.0374,426.632 8.53737,426.965 7,427.5C 4.53302,425.694 2.03302,425.027 -0.5,425.5C -0.5,419.5 -0.5,413.5 -0.5,407.5 Z"/></g>
<g><path style="opacity:1" fill="#00e05d" d="M 107.5,411.5 C 113.435,414.091 119.435,416.591 125.5,419C 132.953,421.072 140.286,420.906 147.5,418.5C 156.918,427.923 166.585,436.923 176.5,445.5C 165.486,449.42 154.153,452.086 142.5,453.5C 130.81,439.481 119.144,425.481 107.5,411.5 Z"/></g>
<g><path style="opacity:0.992" fill="#8de8ab" d="M 314.5,407.5 C 316.179,407.892 317.846,408.392 319.5,409C 318.549,409.718 318.383,410.551 319,411.5C 321.585,413.758 324.418,415.591 327.5,417C 340.685,435.844 352.518,455.677 363,476.5C 379.237,501.297 395.237,526.297 411,551.5C 411.5,552.5 412,553.5 412.5,554.5C 410.838,555.327 409.505,556.493 408.5,558C 417.303,571.777 425.969,585.611 434.5,599.5C 425.167,599.5 415.833,599.5 406.5,599.5C 400.793,588.426 394.793,577.426 388.5,566.5C 389.616,566.598 390.616,566.098 391.5,565C 390.863,562.755 390.03,560.588 389,558.5C 378.413,540.329 368.08,521.995 358,503.5C 349.824,482.814 340.824,462.48 331,442.5C 325.47,432.633 318.137,424.3 309,417.5C 308.517,416.552 308.351,415.552 308.5,414.5C 309.8,411.568 311.8,409.234 314.5,407.5 Z"/></g>
<g><path style="opacity:0.991" fill="#86e8a6" d="M 308.5,414.5 C 308.351,415.552 308.517,416.552 309,417.5C 318.137,424.3 325.47,432.633 331,442.5C 340.824,462.48 349.824,482.814 358,503.5C 368.08,521.995 378.413,540.329 389,558.5C 390.03,560.588 390.863,562.755 391.5,565C 390.616,566.098 389.616,566.598 388.5,566.5C 394.793,577.426 400.793,588.426 406.5,599.5C 400.167,599.5 393.833,599.5 387.5,599.5C 368.714,560.589 351.548,520.922 336,480.5C 329.974,465.448 322.641,451.114 314,437.5C 310.14,432.728 305.806,428.395 301,424.5C 299.383,425.851 298.216,427.518 297.5,429.5C 296.482,428.807 295.482,428.141 294.5,427.5C 299.141,423.195 303.807,418.861 308.5,414.5 Z"/></g>
<g><path style="opacity:0.992" fill="#80e8a3" d="M 387.5,599.5 C 382.167,599.5 376.833,599.5 371.5,599.5C 368.957,593.583 366.29,587.749 363.5,582C 365.973,580.598 365.973,579.098 363.5,577.5C 349.896,542.915 335.729,508.249 321,473.5C 316.588,464.343 311.922,455.343 307,446.5C 306.019,449.655 304.685,449.988 303,447.5C 300.081,442.66 296.914,437.994 293.5,433.5C 294.932,431.703 294.599,430.37 292.5,429.5C 292.833,428.5 293.5,427.833 294.5,427.5C 295.482,428.141 296.482,428.807 297.5,429.5C 298.216,427.518 299.383,425.851 301,424.5C 305.806,428.395 310.14,432.728 314,437.5C 322.641,451.114 329.974,465.448 336,480.5C 351.548,520.922 368.714,560.589 387.5,599.5 Z"/></g>
<g><path style="opacity:1" fill="#00e221" d="M -0.5,425.5 C 2.03302,425.027 4.53302,425.694 7,427.5C 8.53737,426.965 10.0374,426.632 11.5,426.5C 15.1659,428.141 18.9992,429.474 23,430.5C 23.772,430.355 24.4387,430.022 25,429.5C 26.5944,430.573 28.0944,431.573 29.5,432.5C 30.9667,432.277 32.4667,431.944 34,431.5C 34.9906,432.939 36.324,433.939 38,434.5C 39.6667,434.5 41.3333,434.5 43,434.5C 44.5057,437.474 46.1724,437.807 48,435.5C 53.1114,437.436 58.6114,440.436 64.5,444.5C 65.7732,444.254 66.9399,444.254 68,444.5C 68.9147,445.328 69.5814,446.328 70,447.5C 70.3333,447.167 70.6667,446.833 71,446.5C 72.7743,448.94 75.1076,450.606 78,451.5C 78.3333,451.167 78.6667,450.833 79,450.5C 79.3333,451.5 79.6667,452.5 80,453.5C 80.3333,453.167 80.6667,452.833 81,452.5C 81.7096,453.973 82.8762,454.64 84.5,454.5C 85.203,456.873 86.5363,458.873 88.5,460.5C 73.5125,461.995 59.1792,465.829 45.5,472C 39.7819,475.605 37.4486,480.772 38.5,487.5C 38.0006,483.81 36.6673,480.476 34.5,477.5C 32.0072,477.671 30.1739,476.671 29,474.5C 28.6667,475.167 28.3333,475.833 28,476.5C 26.2808,474.211 24.6141,471.878 23,469.5C 22.586,469.957 22.086,470.291 21.5,470.5C 18.7049,469.192 16.2049,467.526 14,465.5C 13.6667,465.833 13.3333,466.167 13,466.5C 11.0036,466.004 9.33689,465.004 8,463.5C 6.70251,464.784 5.53585,464.617 4.5,463C 4.83333,462.667 5.16667,462.333 5.5,462C 3.36397,460.821 1.36397,460.321 -0.5,460.5C -0.5,448.833 -0.5,437.167 -0.5,425.5 Z"/></g>
<g><path style="opacity:0.992" fill="#79e89f" d="M 292.5,429.5 C 294.599,430.37 294.932,431.703 293.5,433.5C 296.914,437.994 300.081,442.66 303,447.5C 304.685,449.988 306.019,449.655 307,446.5C 311.922,455.343 316.588,464.343 321,473.5C 335.729,508.249 349.896,542.915 363.5,577.5C 365.973,579.098 365.973,580.598 363.5,582C 366.29,587.749 368.957,593.583 371.5,599.5C 369.5,599.5 367.5,599.5 365.5,599.5C 365.162,597.034 364.328,594.367 363,591.5C 341.295,548.095 319.961,504.428 299,460.5C 298.333,461.167 297.667,461.833 297,462.5C 292.347,453.941 289.014,445.275 287,436.5C 286.329,435.748 285.496,435.414 284.5,435.5C 286.86,433.147 289.527,431.147 292.5,429.5 Z"/></g>
<g><path style="opacity:0.993" fill="#62e892" d="M 272.5,444.5 C 274.074,444.937 275.241,445.937 276,447.5C 286.987,468.879 297.321,491.546 307,515.5C 309.667,516.833 311.667,518.833 313,521.5C 324.273,547.368 336.106,573.368 348.5,599.5C 342.833,599.5 337.167,599.5 331.5,599.5C 315.146,566.292 299.646,532.625 285,498.5C 281.937,495.335 279.604,491.669 278,487.5C 274.346,477.878 270.68,468.211 267,458.5C 265.974,455.761 264.474,453.428 262.5,451.5C 265.446,448.687 268.779,446.354 272.5,444.5 Z"/></g>
<g><path style="opacity:0.994" fill="#56e88d" d="M 262.5,451.5 C 264.474,453.428 265.974,455.761 267,458.5C 270.68,468.211 274.346,477.878 278,487.5C 279.604,491.669 281.937,495.335 285,498.5C 299.646,532.625 315.146,566.292 331.5,599.5C 327.833,599.5 324.167,599.5 320.5,599.5C 306.521,570.832 293.354,542.499 281,514.5C 280.147,512.875 279.147,512.542 278,513.5C 271.538,496.967 264.705,480.467 257.5,464C 257.833,463.667 258.167,463.333 258.5,463C 257.397,460.243 255.731,458.076 253.5,456.5C 256.24,454.44 259.24,452.774 262.5,451.5 Z"/></g>
<g><path style="opacity:0.994" fill="#49e888" d="M 253.5,456.5 C 255.731,458.076 257.397,460.243 258.5,463C 258.167,463.333 257.833,463.667 257.5,464C 264.705,480.467 271.538,496.967 278,513.5C 279.147,512.542 280.147,512.875 281,514.5C 293.354,542.499 306.521,570.832 320.5,599.5C 316.167,599.5 311.833,599.5 307.5,599.5C 302.947,591.157 298.613,582.657 294.5,574C 294.833,573.667 295.167,573.333 295.5,573C 292.762,570.796 292.095,568.129 293.5,565C 292.616,563.902 291.616,563.402 290.5,563.5C 291.025,562.808 291.692,562.308 292.5,562C 287.548,551.551 282.548,541.551 277.5,532C 277.833,531.667 278.167,531.333 278.5,531C 276.59,529.299 275.423,527.133 275,524.5C 274.851,527.279 274.017,527.779 272.5,526C 272.833,525.667 273.167,525.333 273.5,525C 263.841,505.17 255.675,484.67 249,463.5C 248.664,465.074 247.831,466.408 246.5,467.5C 245.849,465.153 244.516,463.486 242.5,462.5C 245.972,460.262 249.638,458.262 253.5,456.5 Z"/></g>
<g><path style="opacity:0.992" fill="#71e899" d="M 284.5,435.5 C 285.496,435.414 286.329,435.748 287,436.5C 289.014,445.275 292.347,453.941 297,462.5C 297.667,461.833 298.333,461.167 299,460.5C 319.961,504.428 341.295,548.095 363,591.5C 364.328,594.367 365.162,597.034 365.5,599.5C 359.833,599.5 354.167,599.5 348.5,599.5C 336.106,573.368 324.273,547.368 313,521.5C 311.667,518.833 309.667,516.833 307,515.5C 297.321,491.546 286.987,468.879 276,447.5C 275.241,445.937 274.074,444.937 272.5,444.5C 276.476,441.531 280.476,438.531 284.5,435.5 Z"/></g>
<g><path style="opacity:0.994" fill="#38e782" d="M 242.5,462.5 C 244.516,463.486 245.849,465.153 246.5,467.5C 247.831,466.408 248.664,465.074 249,463.5C 255.675,484.67 263.841,505.17 273.5,525C 273.167,525.333 272.833,525.667 272.5,526C 274.017,527.779 274.851,527.279 275,524.5C 275.423,527.133 276.59,529.299 278.5,531C 278.167,531.333 277.833,531.667 277.5,532C 282.548,541.551 287.548,551.551 292.5,562C 291.692,562.308 291.025,562.808 290.5,563.5C 291.616,563.402 292.616,563.902 293.5,565C 292.095,568.129 292.762,570.796 295.5,573C 295.167,573.333 294.833,573.667 294.5,574C 298.613,582.657 302.947,591.157 307.5,599.5C 301.167,599.5 294.833,599.5 288.5,599.5C 288.657,598.127 288.49,596.793 288,595.5C 281.341,583.034 275.507,570.534 270.5,558C 271.33,556.535 271.496,555.035 271,553.5C 269.748,551.999 268.748,550.332 268,548.5C 267.683,550.301 267.016,550.634 266,549.5C 259.73,534.237 253.396,518.57 247,502.5C 243.122,490.282 238.956,478.282 234.5,466.5C 236.849,464.659 239.515,463.326 242.5,462.5 Z"/></g>
<g><path style="opacity:1" fill="#00e303" d="M -0.5,460.5 C 1.36397,460.321 3.36397,460.821 5.5,462C 5.16667,462.333 4.83333,462.667 4.5,463C 5.53585,464.617 6.70251,464.784 8,463.5C 9.33689,465.004 11.0036,466.004 13,466.5C 13.3333,466.167 13.6667,465.833 14,465.5C 16.2049,467.526 18.7049,469.192 21.5,470.5C 22.086,470.291 22.586,469.957 23,469.5C 24.6141,471.878 26.2808,474.211 28,476.5C 28.3333,475.833 28.6667,475.167 29,474.5C 30.1739,476.671 32.0072,477.671 34.5,477.5C 36.6673,480.476 38.0006,483.81 38.5,487.5C 40.4539,493.161 44.4539,496.495 50.5,497.5C 50.4614,498.756 50.9614,499.756 52,500.5C 52.7412,499.359 53.5745,499.359 54.5,500.5C 54.8717,503.466 56.205,505.8 58.5,507.5C 58.0233,508.478 57.3567,509.311 56.5,510C 57.6776,510.967 59.011,511.467 60.5,511.5C 58.7218,514.519 59.3884,517.352 62.5,520C 60.1506,522.357 60.8172,524.024 64.5,525C 63.5,526 62.5,527 61.5,528C 62.7014,528.903 63.5348,530.069 64,531.5C 64.9138,530.346 65.7471,530.513 66.5,532C 65.5419,533.147 65.8753,534.147 67.5,535C 66.6456,536.881 66.9789,538.714 68.5,540.5C 66.7241,541.315 66.0574,542.482 66.5,544C 67.9918,547.31 69.9918,550.31 72.5,553C 71.6919,553.308 71.0253,553.808 70.5,554.5C 73.2419,556.897 74.2419,559.73 73.5,563C 74.2529,564.487 75.0862,564.654 76,563.5C 76.5946,564.899 76.4279,566.232 75.5,567.5C 75.8457,568.696 76.3457,568.696 77,567.5C 76.1736,572.347 78.0069,576.847 82.5,581C 80.987,583.454 81.6537,585.121 84.5,586C 83.0545,588.493 83.7211,590.327 86.5,591.5C 85.814,593.064 85.9806,594.731 87,596.5C 87.6543,595.304 88.1543,595.304 88.5,596.5C 87.2086,597.527 87.2086,598.527 88.5,599.5C 58.8333,599.5 29.1667,599.5 -0.5,599.5C -0.5,553.167 -0.5,506.833 -0.5,460.5 Z"/></g>
<g><path style="opacity:0.996" fill="#00e666" d="M 204.5,478.5 C 207.977,488.724 211.31,499.057 214.5,509.5C 214.291,510.086 213.957,510.586 213.5,511C 223.043,540.048 232.376,569.548 241.5,599.5C 236.167,599.5 230.833,599.5 225.5,599.5C 216.276,571.873 208.609,544.706 202.5,518C 199.237,506.057 195.904,494.224 192.5,482.5C 196.216,480.595 200.216,479.261 204.5,478.5 Z"/></g>
<g><path style="opacity:0.996" fill="#00e55c" d="M 192.5,482.5 C 195.904,494.224 199.237,506.057 202.5,518C 208.609,544.706 216.276,571.873 225.5,599.5C 217.167,599.5 208.833,599.5 200.5,599.5C 198.935,595.924 197.935,592.424 197.5,589C 197.645,588.228 197.978,587.561 198.5,587C 196.043,585.846 196.043,584.512 198.5,583C 197.529,581.796 196.529,581.296 195.5,581.5C 197.04,580.468 197.54,579.135 197,577.5C 196.107,578.711 195.274,578.711 194.5,577.5C 195.309,575.208 195.643,573.041 195.5,571C 191.414,558.425 187.914,545.925 185,533.5C 184.667,534.5 184.333,535.5 184,536.5C 183.28,534.888 183.446,533.388 184.5,532C 182.207,528.252 180.54,524.585 179.5,521C 179.833,520 180.167,519 180.5,518C 178.128,513.627 177.128,509.127 177.5,504.5C 175.741,499.288 174.408,493.954 173.5,488.5C 172.167,488.5 170.833,488.5 169.5,488.5C 176.946,486.054 184.613,484.054 192.5,482.5 Z"/></g>
<g><path style="opacity:0.988" fill="#b0e8c5" d="M 558.5,479.5 C 565.502,485.932 572.836,492.098 580.5,498C 586.575,501.265 592.909,503.765 599.5,505.5C 599.5,536.833 599.5,568.167 599.5,599.5C 594.5,599.5 589.5,599.5 584.5,599.5C 585.237,597.695 586.237,596.029 587.5,594.5C 587.376,593.893 587.043,593.56 586.5,593.5C 586.202,590.735 585.202,588.235 583.5,586C 584.517,584.951 584.684,583.784 584,582.5C 582.456,580.532 581.289,578.365 580.5,576C 582.531,574.39 582.531,572.557 580.5,570.5C 582.38,567.91 581.714,566.41 578.5,566C 578.5,564.333 578.5,562.667 578.5,561C 579.167,560.667 579.833,560.333 580.5,560C 578.447,556.3 577.114,552.633 576.5,549C 577.672,548.581 578.672,547.915 579.5,547C 577.986,545.561 577.653,544.061 578.5,542.5C 577.184,541.193 576.184,539.693 575.5,538C 570.833,535.333 566.167,532.667 561.5,530C 559.461,527.615 559.461,525.448 561.5,523.5C 561.04,517.089 560.04,510.922 558.5,505C 561.167,503.333 561.167,501.667 558.5,500C 559.131,497.645 559.131,495.478 558.5,493.5C 556.054,492.017 556.388,490.851 559.5,490C 558.167,489.333 558.167,488.667 559.5,488C 558.376,487.751 557.376,487.251 556.5,486.5C 557.167,486.167 557.833,485.833 558.5,485.5C 557.752,483.584 557.752,481.584 558.5,479.5 Z"/></g>
<g><path style="opacity:0.996" fill="#00e44f" d="M 169.5,488.5 C 170.833,488.5 172.167,488.5 173.5,488.5C 174.408,493.954 175.741,499.288 177.5,504.5C 177.128,509.127 178.128,513.627 180.5,518C 180.167,519 179.833,520 179.5,521C 180.54,524.585 182.207,528.252 184.5,532C 183.446,533.388 183.28,534.888 184,536.5C 184.333,535.5 184.667,534.5 185,533.5C 187.914,545.925 191.414,558.425 195.5,571C 195.643,573.041 195.309,575.208 194.5,577.5C 195.274,578.711 196.107,578.711 197,577.5C 197.54,579.135 197.04,580.468 195.5,581.5C 196.529,581.296 197.529,581.796 198.5,583C 196.043,584.512 196.043,585.846 198.5,587C 197.978,587.561 197.645,588.228 197.5,589C 197.935,592.424 198.935,595.924 200.5,599.5C 193.167,599.5 185.833,599.5 178.5,599.5C 178.611,598.883 178.944,598.383 179.5,598C 176.707,596.455 176.04,594.288 177.5,591.5C 174.988,588.574 173.988,585.407 174.5,582C 172.875,581.147 172.542,580.147 173.5,579C 172.833,578.333 172.167,577.667 171.5,577C 171.5,575 171.5,573 171.5,571C 169.606,569.921 169.273,568.587 170.5,567C 168.437,565.428 167.771,563.595 168.5,561.5C 168.054,558.724 167.054,556.224 165.5,554C 166.167,553.667 166.833,553.333 167.5,553C 164.351,548.433 163.351,543.767 164.5,539C 162.251,526.433 158.918,513.933 154.5,501.5C 154.709,500.914 155.043,500.414 155.5,500C 154.137,498.055 153.303,495.888 153,493.5C 151.644,492.62 150.144,492.286 148.5,492.5C 155.283,490.678 162.283,489.344 169.5,488.5 Z"/></g>
<g><path style="opacity:0.997" fill="#00e343" d="M 148.5,492.5 C 150.144,492.286 151.644,492.62 153,493.5C 153.303,495.888 154.137,498.055 155.5,500C 155.043,500.414 154.709,500.914 154.5,501.5C 158.918,513.933 162.251,526.433 164.5,539C 163.351,543.767 164.351,548.433 167.5,553C 166.833,553.333 166.167,553.667 165.5,554C 167.054,556.224 168.054,558.724 168.5,561.5C 167.771,563.595 168.437,565.428 170.5,567C 169.273,568.587 169.606,569.921 171.5,571C 171.5,573 171.5,575 171.5,577C 172.167,577.667 172.833,578.333 173.5,579C 172.542,580.147 172.875,581.147 174.5,582C 173.988,585.407 174.988,588.574 177.5,591.5C 176.04,594.288 176.707,596.455 179.5,598C 178.944,598.383 178.611,598.883 178.5,599.5C 172.833,599.5 167.167,599.5 161.5,599.5C 160.566,595.876 159.233,592.043 157.5,588C 157.833,587.667 158.167,587.333 158.5,587C 155.79,585.54 155.124,583.54 156.5,581C 155.023,579.116 153.69,577.116 152.5,575C 153.307,572.4 152.64,570.066 150.5,568C 151.167,567.667 151.833,567.333 152.5,567C 151.794,565.09 150.794,563.09 149.5,561C 150.517,559.951 150.684,558.784 150,557.5C 149.195,559.901 148.362,559.734 147.5,557C 149.891,555.691 149.891,554.691 147.5,554C 148.167,553.667 148.833,553.333 149.5,553C 148.009,550.903 147.009,548.57 146.5,546C 146.063,543.783 146.063,541.449 146.5,539C 143.87,537.102 143.537,535.269 145.5,533.5C 144.833,533.167 144.167,532.833 143.5,532.5C 144.002,531.284 144.335,530.117 144.5,529C 142.468,526.701 141.801,524.201 142.5,521.5C 140.561,519.878 140.228,518.044 141.5,516C 139.19,511.758 138.19,507.425 138.5,503C 137.052,500.124 135.719,497.291 134.5,494.5C 138.964,493.356 143.63,492.69 148.5,492.5 Z"/></g>
<g><path style="opacity:0.998" fill="#00e136" d="M 134.5,494.5 C 135.719,497.291 137.052,500.124 138.5,503C 138.19,507.425 139.19,511.758 141.5,516C 140.228,518.044 140.561,519.878 142.5,521.5C 141.801,524.201 142.468,526.701 144.5,529C 144.335,530.117 144.002,531.284 143.5,532.5C 144.167,532.833 144.833,533.167 145.5,533.5C 143.537,535.269 143.87,537.102 146.5,539C 146.063,541.449 146.063,543.783 146.5,546C 147.009,548.57 148.009,550.903 149.5,553C 148.833,553.333 148.167,553.667 147.5,554C 149.891,554.691 149.891,555.691 147.5,557C 148.362,559.734 149.195,559.901 150,557.5C 150.684,558.784 150.517,559.951 149.5,561C 150.794,563.09 151.794,565.09 152.5,567C 151.833,567.333 151.167,567.667 150.5,568C 152.64,570.066 153.307,572.4 152.5,575C 153.69,577.116 155.023,579.116 156.5,581C 155.124,583.54 155.79,585.54 158.5,587C 158.167,587.333 157.833,587.667 157.5,588C 159.233,592.043 160.566,595.876 161.5,599.5C 154.5,599.5 147.5,599.5 140.5,599.5C 141.706,598.12 141.373,596.953 139.5,596C 139.5,594.667 139.5,593.333 139.5,592C 138.547,590.045 137.213,588.378 135.5,587C 137.076,584.695 136.576,582.528 134,580.5C 134.184,577.124 133.017,574.457 130.5,572.5C 131.167,572.167 131.833,571.833 132.5,571.5C 129.348,569.716 128.348,567.216 129.5,564C 127.875,563.147 127.542,562.147 128.5,561C 127.238,558.821 125.905,556.655 124.5,554.5C 125.233,552.368 125.233,550.535 124.5,549C 122.109,548.309 122.109,547.309 124.5,546C 123.551,545.383 122.718,545.549 122,546.5C 122.8,543.566 121.967,541.066 119.5,539C 119.587,536.463 119.587,533.963 119.5,531.5C 118.627,529.587 117.627,527.753 116.5,526C 118.878,525.026 118.544,524.359 115.5,524C 116.955,520.247 116.288,516.581 113.5,513C 115.797,511.84 115.464,510.84 112.5,510C 114.721,505.903 114.054,502.07 110.5,498.5C 108.257,497.526 105.924,497.192 103.5,497.5C 113.649,496.092 123.982,495.092 134.5,494.5 Z"/></g>
<g><path style="opacity:0.996" fill="#08e779" d="M 234.5,466.5 C 238.956,478.282 243.122,490.282 247,502.5C 253.396,518.57 259.73,534.237 266,549.5C 267.016,550.634 267.683,550.301 268,548.5C 268.748,550.332 269.748,551.999 271,553.5C 271.496,555.035 271.33,556.535 270.5,558C 275.507,570.534 281.341,583.034 288,595.5C 288.49,596.793 288.657,598.127 288.5,599.5C 283.167,599.5 277.833,599.5 272.5,599.5C 271.039,594.38 268.706,589.713 265.5,585.5C 265.709,584.914 266.043,584.414 266.5,584C 264.717,582.261 263.05,580.428 261.5,578.5C 262.167,577.833 262.833,577.167 263.5,576.5C 262.471,576.704 261.471,576.204 260.5,575C 261.517,573.951 261.684,572.784 261,571.5C 252.056,550.05 243.223,528.216 234.5,506C 234.833,505.667 235.167,505.333 235.5,505C 232.274,497.344 229.941,489.677 228.5,482C 226.912,478.372 225.246,474.872 223.5,471.5C 226.836,469.269 230.503,467.603 234.5,466.5 Z"/></g>
<g><path style="opacity:1" fill="#00e029" d="M 103.5,497.5 C 105.924,497.192 108.257,497.526 110.5,498.5C 114.054,502.07 114.721,505.903 112.5,510C 115.464,510.84 115.797,511.84 113.5,513C 116.288,516.581 116.955,520.247 115.5,524C 118.544,524.359 118.878,525.026 116.5,526C 117.627,527.753 118.627,529.587 119.5,531.5C 119.587,533.963 119.587,536.463 119.5,539C 121.967,541.066 122.8,543.566 122,546.5C 122.718,545.549 123.551,545.383 124.5,546C 122.109,547.309 122.109,548.309 124.5,549C 125.233,550.535 125.233,552.368 124.5,554.5C 125.905,556.655 127.238,558.821 128.5,561C 127.542,562.147 127.875,563.147 129.5,564C 128.348,567.216 129.348,569.716 132.5,571.5C 131.833,571.833 131.167,572.167 130.5,572.5C 133.017,574.457 134.184,577.124 134,580.5C 136.576,582.528 137.076,584.695 135.5,587C 137.213,588.378 138.547,590.045 139.5,592C 139.5,593.333 139.5,594.667 139.5,596C 141.373,596.953 141.706,598.12 140.5,599.5C 133.167,599.5 125.833,599.5 118.5,599.5C 118.034,597.799 118.034,596.299 118.5,595C 116.401,593.318 115.068,591.652 114.5,590C 114.833,589.667 115.167,589.333 115.5,589C 114.411,586.149 113.078,583.482 111.5,581C 112.089,579.127 111.422,577.46 109.5,576C 109.833,575.667 110.167,575.333 110.5,575C 109.891,572.942 108.891,572.109 107.5,572.5C 108.025,571.808 108.692,571.308 109.5,571C 108.692,570.692 108.025,570.192 107.5,569.5C 106.262,566.254 105.429,562.92 105,559.5C 102.008,557.127 101.175,554.627 102.5,552C 99.562,550.08 98.8953,547.58 100.5,544.5C 97.1198,542.691 96.4531,540.524 98.5,538C 97.2576,536.349 96.4243,534.515 96,532.5C 95.6667,532.833 95.3333,533.167 95,533.5C 94.654,531.782 94.154,530.115 93.5,528.5C 93.7093,527.914 94.0426,527.414 94.5,527C 91.3999,524.485 90.7333,521.652 92.5,518.5C 92.0233,517.522 91.3567,516.689 90.5,516C 91.1667,515.667 91.8333,515.333 92.5,515C 89.4974,512.944 88.4974,510.277 89.5,507C 87.4356,505.982 87.1023,504.649 88.5,503C 87.7282,501.779 86.7282,500.779 85.5,500C 77.3228,499.829 69.3228,499.329 61.5,498.5C 75.5087,498.463 89.5087,498.129 103.5,497.5 Z"/></g>
<g><path style="opacity:1" fill="#00e11c" d="M 50.5,497.5 C 54.1545,497.942 57.8212,498.276 61.5,498.5C 69.3228,499.329 77.3228,499.829 85.5,500C 86.7282,500.779 87.7282,501.779 88.5,503C 87.1023,504.649 87.4356,505.982 89.5,507C 88.4974,510.277 89.4974,512.944 92.5,515C 91.8333,515.333 91.1667,515.667 90.5,516C 91.3567,516.689 92.0233,517.522 92.5,518.5C 90.7333,521.652 91.3999,524.485 94.5,527C 94.0426,527.414 93.7093,527.914 93.5,528.5C 94.154,530.115 94.654,531.782 95,533.5C 95.3333,533.167 95.6667,532.833 96,532.5C 96.4243,534.515 97.2576,536.349 98.5,538C 96.4531,540.524 97.1198,542.691 100.5,544.5C 98.8953,547.58 99.562,550.08 102.5,552C 101.175,554.627 102.008,557.127 105,559.5C 105.429,562.92 106.262,566.254 107.5,569.5C 108.025,570.192 108.692,570.692 109.5,571C 108.692,571.308 108.025,571.808 107.5,572.5C 108.891,572.109 109.891,572.942 110.5,575C 110.167,575.333 109.833,575.667 109.5,576C 111.422,577.46 112.089,579.127 111.5,581C 113.078,583.482 114.411,586.149 115.5,589C 115.167,589.333 114.833,589.667 114.5,590C 115.068,591.652 116.401,593.318 118.5,595C 118.034,596.299 118.034,597.799 118.5,599.5C 108.5,599.5 98.5,599.5 88.5,599.5C 87.2086,598.527 87.2086,597.527 88.5,596.5C 88.1543,595.304 87.6543,595.304 87,596.5C 85.9806,594.731 85.814,593.064 86.5,591.5C 83.7211,590.327 83.0545,588.493 84.5,586C 81.6537,585.121 80.987,583.454 82.5,581C 78.0069,576.847 76.1736,572.347 77,567.5C 76.3457,568.696 75.8457,568.696 75.5,567.5C 76.4279,566.232 76.5946,564.899 76,563.5C 75.0862,564.654 74.2529,564.487 73.5,563C 74.2419,559.73 73.2419,556.897 70.5,554.5C 71.0253,553.808 71.6919,553.308 72.5,553C 69.9918,550.31 67.9918,547.31 66.5,544C 66.0574,542.482 66.7241,541.315 68.5,540.5C 66.9789,538.714 66.6456,536.881 67.5,535C 65.8753,534.147 65.5419,533.147 66.5,532C 65.7471,530.513 64.9138,530.346 64,531.5C 63.5348,530.069 62.7014,528.903 61.5,528C 62.5,527 63.5,526 64.5,525C 60.8172,524.024 60.1506,522.357 62.5,520C 59.3884,517.352 58.7218,514.519 60.5,511.5C 59.011,511.467 57.6776,510.967 56.5,510C 57.3567,509.311 58.0233,508.478 58.5,507.5C 56.205,505.8 54.8717,503.466 54.5,500.5C 53.5745,499.359 52.7412,499.359 52,500.5C 50.9614,499.756 50.4614,498.756 50.5,497.5 Z"/></g>
<g><path style="opacity:0.99" fill="#96e8b2" d="M 479.5,599.5 C 464.5,599.5 449.5,599.5 434.5,599.5C 425.969,585.611 417.303,571.777 408.5,558C 409.505,556.493 410.838,555.327 412.5,554.5C 412,553.5 411.5,552.5 411,551.5C 395.237,526.297 379.237,501.297 363,476.5C 352.518,455.677 340.685,435.844 327.5,417C 324.418,415.591 321.585,413.758 319,411.5C 318.383,410.551 318.549,409.718 319.5,409C 317.846,408.392 316.179,407.892 314.5,407.5C 318.167,402.833 321.833,398.167 325.5,393.5C 329.734,392.28 333.734,392.28 337.5,393.5C 340.028,394.498 340.028,395.331 337.5,396C 341.602,396.729 345.102,398.562 348,401.5C 356.667,413.5 365.333,425.5 374,437.5C 400.195,468.773 424.028,500.606 445.5,533C 443.588,534.2 442.255,535.867 441.5,538C 454.815,558.137 467.482,578.637 479.5,599.5 Z"/></g>
<g><path style="opacity:0.996" fill="#00e770" d="M 223.5,471.5 C 225.246,474.872 226.912,478.372 228.5,482C 229.941,489.677 232.274,497.344 235.5,505C 235.167,505.333 234.833,505.667 234.5,506C 243.223,528.216 252.056,550.05 261,571.5C 261.684,572.784 261.517,573.951 260.5,575C 261.471,576.204 262.471,576.704 263.5,576.5C 262.833,577.167 262.167,577.833 261.5,578.5C 263.05,580.428 264.717,582.261 266.5,584C 266.043,584.414 265.709,584.914 265.5,585.5C 268.706,589.713 271.039,594.38 272.5,599.5C 262.167,599.5 251.833,599.5 241.5,599.5C 232.376,569.548 223.043,540.048 213.5,511C 213.957,510.586 214.291,510.086 214.5,509.5C 211.31,499.057 207.977,488.724 204.5,478.5C 210.668,475.925 217.001,473.591 223.5,471.5 Z"/></g>
<g><path style="opacity:0.988" fill="#a9e9be" d="M 500.5,500.5 C 501.29,501.609 501.79,502.942 502,504.5C 502.333,503.833 502.667,503.167 503,502.5C 503.305,504.557 503.305,506.557 503,508.5C 503.333,508.167 503.667,507.833 504,507.5C 505.03,510.257 506.697,511.591 509,511.5C 511.112,515.278 513.612,518.778 516.5,522C 516.167,522.333 515.833,522.667 515.5,523C 536.597,548.93 560.264,572.43 586.5,593.5C 587.043,593.56 587.376,593.893 587.5,594.5C 586.237,596.029 585.237,597.695 584.5,599.5C 564.5,599.5 544.5,599.5 524.5,599.5C 511.354,577.216 497.688,555.216 483.5,533.5C 482.019,532.52 480.685,531.353 479.5,530C 479.833,529.667 480.167,529.333 480.5,529C 477.742,526.991 477.408,524.991 479.5,523C 478.313,521.981 477.313,520.814 476.5,519.5C 475.754,517.242 475.754,514.742 476.5,512C 474.826,510.494 473.826,508.661 473.5,506.5C 474.825,505.047 475.658,505.381 476,507.5C 476.903,506.299 478.069,505.465 479.5,505C 478.833,504 478.167,503 477.5,502C 479.441,500.097 481.774,499.264 484.5,499.5C 485.014,497.302 486.014,495.302 487.5,493.5C 487.291,492.914 486.957,492.414 486.5,492C 487.744,491.544 488.577,492.044 489,493.5C 489.118,491.427 490.118,490.093 492,489.5C 495.849,492.499 498.682,496.166 500.5,500.5 Z"/></g>
</svg>
