<?xml version="1.0" encoding="UTF-8"?>
<!DOCTYPE svg PUBLIC "-//W3C//DTD SVG 1.1//EN" "http://www.w3.org/Graphics/SVG/1.1/DTD/svg11.dtd">
<svg xmlns="http://www.w3.org/2000/svg" version="1.1" width="600px" height="600px" style="shape-rendering:geometricPrecision; text-rendering:geometricPrecision; image-rendering:optimizeQuality; fill-rule:evenodd; clip-rule:evenodd" xmlns:xlink="http://www.w3.org/1999/xlink">
<g><path style="opacity:0.994" fill="#feabdc" d="M -0.5,-0.5 C 3.5,-0.5 7.5,-0.5 11.5,-0.5C 24.5359,18.2325 38.5359,36.2325 53.5,53.5C 54.086,53.2907 54.586,52.9574 55,52.5C 55.7977,55.8931 56.7977,59.2265 58,62.5C 58.2618,53.7802 57.5951,45.1135 56,36.5C 52.9565,23.9865 49.4565,11.6532 45.5,-0.5C 46.8333,-0.5 48.1667,-0.5 49.5,-0.5C 54.6523,15.1458 59.819,30.8124 65,46.5C 71.9477,72.4334 75.1144,98.6 74.5,125C 72.7363,134.041 71.7363,143.207 71.5,152.5C 69.9505,151.559 68.2838,150.893 66.5,150.5C 65.2998,138.198 64.4665,125.865 64,113.5C 63.6905,112.234 63.1905,111.067 62.5,110C 53.7879,109.68 45.7879,112.013 38.5,117C 25.7148,120.197 12.7148,121.364 -0.5,120.5C -0.5,117.167 -0.5,113.833 -0.5,110.5C 14.3937,110.489 26.8937,105.156 37,94.5C 37.8035,91.7558 38.8035,89.0891 40,86.5C 40.3333,86.8333 40.6667,87.1667 41,87.5C 42.2664,74.9589 39.5997,63.2922 33,52.5C 21.9703,35.3242 10.8037,18.3242 -0.5,1.5C -0.5,0.833333 -0.5,0.166667 -0.5,-0.5 Z"/></g>
<g><path style="opacity:0.996" fill="#fea5da" d="M 11.5,-0.5 C 22.8333,-0.5 34.1667,-0.5 45.5,-0.5C 49.4565,11.6532 52.9565,23.9865 56,36.5C 57.5951,45.1135 58.2618,53.7802 58,62.5C 56.7977,59.2265 55.7977,55.8931 55,52.5C 54.586,52.9574 54.086,53.2907 53.5,53.5C 38.5359,36.2325 24.5359,18.2325 11.5,-0.5 Z"/></g>
<g><path style="opacity:1" fill="#feb1de" d="M 49.5,-0.5 C 52.1667,-0.5 54.8333,-0.5 57.5,-0.5C 63.7454,20.7665 69.9121,42.4332 76,64.5C 80.9852,85.2003 83.4852,105.7 83.5,126C 81.4456,136.567 80.1122,147.4 79.5,158.5C 76.5505,156.885 73.8838,154.885 71.5,152.5C 71.7363,143.207 72.7363,134.041 74.5,125C 75.1144,98.6 71.9477,72.4334 65,46.5C 59.819,30.8124 54.6523,15.1458 49.5,-0.5 Z"/></g>
<g><path style="opacity:0.986" fill="#fdbae1" d="M 57.5,-0.5 C 93.1667,-0.5 128.833,-0.5 164.5,-0.5C 164.325,3.76961 162.992,7.93628 160.5,12C 161.669,16.1694 161.669,20.3361 160.5,24.5C 164.446,29.3703 164.446,34.2036 160.5,39C 161.743,40.1545 162.743,41.4878 163.5,43C 162.825,47.3858 161.825,51.7192 160.5,56C 160.64,61.3865 160.64,66.7198 160.5,72C 159.833,72.3333 159.167,72.6667 158.5,73C 158.957,78.804 159.957,84.804 161.5,91C 161.634,92.545 161.3,94.2117 160.5,96C 160.905,96.9454 161.572,97.6121 162.5,98C 161.167,101.333 161.167,104.667 162.5,108C 160.193,109.828 160.526,111.494 163.5,113C 162.5,113.333 161.5,113.667 160.5,114C 162.716,116.704 164.383,120.371 165.5,125C 163.032,126.588 162.866,128.422 165,130.5C 165.333,130.167 165.667,129.833 166,129.5C 168.48,140.885 171.98,152.219 176.5,163.5C 170.322,182.097 167.655,201.263 168.5,221C 168.815,226.575 169.648,232.075 171,237.5C 174.7,248.315 178.7,258.982 183,269.5C 184.182,272.856 184.349,276.19 183.5,279.5C 162.778,262.612 144.278,243.612 128,222.5C 114.305,199.303 98.1383,177.97 79.5,158.5C 80.1122,147.4 81.4456,136.567 83.5,126C 83.4852,105.7 80.9852,85.2003 76,64.5C 69.9121,42.4332 63.7454,20.7665 57.5,-0.5 Z"/></g>
<g><path style="opacity:0.955" fill="#f5bee1" d="M 164.5,-0.5 C 167.167,-0.5 169.833,-0.5 172.5,-0.5C 172.022,1.91711 171.022,4.08377 169.5,6C 169.957,6.41395 170.291,6.91395 170.5,7.5C 169.671,11.4558 169.005,15.4558 168.5,19.5C 168.543,24.9725 168.543,30.4725 168.5,36C 169.202,40.1902 170.202,44.5235 171.5,49C 171.067,57.541 170.067,66.2077 168.5,75C 168.981,82.1865 169.647,89.8532 170.5,98C 170.441,99.4357 170.108,100.769 169.5,102C 170.697,107.972 171.697,113.972 172.5,120C 173.698,130.961 176.365,141.461 180.5,151.5C 179.739,155.784 178.405,159.784 176.5,163.5C 171.98,152.219 168.48,140.885 166,129.5C 165.667,129.833 165.333,130.167 165,130.5C 162.866,128.422 163.032,126.588 165.5,125C 164.383,120.371 162.716,116.704 160.5,114C 161.5,113.667 162.5,113.333 163.5,113C 160.526,111.494 160.193,109.828 162.5,108C 161.167,104.667 161.167,101.333 162.5,98C 161.572,97.6121 160.905,96.9454 160.5,96C 161.3,94.2117 161.634,92.545 161.5,91C 159.957,84.804 158.957,78.804 158.5,73C 159.167,72.6667 159.833,72.3333 160.5,72C 160.64,66.7198 160.64,61.3865 160.5,56C 161.825,51.7192 162.825,47.3858 163.5,43C 162.743,41.4878 161.743,40.1545 160.5,39C 164.446,34.2036 164.446,29.3703 160.5,24.5C 161.669,20.3361 161.669,16.1694 160.5,12C 162.992,7.93628 164.325,3.76961 164.5,-0.5 Z"/></g>
<g><path style="opacity:0.99" fill="#72d6da" d="M 224.5,-0.5 C 225.833,-0.5 227.167,-0.5 228.5,-0.5C 235.342,9.16613 242.676,18.4995 250.5,27.5C 253.472,29.3056 256.305,31.3056 259,33.5C 267.624,48.7885 278.457,62.2885 291.5,74C 298.974,77.7013 306.641,81.0346 314.5,84C 323.921,85.2516 332.921,87.9183 341.5,92C 335.984,92.1733 330.651,92.6733 325.5,93.5C 323.833,93.5 322.167,93.5 320.5,93.5C 311.643,87.0716 301.977,82.2383 291.5,79C 286.661,74.9349 281.328,71.6016 275.5,69C 271.643,66.2575 271.643,64.9242 275.5,65C 267.679,59.5121 260.846,53.0121 255,45.5C 244.193,30.5384 234.026,15.2051 224.5,-0.5 Z"/></g>
<g><path style="opacity:0.99" fill="#f5b0dd" d="M -0.5,1.5 C 10.8037,18.3242 21.9703,35.3242 33,52.5C 39.5997,63.2922 42.2664,74.9589 41,87.5C 40.6667,87.1667 40.3333,86.8333 40,86.5C 38.8035,89.0891 37.8035,91.7558 37,94.5C 26.8937,105.156 14.3937,110.489 -0.5,110.5C -0.5,107.167 -0.5,103.833 -0.5,100.5C 24.5327,95.4466 32.6994,80.78 24,56.5C 16.7963,42.7287 8.62962,29.7287 -0.5,17.5C -0.5,12.1667 -0.5,6.83333 -0.5,1.5 Z"/></g>
<g><path style="opacity:0.965" fill="#b2c9dd" d="M 184.5,-0.5 C 185.167,-0.5 185.833,-0.5 186.5,-0.5C 183.832,10.3478 182.999,21.3478 184,32.5C 185.62,37.6721 187.12,42.8388 188.5,48C 187.663,49.0113 187.33,50.1779 187.5,51.5C 186.833,53.5 186.167,55.5 185.5,57.5C 183.14,47.8718 181.14,38.0384 179.5,28C 179.218,18.5521 180.885,9.05213 184.5,-0.5 Z"/></g>
<g><path style="opacity:0.992" fill="#eab4dc" d="M -0.5,17.5 C 8.62962,29.7287 16.7963,42.7287 24,56.5C 32.6994,80.78 24.5327,95.4466 -0.5,100.5C -0.5,97.8333 -0.5,95.1667 -0.5,92.5C 11.2784,89.384 17.6117,81.7173 18.5,69.5C 17.5039,58.6729 13.6706,49.0063 7,40.5C 5.96975,34.9892 3.46975,30.3225 -0.5,26.5C -0.5,23.5 -0.5,20.5 -0.5,17.5 Z"/></g>
<g><path style="opacity:0.993" fill="#64d8d9" d="M 221.5,-0.5 C 222.5,-0.5 223.5,-0.5 224.5,-0.5C 234.026,15.2051 244.193,30.5384 255,45.5C 260.846,53.0121 267.679,59.5121 275.5,65C 271.643,64.9242 271.643,66.2575 275.5,69C 281.328,71.6016 286.661,74.9349 291.5,79C 301.977,82.2383 311.643,87.0716 320.5,93.5C 314.061,93.9294 307.727,94.9294 301.5,96.5C 300.043,94.2152 298.043,92.3819 295.5,91C 296.654,90.0862 296.487,89.2529 295,88.5C 294.282,89.4506 293.449,89.6172 292.5,89C 293.711,88.1072 293.711,87.2739 292.5,86.5C 284.193,82.4112 277.027,76.7445 271,69.5C 270.667,69.8333 270.333,70.1667 270,70.5C 258.82,58.5709 248.82,45.2376 240,30.5C 237.226,28.8605 234.726,26.8605 232.5,24.5C 229.5,19.0159 226.334,13.6826 223,8.5C 221.851,5.6074 221.351,2.6074 221.5,-0.5 Z"/></g>
<g><path style="opacity:0.992" fill="#e2b7dc" d="M -0.5,26.5 C 3.46975,30.3225 5.96975,34.9892 7,40.5C 13.6706,49.0063 17.5039,58.6729 18.5,69.5C 17.6117,81.7173 11.2784,89.384 -0.5,92.5C -0.5,70.5 -0.5,48.5 -0.5,26.5 Z"/></g>
<g><path style="opacity:0.998" fill="#5edcda" d="M 195.5,-0.5 C 196.833,-0.5 198.167,-0.5 199.5,-0.5C 199.216,2.85242 198.05,5.85242 196,8.5C 193.926,16.9181 194.26,25.2514 197,33.5C 199.072,35.7876 201.572,37.4543 204.5,38.5C 207.456,36.9186 210.456,35.4186 213.5,34C 219.507,33.8681 225.507,33.8681 231.5,34C 231.273,31.631 231.107,29.131 231,26.5C 226.341,17.1785 221.174,8.1785 215.5,-0.5C 217.5,-0.5 219.5,-0.5 221.5,-0.5C 221.351,2.6074 221.851,5.6074 223,8.5C 226.334,13.6826 229.5,19.0159 232.5,24.5C 234.726,26.8605 237.226,28.8605 240,30.5C 248.82,45.2376 258.82,58.5709 270,70.5C 270.333,70.1667 270.667,69.8333 271,69.5C 277.027,76.7445 284.193,82.4112 292.5,86.5C 293.711,87.2739 293.711,88.1072 292.5,89C 293.449,89.6172 294.282,89.4506 295,88.5C 296.487,89.2529 296.654,90.0862 295.5,91C 298.043,92.3819 300.043,94.2152 301.5,96.5C 295.058,98.3045 289.224,101.305 284,105.5C 282.076,110.064 282.576,114.398 285.5,118.5C 284.684,120.144 283.35,121.31 281.5,122C 294.796,146.104 308.963,169.604 324,192.5C 328.323,198.652 333.157,204.319 338.5,209.5C 338.5,213.167 338.5,216.833 338.5,220.5C 334.553,218.055 331.053,215.055 328,211.5C 323.577,204.989 318.911,198.655 314,192.5C 295.496,162.162 277.496,131.495 260,100.5C 249.624,84.9135 239.124,69.4135 228.5,54C 222.465,48.7771 215.799,46.9438 208.5,48.5C 204.837,47.9466 201.504,46.6133 198.5,44.5C 197.299,41.1282 195.466,38.1282 193,35.5C 192.479,32.0815 191.645,28.7481 190.5,25.5C 191.774,16.7343 193.441,8.06758 195.5,-0.5 Z"/></g>
<g><path style="opacity:0.998" fill="#3bdcda" d="M 199.5,-0.5 C 204.833,-0.5 210.167,-0.5 215.5,-0.5C 221.174,8.1785 226.341,17.1785 231,26.5C 231.107,29.131 231.273,31.631 231.5,34C 225.507,33.8681 219.507,33.8681 213.5,34C 210.456,35.4186 207.456,36.9186 204.5,38.5C 201.572,37.4543 199.072,35.7876 197,33.5C 194.26,25.2514 193.926,16.9181 196,8.5C 198.05,5.85242 199.216,2.85242 199.5,-0.5 Z"/></g>
<g><path style="opacity:0.996" fill="#02d6d2" d="M 599.5,7.5 C 599.5,20.5 599.5,33.5 599.5,46.5C 578.615,59.8241 556.615,71.3241 533.5,81C 508.598,89.9125 483.598,98.0792 458.5,105.5C 440.05,104.08 421.717,102.08 403.5,99.5C 403.47,98.5028 403.97,97.8361 405,97.5C 446.647,87.0619 487.147,73.2285 526.5,56C 534.713,52.1353 542.713,47.8019 550.5,43C 566.924,31.1379 583.257,19.3045 599.5,7.5 Z"/></g>
<g><path style="opacity:0.992" fill="#7cd0d8" d="M 228.5,-0.5 C 238.5,-0.5 248.5,-0.5 258.5,-0.5C 264.724,10.9416 271.224,22.2749 278,33.5C 284.079,38.2866 288.746,44.2866 292,51.5C 299.456,56.9553 306.29,63.122 312.5,70C 320.064,75.223 327.898,80.0563 336,84.5C 343.736,87.6007 351.736,89.6007 360,90.5C 373.638,88.5391 387.138,85.8724 400.5,82.5C 430.83,76.4452 460.163,67.2785 488.5,55C 505.062,46.4373 519.228,34.9373 531,20.5C 532.25,17.9234 532.584,15.2567 532,12.5C 530.301,7.88234 528.134,3.549 525.5,-0.5C 535.167,-0.5 544.833,-0.5 554.5,-0.5C 557.498,4.84488 556.998,9.84488 553,14.5C 529.054,40.0891 500.22,57.9224 466.5,68C 434.344,77.2001 402.344,86.3668 370.5,95.5C 355.558,93.8028 340.558,93.1361 325.5,93.5C 330.651,92.6733 335.984,92.1733 341.5,92C 332.921,87.9183 323.921,85.2516 314.5,84C 306.641,81.0346 298.974,77.7013 291.5,74C 278.457,62.2885 267.624,48.7885 259,33.5C 256.305,31.3056 253.472,29.3056 250.5,27.5C 242.676,18.4995 235.342,9.16613 228.5,-0.5 Z"/></g>
<g><path style="opacity:0.996" fill="#8bccda" d="M 258.5,-0.5 C 268.167,-0.5 277.833,-0.5 287.5,-0.5C 292.893,14.843 298.393,30.1763 304,45.5C 315.56,69.0359 334.393,82.3693 360.5,85.5C 398.42,80.6869 435.087,71.1869 470.5,57C 482.381,51.7805 492.548,44.2805 501,34.5C 502.404,32.3611 503.237,30.0278 503.5,27.5C 501.301,22.0978 498.801,16.7644 496,11.5C 491.898,6.89553 487.398,2.89553 482.5,-0.5C 489.167,-0.5 495.833,-0.5 502.5,-0.5C 505.824,7.48366 509.157,15.4837 512.5,23.5C 506.439,35.0626 497.773,44.2293 486.5,51C 459.973,63.8831 432.307,73.5498 403.5,80C 401.881,80.2355 400.881,81.0689 400.5,82.5C 387.138,85.8724 373.638,88.5391 360,90.5C 351.736,89.6007 343.736,87.6007 336,84.5C 327.898,80.0563 320.064,75.223 312.5,70C 306.29,63.122 299.456,56.9553 292,51.5C 288.746,44.2866 284.079,38.2866 278,33.5C 271.224,22.2749 264.724,10.9416 258.5,-0.5 Z"/></g>
<g><path style="opacity:0.996" fill="#92cbda" d="M 287.5,-0.5 C 290.167,-0.5 292.833,-0.5 295.5,-0.5C 300.286,16.6935 305.786,33.6935 312,50.5C 318.8,62.9619 328.967,71.4619 342.5,76C 349.297,79.2654 356.464,81.0988 364,81.5C 398.51,78.067 431.677,69.567 463.5,56C 473.453,52.7045 480.953,46.5378 486,37.5C 486.651,35.765 486.485,34.0983 485.5,32.5C 480.85,28.5076 475.85,25.0076 470.5,22C 465.456,16.6244 460.789,10.9578 456.5,5C 453.328,3.30345 450.328,1.47011 447.5,-0.5C 459.167,-0.5 470.833,-0.5 482.5,-0.5C 487.398,2.89553 491.898,6.89553 496,11.5C 498.801,16.7644 501.301,22.0978 503.5,27.5C 503.237,30.0278 502.404,32.3611 501,34.5C 492.548,44.2805 482.381,51.7805 470.5,57C 435.087,71.1869 398.42,80.6869 360.5,85.5C 334.393,82.3693 315.56,69.0359 304,45.5C 298.393,30.1763 292.893,14.843 287.5,-0.5 Z"/></g>
<g><path style="opacity:0.996" fill="#99cada" d="M 295.5,-0.5 C 299.5,-0.5 303.5,-0.5 307.5,-0.5C 310.76,14.9622 314.593,30.2955 319,45.5C 327.318,64.3 341.818,73.6333 362.5,73.5C 394.456,72.1374 425.456,65.3041 455.5,53C 457.5,51.6667 459.5,50.3333 461.5,49C 464.167,46.3333 464.167,43.6667 461.5,41C 432.44,24.934 402.44,11.1006 371.5,-0.5C 396.833,-0.5 422.167,-0.5 447.5,-0.5C 450.328,1.47011 453.328,3.30345 456.5,5C 460.789,10.9578 465.456,16.6244 470.5,22C 475.85,25.0076 480.85,28.5076 485.5,32.5C 486.485,34.0983 486.651,35.765 486,37.5C 480.953,46.5378 473.453,52.7045 463.5,56C 431.677,69.567 398.51,78.067 364,81.5C 356.464,81.0988 349.297,79.2654 342.5,76C 328.967,71.4619 318.8,62.9619 312,50.5C 305.786,33.6935 300.286,16.6935 295.5,-0.5 Z"/></g>
<g><path style="opacity:0.996" fill="#9fc8da" d="M 307.5,-0.5 C 309.167,-0.5 310.833,-0.5 312.5,-0.5C 314.964,17.4499 320.131,35.1165 328,52.5C 335.356,61.1779 344.689,65.8446 356,66.5C 372.981,64.4204 390.147,61.5871 407.5,58C 411.217,56.8202 414.884,55.4869 418.5,54C 421.21,52.5402 421.876,50.5402 420.5,48C 405.068,41.4112 389.401,35.4112 373.5,30C 360.645,19.9694 347.979,9.8027 335.5,-0.5C 347.5,-0.5 359.5,-0.5 371.5,-0.5C 402.44,11.1006 432.44,24.934 461.5,41C 464.167,43.6667 464.167,46.3333 461.5,49C 459.5,50.3333 457.5,51.6667 455.5,53C 425.456,65.3041 394.456,72.1374 362.5,73.5C 341.818,73.6333 327.318,64.3 319,45.5C 314.593,30.2955 310.76,14.9622 307.5,-0.5 Z"/></g>
<g><path style="opacity:0.996" fill="#a3c7da" d="M 312.5,-0.5 C 320.167,-0.5 327.833,-0.5 335.5,-0.5C 347.979,9.8027 360.645,19.9694 373.5,30C 389.401,35.4112 405.068,41.4112 420.5,48C 421.876,50.5402 421.21,52.5402 418.5,54C 414.884,55.4869 411.217,56.8202 407.5,58C 390.147,61.5871 372.981,64.4204 356,66.5C 344.689,65.8446 335.356,61.1779 328,52.5C 320.131,35.1165 314.964,17.4499 312.5,-0.5 Z"/></g>
<g><path style="opacity:0.996" fill="#87cfd9" d="M 502.5,-0.5 C 510.167,-0.5 517.833,-0.5 525.5,-0.5C 528.134,3.549 530.301,7.88234 532,12.5C 532.584,15.2567 532.25,17.9234 531,20.5C 519.228,34.9373 505.062,46.4373 488.5,55C 460.163,67.2785 430.83,76.4452 400.5,82.5C 400.881,81.0689 401.881,80.2355 403.5,80C 432.307,73.5498 459.973,63.8831 486.5,51C 497.773,44.2293 506.439,35.0626 512.5,23.5C 509.157,15.4837 505.824,7.48366 502.5,-0.5 Z"/></g>
<g><path style="opacity:0.996" fill="#00cfca" d="M 599.5,46.5 C 599.5,50.1667 599.5,53.8333 599.5,57.5C 573.717,72.7213 547.05,86.5546 519.5,99C 516.629,100.935 513.629,102.601 510.5,104C 510.5,105 510.5,106 510.5,107C 508.114,108.193 505.78,109.36 503.5,110.5C 488.355,108.926 473.355,107.259 458.5,105.5C 483.598,98.0792 508.598,89.9125 533.5,81C 556.615,71.3241 578.615,59.8241 599.5,46.5 Z"/></g>
<g><path style="opacity:0.992" fill="#6cd3d9" d="M 554.5,-0.5 C 564.167,-0.5 573.833,-0.5 583.5,-0.5C 578.747,7.08877 572.747,13.5888 565.5,19C 549.526,31.3227 532.859,42.6561 515.5,53C 501.901,58.4673 488.567,64.4673 475.5,71C 445.778,78.6803 416.112,86.5136 386.5,94.5C 386.5,95.5 386.5,96.5 386.5,97.5C 381.106,97.2675 375.773,96.6008 370.5,95.5C 402.344,86.3668 434.344,77.2001 466.5,68C 500.22,57.9224 529.054,40.0891 553,14.5C 556.998,9.84488 557.498,4.84488 554.5,-0.5 Z"/></g>
<g><path style="opacity:0.996" fill="#7adcdb" d="M 190.5,-0.5 C 192.167,-0.5 193.833,-0.5 195.5,-0.5C 193.441,8.06758 191.774,16.7343 190.5,25.5C 191.645,28.7481 192.479,32.0815 193,35.5C 195.466,38.1282 197.299,41.1282 198.5,44.5C 201.504,46.6133 204.837,47.9466 208.5,48.5C 215.799,46.9438 222.465,48.7771 228.5,54C 239.124,69.4135 249.624,84.9135 260,100.5C 277.496,131.495 295.496,162.162 314,192.5C 318.911,198.655 323.577,204.989 328,211.5C 331.053,215.055 334.553,218.055 338.5,220.5C 338.5,222.833 338.5,225.167 338.5,227.5C 328.52,221.019 320.353,212.686 314,202.5C 294.31,171.124 275.644,139.124 258,106.5C 246.219,89.7187 234.053,73.2187 221.5,57C 215.153,53.3682 208.487,52.2015 201.5,53.5C 200.279,52.9717 199.113,52.305 198,51.5C 195.304,47.3197 192.47,43.3197 189.5,39.5C 186.58,26.0689 186.913,12.7355 190.5,-0.5 Z"/></g>
<g><path style="opacity:0.995" fill="#8bdddc" d="M 338.5,227.5 C 338.5,228.5 338.5,229.5 338.5,230.5C 337.849,231.091 337.182,231.757 336.5,232.5C 327.495,226.661 319.995,219.328 314,210.5C 293.792,179.42 275.125,147.42 258,114.5C 255.477,110.767 252.977,107.101 250.5,103.5C 247.209,100.175 243.876,96.8419 240.5,93.5C 233.52,84.8828 227.02,75.8828 221,66.5C 215.179,60.4428 208.012,57.2761 199.5,57C 200.305,55.8873 200.972,54.7206 201.5,53.5C 208.487,52.2015 215.153,53.3682 221.5,57C 234.053,73.2187 246.219,89.7187 258,106.5C 275.644,139.124 294.31,171.124 314,202.5C 320.353,212.686 328.52,221.019 338.5,227.5 Z"/></g>
<g><path style="opacity:0.993" fill="#3ad7d7" d="M 599.5,2.5 C 599.5,4.16667 599.5,5.83333 599.5,7.5C 583.257,19.3045 566.924,31.1379 550.5,43C 542.713,47.8019 534.713,52.1353 526.5,56C 487.147,73.2285 446.647,87.0619 405,97.5C 403.97,97.8361 403.47,98.5028 403.5,99.5C 403.167,99.5 402.833,99.5 402.5,99.5C 401.319,97.9328 399.653,97.0995 397.5,97C 425.197,89.5458 452.53,80.8792 479.5,71C 483.114,70.0551 486.781,69.3884 490.5,69C 506.708,62.231 522.708,54.8976 538.5,47C 541.167,45.6667 543.167,43.6667 544.5,41C 563.445,29.1809 581.778,16.3476 599.5,2.5 Z"/></g>
<g><path style="opacity:0.99" fill="#00c8c2" d="M 599.5,57.5 C 599.5,104.5 599.5,151.5 599.5,198.5C 571.064,180.815 543.064,162.982 515.5,145C 513.26,144.023 510.927,143.523 508.5,143.5C 532.139,135.787 555.806,127.954 579.5,120C 554.023,116.815 528.689,113.649 503.5,110.5C 505.78,109.36 508.114,108.193 510.5,107C 510.5,106 510.5,105 510.5,104C 513.629,102.601 516.629,100.935 519.5,99C 547.05,86.5546 573.717,72.7213 599.5,57.5 Z"/></g>
<g><path style="opacity:0.981" fill="#eac1e1" d="M 172.5,-0.5 C 173.833,-0.5 175.167,-0.5 176.5,-0.5C 174.319,8.90296 172.319,18.403 170.5,28C 171.534,35.179 172.534,42.3456 173.5,49.5C 173.07,63.8059 172.737,78.4725 172.5,93.5C 173.131,97.0344 173.798,100.534 174.5,104C 174.163,109.15 174.163,114.484 174.5,120C 176.765,128.813 179.098,137.646 181.5,146.5C 181.784,148.415 181.451,150.081 180.5,151.5C 176.365,141.461 173.698,130.961 172.5,120C 171.697,113.972 170.697,107.972 169.5,102C 170.108,100.769 170.441,99.4357 170.5,98C 169.647,89.8532 168.981,82.1865 168.5,75C 170.067,66.2077 171.067,57.541 171.5,49C 170.202,44.5235 169.202,40.1902 168.5,36C 168.543,30.4725 168.543,24.9725 168.5,19.5C 169.005,15.4558 169.671,11.4558 170.5,7.5C 170.291,6.91395 169.957,6.41395 169.5,6C 171.022,4.08377 172.022,1.91711 172.5,-0.5 Z"/></g>
<g><path style="opacity:0.989" fill="#e1c4e0" d="M 176.5,-0.5 C 177.167,-0.5 177.833,-0.5 178.5,-0.5C 177.415,5.09955 176.748,10.7662 176.5,16.5C 176.859,23.3652 177.025,30.3652 177,37.5C 177.788,41.8576 178.622,46.1909 179.5,50.5C 178.926,52.0589 178.26,53.5589 177.5,55C 177.997,68.1567 177.997,81.4901 177.5,95C 178.087,98.3862 178.754,101.72 179.5,105C 178.651,108.107 178.317,111.107 178.5,114C 180.069,122.367 182.069,130.533 184.5,138.5C 183.795,141.354 182.795,144.021 181.5,146.5C 179.098,137.646 176.765,128.813 174.5,120C 174.163,114.484 174.163,109.15 174.5,104C 173.798,100.534 173.131,97.0344 172.5,93.5C 172.737,78.4725 173.07,63.8059 173.5,49.5C 172.534,42.3456 171.534,35.179 170.5,28C 172.319,18.403 174.319,8.90296 176.5,-0.5 Z"/></g>
<g><path style="opacity:0.995" fill="#d3c9df" d="M 178.5,-0.5 C 179.833,-0.5 181.167,-0.5 182.5,-0.5C 178.07,10.42 177.07,21.5867 179.5,33C 179.415,34.1074 179.081,35.1074 178.5,36C 179.833,42.6667 181.167,49.3333 182.5,56C 181.418,73.5812 181.251,91.4145 182,109.5C 182.207,117.028 183.374,124.361 185.5,131.5C 185.552,133.903 185.219,136.236 184.5,138.5C 182.069,130.533 180.069,122.367 178.5,114C 178.317,111.107 178.651,108.107 179.5,105C 178.754,101.72 178.087,98.3862 177.5,95C 177.997,81.4901 177.997,68.1567 177.5,55C 178.26,53.5589 178.926,52.0589 179.5,50.5C 178.622,46.1909 177.788,41.8576 177,37.5C 177.025,30.3652 176.859,23.3652 176.5,16.5C 176.748,10.7662 177.415,5.09955 178.5,-0.5 Z"/></g>
<g><path style="opacity:0.998" fill="#9ddddc" d="M 189.5,39.5 C 192.47,43.3197 195.304,47.3197 198,51.5C 199.113,52.305 200.279,52.9717 201.5,53.5C 200.972,54.7206 200.305,55.8873 199.5,57C 208.012,57.2761 215.179,60.4428 221,66.5C 227.02,75.8828 233.52,84.8828 240.5,93.5C 235.385,91.3105 230.051,90.4772 224.5,91C 214.206,95.8203 205.206,102.32 197.5,110.5C 198.144,102.64 198.144,95.1399 197.5,88C 198.167,86.6667 198.833,85.3333 199.5,84C 198.809,77.5449 197.476,71.2116 195.5,65C 196.26,63.5589 196.926,62.0589 197.5,60.5C 195.957,57.914 194.291,55.414 192.5,53C 192.957,52.586 193.291,52.086 193.5,51.5C 192.154,47.4287 190.821,43.4287 189.5,39.5 Z"/></g>
<g><path style="opacity:0.995" fill="#a3d8dc" d="M 186.5,-0.5 C 187.833,-0.5 189.167,-0.5 190.5,-0.5C 186.913,12.7355 186.58,26.0689 189.5,39.5C 190.821,43.4287 192.154,47.4287 193.5,51.5C 193.291,52.086 192.957,52.586 192.5,53C 194.291,55.414 195.957,57.914 197.5,60.5C 196.926,62.0589 196.26,63.5589 195.5,65C 197.476,71.2116 198.809,77.5449 199.5,84C 198.833,85.3333 198.167,86.6667 197.5,88C 198.144,95.1399 198.144,102.64 197.5,110.5C 195.975,113.563 193.975,116.23 191.5,118.5C 191.339,101.526 191.339,84.8598 191.5,68.5C 191.117,62.483 189.783,56.8163 187.5,51.5C 187.33,50.1779 187.663,49.0113 188.5,48C 187.12,42.8388 185.62,37.6721 184,32.5C 182.999,21.3478 183.832,10.3478 186.5,-0.5 Z"/></g>
<g><path style="opacity:0.999" fill="#c8cedf" d="M 182.5,-0.5 C 183.167,-0.5 183.833,-0.5 184.5,-0.5C 180.885,9.05213 179.218,18.5521 179.5,28C 181.14,38.0384 183.14,47.8718 185.5,57.5C 184.637,80.4852 185.304,103.819 187.5,127.5C 187.34,129.153 186.674,130.486 185.5,131.5C 183.374,124.361 182.207,117.028 182,109.5C 181.251,91.4145 181.418,73.5812 182.5,56C 181.167,49.3333 179.833,42.6667 178.5,36C 179.081,35.1074 179.415,34.1074 179.5,33C 177.07,21.5867 178.07,10.42 182.5,-0.5 Z"/></g>
<g><path style="opacity:0.997" fill="#b8d4dd" d="M 187.5,51.5 C 189.783,56.8163 191.117,62.483 191.5,68.5C 191.339,84.8598 191.339,101.526 191.5,118.5C 190.537,121.744 189.204,124.744 187.5,127.5C 185.304,103.819 184.637,80.4852 185.5,57.5C 186.167,55.5 186.833,53.5 187.5,51.5 Z"/></g>
<g><path style="opacity:0.992" fill="#55d5d8" d="M 583.5,-0.5 C 588.833,-0.5 594.167,-0.5 599.5,-0.5C 599.5,0.5 599.5,1.5 599.5,2.5C 581.778,16.3476 563.445,29.1809 544.5,41C 543.167,43.6667 541.167,45.6667 538.5,47C 522.708,54.8976 506.708,62.231 490.5,69C 486.781,69.3884 483.114,70.0551 479.5,71C 452.53,80.8792 425.197,89.5458 397.5,97C 399.653,97.0995 401.319,97.9328 402.5,99.5C 397.149,98.9631 391.816,98.2965 386.5,97.5C 386.5,96.5 386.5,95.5 386.5,94.5C 416.112,86.5136 445.778,78.6803 475.5,71C 488.567,64.4673 501.901,58.4673 515.5,53C 532.859,42.6561 549.526,31.3227 565.5,19C 572.747,13.5888 578.747,7.08877 583.5,-0.5 Z"/></g>
<g><path style="opacity:1" fill="#010001" d="M 240.5,93.5 C 243.876,96.8419 247.209,100.175 250.5,103.5C 250.608,105.783 251.441,107.783 253,109.5C 254.229,123.24 257.896,136.24 264,148.5C 268.956,165.612 274.29,182.612 280,199.5C 292.21,223.585 305.21,247.251 319,270.5C 323.623,276.792 328.623,282.792 334,288.5C 336.548,269.243 338.048,249.91 338.5,230.5C 338.5,229.5 338.5,228.5 338.5,227.5C 338.5,225.167 338.5,222.833 338.5,220.5C 338.5,216.833 338.5,213.167 338.5,209.5C 337.851,205.049 336.684,200.716 335,196.5C 320.276,169.387 303.776,143.387 285.5,118.5C 282.576,114.398 282.076,110.064 284,105.5C 289.224,101.305 295.058,98.3045 301.5,96.5C 307.727,94.9294 314.061,93.9294 320.5,93.5C 322.167,93.5 323.833,93.5 325.5,93.5C 340.558,93.1361 355.558,93.8028 370.5,95.5C 375.773,96.6008 381.106,97.2675 386.5,97.5C 391.816,98.2965 397.149,98.9631 402.5,99.5C 402.833,99.5 403.167,99.5 403.5,99.5C 421.717,102.08 440.05,104.08 458.5,105.5C 473.355,107.259 488.355,108.926 503.5,110.5C 528.689,113.649 554.023,116.815 579.5,120C 555.806,127.954 532.139,135.787 508.5,143.5C 502.468,144.731 496.801,146.731 491.5,149.5C 487.203,150.655 483.203,152.321 479.5,154.5C 440.247,169.366 409.747,194.699 388,230.5C 385.597,234.635 383.763,238.968 382.5,243.5C 380.707,245.426 379.707,247.759 379.5,250.5C 378.463,251.93 377.796,253.597 377.5,255.5C 376.076,257.515 375.41,259.848 375.5,262.5C 374.596,263.209 374.263,264.209 374.5,265.5C 372.898,269.239 371.898,273.239 371.5,277.5C 367.267,307.198 358.601,335.531 345.5,362.5C 343.992,364.181 342.992,366.181 342.5,368.5C 341.662,368.842 341.328,369.508 341.5,370.5C 340.026,371.436 339.026,372.77 338.5,374.5C 338.5,374.833 338.5,375.167 338.5,375.5C 337.026,376.436 336.026,377.77 335.5,379.5C 334.833,380.5 334.167,381.5 333.5,382.5C 332.248,384.001 331.248,385.668 330.5,387.5C 329.026,388.436 328.026,389.77 327.5,391.5C 303.921,422.082 274.921,446.082 240.5,463.5C 236.849,464.659 233.515,466.326 230.5,468.5C 222.506,471.496 214.506,474.496 206.5,477.5C 201.421,478.971 196.421,480.637 191.5,482.5C 180.726,485.193 170.059,487.86 159.5,490.5C 153.614,490.98 147.948,491.98 142.5,493.5C 136.979,493.782 131.646,494.449 126.5,495.5C 122.766,495.323 119.099,495.656 115.5,496.5C 107.299,496.517 99.2992,497.183 91.5,498.5C 78.8289,498.667 66.1623,498.5 53.5,498C 44.3949,497.472 39.0616,492.805 37.5,484C 40.0455,476.028 45.3788,470.694 53.5,468C 58.077,466.356 62.7436,465.022 67.5,464C 96.2845,460.516 124.951,456.349 153.5,451.5C 158.996,450.371 164.329,449.037 169.5,447.5C 173.251,446.79 176.918,445.79 180.5,444.5C 185.225,443.369 189.892,442.036 194.5,440.5C 199.323,439.226 203.99,437.559 208.5,435.5C 230.824,428.004 251.824,417.838 271.5,405C 278,399.833 283.833,394 289,387.5C 293.302,379.975 291.802,373.808 284.5,369C 281.167,367 277.833,365 274.5,363C 256.375,356.403 238.042,350.403 219.5,345C 201.784,338.313 185.451,329.313 170.5,318C 161.167,310 151.833,302 142.5,294C 128.633,279.301 114.633,264.801 100.5,250.5C 97.5422,245.874 93.8755,241.874 89.5,238.5C 87.823,236.46 86.1563,234.46 84.5,232.5C 82.8333,230.167 80.8333,228.167 78.5,226.5C 75.9587,222.748 72.9587,219.415 69.5,216.5C 67.5,214.167 65.5,211.833 63.5,209.5C 63.44,208.957 63.1067,208.624 62.5,208.5C 61.1997,211.309 61.1997,213.976 62.5,216.5C 62.9662,225.494 63.2996,234.494 63.5,243.5C 64.5653,265.184 66.0653,286.85 68,308.5C 69.0306,326.962 76.1973,342.462 89.5,355C 98.4443,361.782 107.778,367.948 117.5,373.5C 123.142,378.137 128.809,382.803 134.5,387.5C 139.541,392.374 144.041,397.708 148,403.5C 149.337,407.026 149.837,410.692 149.5,414.5C 148.323,417.175 146.323,419.008 143.5,420C 137.442,420.739 131.442,420.406 125.5,419C 90.7579,404.256 62.5912,381.423 41,350.5C 31.3261,333.141 26.3261,314.475 26,294.5C 24.0071,259.697 27.0071,225.364 35,191.5C 37.9795,180.889 42.3129,170.889 48,161.5C 50.3789,157.62 53.5456,154.62 57.5,152.5C 60.2457,150.874 63.2457,150.207 66.5,150.5C 68.2838,150.893 69.9505,151.559 71.5,152.5C 73.8838,154.885 76.5505,156.885 79.5,158.5C 98.1383,177.97 114.305,199.303 128,222.5C 144.278,243.612 162.778,262.612 183.5,279.5C 184.349,276.19 184.182,272.856 183,269.5C 178.7,258.982 174.7,248.315 171,237.5C 169.648,232.075 168.815,226.575 168.5,221C 167.655,201.263 170.322,182.097 176.5,163.5C 178.405,159.784 179.739,155.784 180.5,151.5C 181.451,150.081 181.784,148.415 181.5,146.5C 182.795,144.021 183.795,141.354 184.5,138.5C 185.219,136.236 185.552,133.903 185.5,131.5C 186.674,130.486 187.34,129.153 187.5,127.5C 189.204,124.744 190.537,121.744 191.5,118.5C 193.975,116.23 195.975,113.563 197.5,110.5C 205.206,102.32 214.206,95.8203 224.5,91C 230.051,90.4772 235.385,91.3105 240.5,93.5 Z"/></g>
<g><path style="opacity:1" fill="#fea4d9" d="M 66.5,150.5 C 63.2457,150.207 60.2457,150.874 57.5,152.5C 54.7163,146.549 50.383,142.049 44.5,139C 29.6732,135.519 14.6732,133.019 -0.5,131.5C -0.5,127.833 -0.5,124.167 -0.5,120.5C 12.7148,121.364 25.7148,120.197 38.5,117C 45.7879,112.013 53.7879,109.68 62.5,110C 63.1905,111.067 63.6905,112.234 64,113.5C 64.4665,125.865 65.2998,138.198 66.5,150.5 Z"/></g>
<g><path style="opacity:1" fill="#2cdcd9" d="M 350.5,125.5 C 360.64,124.958 370.64,125.791 380.5,128C 395.491,135.095 398.658,145.929 390,160.5C 384.236,169.1 377.069,176.1 368.5,181.5C 360.805,165.781 352.305,150.448 343,135.5C 342.333,133.833 342.333,132.167 343,130.5C 345.17,128.177 347.67,126.51 350.5,125.5 Z"/></g>
<g><path style="opacity:0.999" fill="#9bdcdb" d="M 250.5,103.5 C 252.977,107.101 255.477,110.767 258,114.5C 275.125,147.42 293.792,179.42 314,210.5C 319.995,219.328 327.495,226.661 336.5,232.5C 337.182,231.757 337.849,231.091 338.5,230.5C 338.048,249.91 336.548,269.243 334,288.5C 328.623,282.792 323.623,276.792 319,270.5C 305.21,247.251 292.21,223.585 280,199.5C 274.29,182.612 268.956,165.612 264,148.5C 257.896,136.24 254.229,123.24 253,109.5C 251.441,107.783 250.608,105.783 250.5,103.5 Z"/></g>
<g><path style="opacity:1" fill="#fe94d3" d="M -0.5,131.5 C 14.6732,133.019 29.6732,135.519 44.5,139C 50.383,142.049 54.7163,146.549 57.5,152.5C 53.5456,154.62 50.3789,157.62 48,161.5C 42.3129,170.889 37.9795,180.889 35,191.5C 27.0071,225.364 24.0071,259.697 26,294.5C 26.3261,314.475 31.3261,333.141 41,350.5C 62.5912,381.423 90.7579,404.256 125.5,419C 131.442,420.406 137.442,420.739 143.5,420C 146.323,419.008 148.323,417.175 149.5,414.5C 152.532,418.181 155.365,422.181 158,426.5C 160.22,430.595 160.887,434.928 160,439.5C 158.063,443.714 155.896,447.714 153.5,451.5C 124.951,456.349 96.2845,460.516 67.5,464C 62.7436,465.022 58.077,466.356 53.5,468C 45.3788,470.694 40.0455,476.028 37.5,484C 39.0616,492.805 44.3949,497.472 53.5,498C 66.1623,498.5 78.8289,498.667 91.5,498.5C 92.552,498.351 93.552,498.517 94.5,499C 62.9467,518.06 31.28,536.893 -0.5,555.5C -0.5,414.167 -0.5,272.833 -0.5,131.5 Z"/></g>
<g><path style="opacity:1" fill="#00d3ce" d="M 508.5,143.5 C 510.927,143.523 513.26,144.023 515.5,145C 543.064,162.982 571.064,180.815 599.5,198.5C 599.5,204.833 599.5,211.167 599.5,217.5C 577.264,203.277 555.264,188.611 533.5,173.5C 519.505,165.502 505.505,157.502 491.5,149.5C 496.801,146.731 502.468,144.731 508.5,143.5 Z"/></g>
<g><path style="opacity:1" fill="#06dbd8" d="M 491.5,149.5 C 505.505,157.502 519.505,165.502 533.5,173.5C 555.264,188.611 577.264,203.277 599.5,217.5C 599.5,222.5 599.5,227.5 599.5,232.5C 598.265,232.279 597.265,231.612 596.5,230.5C 595.914,230.709 595.414,231.043 595,231.5C 592.667,229.167 590.333,226.833 588,224.5C 587.667,224.833 587.333,225.167 587,225.5C 586.74,223.382 585.74,221.716 584,220.5C 583.667,221.167 583.333,221.833 583,222.5C 578.69,219.174 574.357,215.84 570,212.5C 569.667,212.833 569.333,213.167 569,213.5C 564.606,208.379 559.106,204.879 552.5,203C 551.167,201.333 549.833,199.667 548.5,198C 541.841,196.531 536.341,193.031 532,187.5C 531.667,187.833 531.333,188.167 531,188.5C 529.833,186.667 528.333,185.167 526.5,184C 521.902,181.73 517.569,179.063 513.5,176C 514.167,175.667 514.833,175.333 515.5,175C 507.804,169.238 499.638,165.071 491,162.5C 487.225,159.7 483.392,157.034 479.5,154.5C 483.203,152.321 487.203,150.655 491.5,149.5 Z"/></g>
<g><path style="opacity:0.987" fill="#46ddda" d="M 285.5,118.5 C 303.776,143.387 320.276,169.387 335,196.5C 336.684,200.716 337.851,205.049 338.5,209.5C 333.157,204.319 328.323,198.652 324,192.5C 308.963,169.604 294.796,146.104 281.5,122C 283.35,121.31 284.684,120.144 285.5,118.5 Z"/></g>
<g><path style="opacity:0.999" fill="#2eddda" d="M 479.5,154.5 C 483.392,157.034 487.225,159.7 491,162.5C 499.638,165.071 507.804,169.238 515.5,175C 514.833,175.333 514.167,175.667 513.5,176C 517.569,179.063 521.902,181.73 526.5,184C 528.333,185.167 529.833,186.667 531,188.5C 531.333,188.167 531.667,187.833 532,187.5C 536.341,193.031 541.841,196.531 548.5,198C 549.833,199.667 551.167,201.333 552.5,203C 559.106,204.879 564.606,208.379 569,213.5C 569.333,213.167 569.667,212.833 570,212.5C 574.357,215.84 578.69,219.174 583,222.5C 583.333,221.833 583.667,221.167 584,220.5C 585.74,221.716 586.74,223.382 587,225.5C 587.333,225.167 587.667,224.833 588,224.5C 590.333,226.833 592.667,229.167 595,231.5C 595.414,231.043 595.914,230.709 596.5,230.5C 597.265,231.612 598.265,232.279 599.5,232.5C 599.5,288.5 599.5,344.5 599.5,400.5C 591.689,405.241 583.689,409.741 575.5,414C 571.167,416 566.833,416 562.5,414C 552.349,404.091 540.349,397.591 526.5,394.5C 522.341,394.669 517.841,394.669 513,394.5C 505.936,396.609 499.103,396.442 492.5,394C 485.238,386.802 479.071,379.302 474,371.5C 465.868,359.402 457.368,347.569 448.5,336C 444.311,328.38 438.978,321.047 432.5,314C 427.292,304.214 420.626,295.047 412.5,286.5C 411.902,285.205 411.402,283.872 411,282.5C 401.203,269.543 391.703,256.543 382.5,243.5C 383.763,238.968 385.597,234.635 388,230.5C 409.747,194.699 440.247,169.366 479.5,154.5 Z"/></g>
<g><path style="opacity:1" fill="#fd98d5" d="M 63.5,209.5 C 65.5,211.833 67.5,214.167 69.5,216.5C 72.1406,228.535 74.974,240.535 78,252.5C 87.0901,276.504 95.4234,300.837 103,325.5C 113.863,345.896 124.696,366.23 135.5,386.5C 135.376,387.107 135.043,387.44 134.5,387.5C 128.809,382.803 123.142,378.137 117.5,373.5C 114.489,366.667 111.489,360.167 108.5,354C 99.2353,341.131 92.2353,327.464 87.5,313C 87.8333,312.667 88.1667,312.333 88.5,312C 80.5112,291.709 73.3445,270.543 67,248.5C 66.2635,246.404 65.0968,244.737 63.5,243.5C 63.2996,234.494 62.9662,225.494 62.5,216.5C 62.1984,213.941 62.5318,211.607 63.5,209.5 Z"/></g>
<g><path style="opacity:1" fill="#874e70" d="M 63.5,209.5 C 62.5318,211.607 62.1984,213.941 62.5,216.5C 61.1997,213.976 61.1997,211.309 62.5,208.5C 63.1067,208.624 63.44,208.957 63.5,209.5 Z"/></g>
<g><path style="opacity:1" fill="#fc9dd6" d="M 69.5,216.5 C 72.9587,219.415 75.9587,222.748 78.5,226.5C 78.3033,231.519 79.3033,236.519 81.5,241.5C 89.4384,269.814 98.2717,297.814 108,325.5C 125.863,359.554 144.53,393.221 164,426.5C 167.807,432.4 168.974,438.733 167.5,445.5C 167.747,446.713 168.414,447.38 169.5,447.5C 164.329,449.037 158.996,450.371 153.5,451.5C 155.896,447.714 158.063,443.714 160,439.5C 160.887,434.928 160.22,430.595 158,426.5C 155.365,422.181 152.532,418.181 149.5,414.5C 149.837,410.692 149.337,407.026 148,403.5C 144.041,397.708 139.541,392.374 134.5,387.5C 135.043,387.44 135.376,387.107 135.5,386.5C 124.696,366.23 113.863,345.896 103,325.5C 95.4234,300.837 87.0901,276.504 78,252.5C 74.974,240.535 72.1406,228.535 69.5,216.5 Z"/></g>
<g><path style="opacity:1" fill="#fda5da" d="M 78.5,226.5 C 80.8333,228.167 82.8333,230.167 84.5,232.5C 83.9859,233.625 83.6526,234.791 83.5,236C 91.6937,265.035 100.86,294.202 111,323.5C 124.435,347.267 137.435,371.267 150,395.5C 159.599,412.249 169.766,428.582 180.5,444.5C 176.918,445.79 173.251,446.79 169.5,447.5C 168.414,447.38 167.747,446.713 167.5,445.5C 168.974,438.733 167.807,432.4 164,426.5C 144.53,393.221 125.863,359.554 108,325.5C 98.2717,297.814 89.4384,269.814 81.5,241.5C 79.3033,236.519 78.3033,231.519 78.5,226.5 Z"/></g>
<g><path style="opacity:1" fill="#feabdc" d="M 84.5,232.5 C 86.1563,234.46 87.823,236.46 89.5,238.5C 90.0259,242.943 91.3592,247.443 93.5,252C 93.0426,252.414 92.7093,252.914 92.5,253.5C 97.7407,270.061 102.907,286.727 108,303.5C 110.729,311.75 114.063,319.75 118,327.5C 134.9,358.735 152.233,389.735 170,420.5C 172.713,424.092 175.547,427.592 178.5,431C 183.732,434.445 189.065,437.611 194.5,440.5C 189.892,442.036 185.225,443.369 180.5,444.5C 169.766,428.582 159.599,412.249 150,395.5C 137.435,371.267 124.435,347.267 111,323.5C 100.86,294.202 91.6937,265.035 83.5,236C 83.6526,234.791 83.9859,233.625 84.5,232.5 Z"/></g>
<g><path style="opacity:0.98" fill="#e7c3e0" d="M 219.5,226.5 C 227.769,241.649 235.936,256.983 244,272.5C 254.381,289.846 265.214,306.846 276.5,323.5C 276.167,323.5 275.833,323.5 275.5,323.5C 271.878,323.678 268.544,323.011 265.5,321.5C 266.376,321.631 267.043,321.298 267.5,320.5C 250.553,293.533 234.553,266.533 219.5,239.5C 219.5,235.167 219.5,230.833 219.5,226.5 Z"/></g>
<g><path style="opacity:0.957" fill="#d8cae0" d="M 219.5,214.5 C 224.077,223.017 228.577,231.684 233,240.5C 235.793,246.303 238.126,252.303 240,258.5C 242.345,260.514 244.345,262.847 246,265.5C 251.102,274.929 256.602,284.095 262.5,293C 262.043,293.414 261.709,293.914 261.5,294.5C 267.449,304.225 273.783,313.725 280.5,323C 279.207,323.49 277.873,323.657 276.5,323.5C 265.214,306.846 254.381,289.846 244,272.5C 235.936,256.983 227.769,241.649 219.5,226.5C 219.5,222.5 219.5,218.5 219.5,214.5 Z"/></g>
<g><path style="opacity:1" fill="#fdb1de" d="M 89.5,238.5 C 93.8755,241.874 97.5422,245.874 100.5,250.5C 99.9033,250.735 99.5699,251.235 99.5,252C 104.723,266.569 109.723,281.569 114.5,297C 114.265,297.873 113.931,298.707 113.5,299.5C 130.14,333.04 148.306,365.707 168,397.5C 172.522,406.712 177.689,415.545 183.5,424C 191.384,428.944 199.718,432.778 208.5,435.5C 203.99,437.559 199.323,439.226 194.5,440.5C 189.065,437.611 183.732,434.445 178.5,431C 175.547,427.592 172.713,424.092 170,420.5C 152.233,389.735 134.9,358.735 118,327.5C 114.063,319.75 110.729,311.75 108,303.5C 102.907,286.727 97.7407,270.061 92.5,253.5C 92.7093,252.914 93.0426,252.414 93.5,252C 91.3592,247.443 90.0259,242.943 89.5,238.5 Z"/></g>
<g><path style="opacity:1" fill="#fb92d1" d="M 63.5,243.5 C 65.0968,244.737 66.2635,246.404 67,248.5C 73.3445,270.543 80.5112,291.709 88.5,312C 88.1667,312.333 87.8333,312.667 87.5,313C 92.2353,327.464 99.2353,341.131 108.5,354C 111.489,360.167 114.489,366.667 117.5,373.5C 107.778,367.948 98.4443,361.782 89.5,355C 76.1973,342.462 69.0306,326.962 68,308.5C 66.0653,286.85 64.5653,265.184 63.5,243.5 Z"/></g>
<g><path style="opacity:0.996" fill="#f4bee1" d="M 219.5,239.5 C 234.553,266.533 250.553,293.533 267.5,320.5C 267.043,321.298 266.376,321.631 265.5,321.5C 262.572,321.435 259.905,320.768 257.5,319.5C 245.988,299.503 234.155,279.503 222,259.5C 221.292,258.619 220.458,257.953 219.5,257.5C 219.5,251.5 219.5,245.5 219.5,239.5 Z"/></g>
<g><path style="opacity:0.999" fill="#4dddda" d="M 382.5,243.5 C 391.703,256.543 401.203,269.543 411,282.5C 411.402,283.872 411.902,285.205 412.5,286.5C 420.626,295.047 427.292,304.214 432.5,314C 438.978,321.047 444.311,328.38 448.5,336C 457.368,347.569 465.868,359.402 474,371.5C 479.071,379.302 485.238,386.802 492.5,394C 499.103,396.442 505.936,396.609 513,394.5C 517.841,394.669 522.341,394.669 526.5,394.5C 540.349,397.591 552.349,404.091 562.5,414C 566.833,416 571.167,416 575.5,414C 583.689,409.741 591.689,405.241 599.5,400.5C 599.5,403.167 599.5,405.833 599.5,408.5C 590.063,413.052 580.73,417.886 571.5,423C 566.994,425.126 562.661,424.793 558.5,422C 550.614,414.558 541.614,408.891 531.5,405C 521.732,403.049 512.066,403.215 502.5,405.5C 497.811,405.659 493.478,404.493 489.5,402C 482.21,393.902 475.043,385.736 468,377.5C 452.94,355.437 438.274,333.104 424,310.5C 418.644,306.809 414.978,301.809 413,295.5C 408.165,293.332 405.165,289.666 404,284.5C 399.359,277.531 394.026,271.197 388,265.5C 386.159,261.817 383.826,258.484 381,255.5C 379.991,253.975 379.491,252.308 379.5,250.5C 379.707,247.759 380.707,245.426 382.5,243.5 Z"/></g>
<g><path style="opacity:1" fill="#fdb9e1" d="M 100.5,250.5 C 114.633,264.801 128.633,279.301 142.5,294C 151.833,302 161.167,310 170.5,318C 185.451,329.313 201.784,338.313 219.5,345C 238.042,350.403 256.375,356.403 274.5,363C 277.833,365 281.167,367 284.5,369C 291.802,373.808 293.302,379.975 289,387.5C 283.833,394 278,399.833 271.5,405C 251.824,417.838 230.824,428.004 208.5,435.5C 199.718,432.778 191.384,428.944 183.5,424C 177.689,415.545 172.522,406.712 168,397.5C 148.306,365.707 130.14,333.04 113.5,299.5C 113.931,298.707 114.265,297.873 114.5,297C 109.723,281.569 104.723,266.569 99.5,252C 99.5699,251.235 99.9033,250.735 100.5,250.5 Z"/></g>
<g><path style="opacity:0.91" fill="#aed8dd" d="M 219.5,190.5 C 234.685,223.205 251.185,255.205 269,286.5C 277.031,299.862 286.531,312.195 297.5,323.5C 295.393,324.468 293.059,324.802 290.5,324.5C 279.076,309.553 268.576,293.887 259,277.5C 245.054,252.608 231.887,227.275 219.5,201.5C 219.5,197.833 219.5,194.167 219.5,190.5 Z"/></g>
<g><path style="opacity:1" fill="#fabae0" d="M 219.5,257.5 C 220.458,257.953 221.292,258.619 222,259.5C 234.155,279.503 245.988,299.503 257.5,319.5C 246.402,316.638 236.068,312.138 226.5,306C 222.892,290.029 220.558,273.862 219.5,257.5 Z"/></g>
<g><path style="opacity:0.981" fill="#a0dcdc" d="M 297.5,323.5 C 286.531,312.195 277.031,299.862 269,286.5C 251.185,255.205 234.685,223.205 219.5,190.5C 218.988,175.584 221.488,161.251 227,147.5C 230.462,166.602 234.462,185.602 239,204.5C 241.735,213.704 245.069,222.704 249,231.5C 250.418,240.104 252.751,248.438 256,256.5C 263.894,265.274 271.56,274.274 279,283.5C 284.376,288.706 290.209,293.373 296.5,297.5C 302.464,304.799 308.797,311.799 315.5,318.5C 310.084,322.193 304.084,323.86 297.5,323.5 Z"/></g>
<g><path style="opacity:0.997" fill="#82dddb" d="M 375.5,262.5 C 386.935,280.782 399.768,298.116 414,314.5C 434.667,343.167 455.333,371.833 476,400.5C 480.315,405.982 485.149,410.982 490.5,415.5C 492.573,416.469 494.739,417.135 497,417.5C 505.518,415.72 513.851,414.386 522,413.5C 533.528,414.932 542.861,420.266 550,429.5C 552.184,434.589 553.517,439.922 554,445.5C 560.162,447.849 566.662,447.682 573.5,445C 582.328,440.311 590.995,435.478 599.5,430.5C 599.5,432.5 599.5,434.5 599.5,436.5C 585.805,444.018 572.472,452.184 559.5,461C 555.142,463.86 550.476,465.527 545.5,466C 544.541,464.293 543.875,462.459 543.5,460.5C 547.371,451.044 548.205,441.378 546,431.5C 537.386,420.627 526.219,416.46 512.5,419C 507.381,420.373 502.214,421.54 497,422.5C 492.078,421.789 487.911,419.622 484.5,416C 460.149,384.8 436.649,352.966 414,320.5C 400.951,304.453 388.284,288.119 376,271.5C 374.872,269.655 374.372,267.655 374.5,265.5C 374.263,264.209 374.596,263.209 375.5,262.5 Z"/></g>
<g><path style="opacity:0.901" fill="#cacdde" d="M 219.5,211.5 C 220.496,211.414 221.329,211.748 222,212.5C 227.446,222.054 231.779,232.054 235,242.5C 237.921,247.341 240.588,252.341 243,257.5C 244,258.167 245,258.833 246,259.5C 256.668,283.249 270.168,304.916 286.5,324.5C 282.629,324.815 278.962,324.482 275.5,323.5C 275.833,323.5 276.167,323.5 276.5,323.5C 277.873,323.657 279.207,323.49 280.5,323C 273.783,313.725 267.449,304.225 261.5,294.5C 261.709,293.914 262.043,293.414 262.5,293C 256.602,284.095 251.102,274.929 246,265.5C 244.345,262.847 242.345,260.514 240,258.5C 238.126,252.303 235.793,246.303 233,240.5C 228.577,231.684 224.077,223.017 219.5,214.5C 219.5,213.5 219.5,212.5 219.5,211.5 Z"/></g>
<g><path style="opacity:0.998" fill="#90dcdc" d="M 374.5,265.5 C 374.372,267.655 374.872,269.655 376,271.5C 388.284,288.119 400.951,304.453 414,320.5C 436.649,352.966 460.149,384.8 484.5,416C 487.911,419.622 492.078,421.789 497,422.5C 502.214,421.54 507.381,420.373 512.5,419C 526.219,416.46 537.386,420.627 546,431.5C 548.205,441.378 547.371,451.044 543.5,460.5C 543.875,462.459 544.541,464.293 545.5,466C 550.476,465.527 555.142,463.86 559.5,461C 572.472,452.184 585.805,444.018 599.5,436.5C 599.5,440.5 599.5,444.5 599.5,448.5C 579.581,454.958 561.248,464.292 544.5,476.5C 540.91,477.628 537.577,479.295 534.5,481.5C 533.054,480.829 532.388,479.662 532.5,478C 535.442,467.176 538.775,456.509 542.5,446C 542.481,443.031 542.314,439.865 542,436.5C 535.606,425.881 526.44,421.715 514.5,424C 508.432,426.246 502.266,428.079 496,429.5C 493.7,429.506 491.534,429.006 489.5,428C 480.614,419.115 472.448,409.615 465,399.5C 435.822,357.986 405.489,317.32 374,277.5C 373.23,276.402 372.397,276.402 371.5,277.5C 371.898,273.239 372.898,269.239 374.5,265.5 Z"/></g>
<g><path style="opacity:0.999" fill="#9ddddc" d="M 544.5,476.5 C 538.833,482.5 533.167,488.5 527.5,494.5C 527.167,494.5 526.833,494.5 526.5,494.5C 524.863,493.782 523.197,493.616 521.5,494C 513.178,502.037 503.678,507.87 493,511.5C 487.481,508.549 481.648,506.382 475.5,505C 469.122,502.419 462.789,499.086 456.5,495C 441.228,481.306 426.728,466.806 413,451.5C 394.021,428.246 375.021,404.912 356,381.5C 353.059,376.228 349.726,371.228 346,366.5C 345.51,365.207 345.343,363.873 345.5,362.5C 358.601,335.531 367.267,307.198 371.5,277.5C 372.397,276.402 373.23,276.402 374,277.5C 405.489,317.32 435.822,357.986 465,399.5C 472.448,409.615 480.614,419.115 489.5,428C 491.534,429.006 493.7,429.506 496,429.5C 502.266,428.079 508.432,426.246 514.5,424C 526.44,421.715 535.606,425.881 542,436.5C 542.314,439.865 542.481,443.031 542.5,446C 538.775,456.509 535.442,467.176 532.5,478C 532.388,479.662 533.054,480.829 534.5,481.5C 537.577,479.295 540.91,477.628 544.5,476.5 Z"/></g>
<g><path style="opacity:0.94" fill="#bed3de" d="M 219.5,201.5 C 231.887,227.275 245.054,252.608 259,277.5C 268.576,293.887 279.076,309.553 290.5,324.5C 289.167,324.5 287.833,324.5 286.5,324.5C 270.168,304.916 256.668,283.249 246,259.5C 245,258.833 244,258.167 243,257.5C 240.588,252.341 237.921,247.341 235,242.5C 231.779,232.054 227.446,222.054 222,212.5C 221.329,211.748 220.496,211.414 219.5,211.5C 219.5,208.167 219.5,204.833 219.5,201.5 Z"/></g>
<g><path style="opacity:0.986" fill="#a5dbdc" d="M 345.5,362.5 C 345.343,363.873 345.51,365.207 346,366.5C 349.726,371.228 353.059,376.228 356,381.5C 375.021,404.912 394.021,428.246 413,451.5C 426.728,466.806 441.228,481.306 456.5,495C 462.789,499.086 469.122,502.419 475.5,505C 481.648,506.382 487.481,508.549 493,511.5C 503.678,507.87 513.178,502.037 521.5,494C 523.197,493.616 524.863,493.782 526.5,494.5C 520.972,502.032 513.972,507.699 505.5,511.5C 504.256,516.246 501.256,517.579 496.5,515.5C 495.808,516.025 495.308,516.692 495,517.5C 492.417,516.126 489.917,514.626 487.5,513C 473.713,508.873 461.046,502.54 449.5,494C 438.34,483.206 427.506,472.04 417,460.5C 397.591,437.268 378.425,413.935 359.5,390.5C 352.693,384.029 347.026,376.695 342.5,368.5C 342.992,366.181 343.992,364.181 345.5,362.5 Z"/></g>
<g><path style="opacity:0.986" fill="#b2d7dd" d="M 342.5,368.5 C 347.026,376.695 352.693,384.029 359.5,390.5C 359.709,391.922 360.209,393.255 361,394.5C 387.148,427.969 414.648,460.136 443.5,491C 447.167,494 450.833,497 454.5,500C 466.888,506.861 479.554,513.194 492.5,519C 496.536,519.85 500.369,519.35 504,517.5C 504.414,517.957 504.914,518.291 505.5,518.5C 510.217,514.942 515.05,511.608 520,508.5C 520.333,508.833 520.667,509.167 521,509.5C 521.065,507.117 521.898,506.45 523.5,507.5C 524.192,506.975 524.692,506.308 525,505.5C 525.667,506.833 526.333,506.833 527,505.5C 529.37,508.039 531.87,510.372 534.5,512.5C 533.312,513.364 532.145,514.364 531,515.5C 529.927,519.084 529.26,522.75 529,526.5C 527.762,521.496 524.595,518.996 519.5,519C 519.002,517.842 518.169,517.009 517,516.5C 512.839,520.249 508.173,523.249 503,525.5C 502.041,523.342 500.541,523.009 498.5,524.5C 482.989,518.05 467.989,510.55 453.5,502C 449.475,498.637 445.475,495.304 441.5,492C 433.8,484.16 426.133,476.327 418.5,468.5C 403.984,453.821 391.151,437.821 380,420.5C 375.973,415.806 371.64,411.473 367,407.5C 366.751,404.823 365.751,402.49 364,400.5C 358.85,394.862 354.183,388.862 350,382.5C 345.435,379.695 342.601,375.695 341.5,370.5C 341.328,369.508 341.662,368.842 342.5,368.5 Z"/></g>
<g><path style="opacity:0.997" fill="#e3c5e0" d="M 335.5,379.5 C 355.518,406.199 376.018,432.532 397,458.5C 398.129,460.141 399.629,461.141 401.5,461.5C 416.608,483.442 434.941,502.275 456.5,518C 464.324,521.745 471.991,525.745 479.5,530C 490.985,540.188 500.152,552.021 507,565.5C 512.475,576.777 517.641,588.11 522.5,599.5C 521.833,599.5 521.167,599.5 520.5,599.5C 513.285,582.062 504.452,565.396 494,549.5C 491,545.833 488,542.167 485,538.5C 481.5,535.667 478,532.833 474.5,530C 455.298,521.978 438.798,510.145 425,494.5C 393.621,457.947 363.121,420.614 333.5,382.5C 334.167,381.5 334.833,380.5 335.5,379.5 Z"/></g>
<g><path style="opacity:0.998" fill="#edc1e0" d="M 333.5,382.5 C 363.121,420.614 393.621,457.947 425,494.5C 438.798,510.145 455.298,521.978 474.5,530C 478,532.833 481.5,535.667 485,538.5C 488,542.167 491,545.833 494,549.5C 504.452,565.396 513.285,582.062 520.5,599.5C 519.167,599.5 517.833,599.5 516.5,599.5C 509.189,582.246 499.689,565.913 488,550.5C 478.362,539.686 466.862,531.52 453.5,526C 444.73,519.617 435.563,512.117 426,503.5C 407.735,482.71 390.068,462.043 373,441.5C 359,423.338 344.834,405.338 330.5,387.5C 331.248,385.668 332.248,384.001 333.5,382.5 Z"/></g>
<g><path style="opacity:0.999" fill="#75dddb" d="M 377.5,255.5 C 379.724,260.913 382.224,266.246 385,271.5C 388.059,275.228 390.726,279.228 393,283.5C 420.576,318.351 446.91,354.018 472,390.5C 477.582,397.805 483.748,404.639 490.5,411C 493.884,412.177 497.051,413.01 500,413.5C 524.931,405.752 544.431,412.752 558.5,434.5C 559.833,434.833 561.167,435.167 562.5,435.5C 575.371,432.23 587.704,427.564 599.5,421.5C 599.5,424.5 599.5,427.5 599.5,430.5C 590.995,435.478 582.328,440.311 573.5,445C 566.662,447.682 560.162,447.849 554,445.5C 553.517,439.922 552.184,434.589 550,429.5C 542.861,420.266 533.528,414.932 522,413.5C 513.851,414.386 505.518,415.72 497,417.5C 494.739,417.135 492.573,416.469 490.5,415.5C 485.149,410.982 480.315,405.982 476,400.5C 455.333,371.833 434.667,343.167 414,314.5C 399.768,298.116 386.935,280.782 375.5,262.5C 375.41,259.848 376.076,257.515 377.5,255.5 Z"/></g>
<g><path style="opacity:0.994" fill="#f6bee1" d="M 330.5,387.5 C 344.834,405.338 359,423.338 373,441.5C 390.068,462.043 407.735,482.71 426,503.5C 435.563,512.117 444.73,519.617 453.5,526C 466.862,531.52 478.362,539.686 488,550.5C 499.689,565.913 509.189,582.246 516.5,599.5C 515.833,599.5 515.167,599.5 514.5,599.5C 513.286,595.474 511.286,591.474 508.5,587.5C 501.104,574.706 491.937,562.706 481,551.5C 480.667,550.5 480.333,549.5 480,548.5C 474.634,544.298 469.134,540.298 463.5,536.5C 461.48,534.97 459.48,534.303 457.5,534.5C 456.749,533.624 456.249,532.624 456,531.5C 455,531.5 454,531.5 453,531.5C 438.067,522.204 425.734,510.87 416,497.5C 394.772,473.652 374.439,449.985 355,426.5C 351.136,419.015 346.136,412.682 340,407.5C 337.746,403.407 335.079,399.073 332,394.5C 330.871,392.859 329.371,391.859 327.5,391.5C 328.026,389.77 329.026,388.436 330.5,387.5 Z"/></g>
<g><path style="opacity:0.995" fill="#fdbae1" d="M 327.5,391.5 C 329.371,391.859 330.871,392.859 332,394.5C 335.079,399.073 337.746,403.407 340,407.5C 346.136,412.682 351.136,419.015 355,426.5C 374.439,449.985 394.772,473.652 416,497.5C 425.734,510.87 438.067,522.204 453,531.5C 454,531.5 455,531.5 456,531.5C 456.249,532.624 456.749,533.624 457.5,534.5C 459.48,534.303 461.48,534.97 463.5,536.5C 469.134,540.298 474.634,544.298 480,548.5C 480.333,549.5 480.667,550.5 481,551.5C 491.937,562.706 501.104,574.706 508.5,587.5C 511.286,591.474 513.286,595.474 514.5,599.5C 448.833,599.5 383.167,599.5 317.5,599.5C 306.151,584.734 292.984,571.068 278,558.5C 271.684,550.563 265.351,542.563 259,534.5C 257.601,531.637 256.601,528.637 256,525.5C 255.323,511.37 253.656,497.37 251,483.5C 249.581,478.238 247.581,473.238 245,468.5C 243.933,466.308 242.433,464.642 240.5,463.5C 274.921,446.082 303.921,422.082 327.5,391.5 Z"/></g>
<g><path style="opacity:1" fill="#65dddb" d="M 379.5,250.5 C 379.491,252.308 379.991,253.975 381,255.5C 383.826,258.484 386.159,261.817 388,265.5C 394.026,271.197 399.359,277.531 404,284.5C 405.165,289.666 408.165,293.332 413,295.5C 414.978,301.809 418.644,306.809 424,310.5C 438.274,333.104 452.94,355.437 468,377.5C 475.043,385.736 482.21,393.902 489.5,402C 493.478,404.493 497.811,405.659 502.5,405.5C 512.066,403.215 521.732,403.049 531.5,405C 541.614,408.891 550.614,414.558 558.5,422C 562.661,424.793 566.994,425.126 571.5,423C 580.73,417.886 590.063,413.052 599.5,408.5C 599.5,412.833 599.5,417.167 599.5,421.5C 587.704,427.564 575.371,432.23 562.5,435.5C 561.167,435.167 559.833,434.833 558.5,434.5C 544.431,412.752 524.931,405.752 500,413.5C 497.051,413.01 493.884,412.177 490.5,411C 483.748,404.639 477.582,397.805 472,390.5C 446.91,354.018 420.576,318.351 393,283.5C 390.726,279.228 388.059,275.228 385,271.5C 382.224,266.246 379.724,260.913 377.5,255.5C 377.796,253.597 378.463,251.93 379.5,250.5 Z"/></g>
<g><path style="opacity:0.99" fill="#dac9e0" d="M 338.5,375.5 C 342.028,384.547 347.528,392.214 355,398.5C 358.134,405.641 362.801,411.641 369,416.5C 369.892,419.952 371.558,422.952 374,425.5C 384.152,436.809 393.318,448.809 401.5,461.5C 399.629,461.141 398.129,460.141 397,458.5C 376.018,432.532 355.518,406.199 335.5,379.5C 336.026,377.77 337.026,376.436 338.5,375.5 Z"/></g>
<g><path style="opacity:0.996" fill="#9dd6dd" d="M 599.5,448.5 C 599.5,453.167 599.5,457.833 599.5,462.5C 592.434,467.561 585.101,472.228 577.5,476.5C 566.32,477.726 555.986,481.226 546.5,487C 542.821,487.787 539.154,488.621 535.5,489.5C 532.848,491.165 530.181,492.832 527.5,494.5C 533.167,488.5 538.833,482.5 544.5,476.5C 561.248,464.292 579.581,454.958 599.5,448.5 Z"/></g>
<g><path style="opacity:1" fill="#feb1de" d="M 240.5,463.5 C 242.433,464.642 243.933,466.308 245,468.5C 247.581,473.238 249.581,478.238 251,483.5C 253.656,497.37 255.323,511.37 256,525.5C 256.601,528.637 257.601,531.637 259,534.5C 265.351,542.563 271.684,550.563 278,558.5C 292.984,571.068 306.151,584.734 317.5,599.5C 313.833,599.5 310.167,599.5 306.5,599.5C 294.262,585.759 281.428,572.425 268,559.5C 262.636,552.809 257.303,546.142 252,539.5C 250.803,536.911 249.803,534.244 249,531.5C 247.037,519.093 244.704,506.76 242,494.5C 238.945,485.398 235.111,476.731 230.5,468.5C 233.515,466.326 236.849,464.659 240.5,463.5 Z"/></g>
<g><path style="opacity:1" fill="#fcabdb" d="M 230.5,468.5 C 235.111,476.731 238.945,485.398 242,494.5C 244.704,506.76 247.037,519.093 249,531.5C 249.803,534.244 250.803,536.911 252,539.5C 257.303,546.142 262.636,552.809 268,559.5C 281.428,572.425 294.262,585.759 306.5,599.5C 304.5,599.5 302.5,599.5 300.5,599.5C 287.922,585.419 274.755,571.752 261,558.5C 251.608,548.05 243.441,536.716 236.5,524.5C 235.372,523.738 234.205,523.071 233,522.5C 219.694,528.818 206.527,535.318 193.5,542C 168.584,560.945 143.917,580.112 119.5,599.5C 115.5,599.5 111.5,599.5 107.5,599.5C 134.431,578.687 161.431,557.853 188.5,537C 197.083,530.651 203.916,522.818 209,513.5C 212.004,505.74 213.504,497.906 213.5,490C 210.882,485.963 208.548,481.797 206.5,477.5C 214.506,474.496 222.506,471.496 230.5,468.5 Z"/></g>
<g><path style="opacity:0.996" fill="#a8d7dd" d="M 359.5,390.5 C 378.425,413.935 397.591,437.268 417,460.5C 427.506,472.04 438.34,483.206 449.5,494C 461.046,502.54 473.713,508.873 487.5,513C 489.917,514.626 492.417,516.126 495,517.5C 495.308,516.692 495.808,516.025 496.5,515.5C 501.256,517.579 504.256,516.246 505.5,511.5C 513.972,507.699 520.972,502.032 526.5,494.5C 526.833,494.5 527.167,494.5 527.5,494.5C 530.181,492.832 532.848,491.165 535.5,489.5C 539.154,488.621 542.821,487.787 546.5,487C 555.986,481.226 566.32,477.726 577.5,476.5C 562.086,485.237 548.752,496.57 537.5,510.5C 536.5,511.167 535.5,511.833 534.5,512.5C 531.87,510.372 529.37,508.039 527,505.5C 526.333,506.833 525.667,506.833 525,505.5C 524.692,506.308 524.192,506.975 523.5,507.5C 521.898,506.45 521.065,507.117 521,509.5C 520.667,509.167 520.333,508.833 520,508.5C 515.05,511.608 510.217,514.942 505.5,518.5C 504.914,518.291 504.414,517.957 504,517.5C 500.369,519.35 496.536,519.85 492.5,519C 479.554,513.194 466.888,506.861 454.5,500C 450.833,497 447.167,494 443.5,491C 414.648,460.136 387.148,427.969 361,394.5C 360.209,393.255 359.709,391.922 359.5,390.5 Z"/></g>
<g><path style="opacity:0.996" fill="#f5afdc" d="M 206.5,477.5 C 208.548,481.797 210.882,485.963 213.5,490C 213.504,497.906 212.004,505.74 209,513.5C 203.916,522.818 197.083,530.651 188.5,537C 161.431,557.853 134.431,578.687 107.5,599.5C 104.833,599.5 102.167,599.5 99.5,599.5C 119.697,583.147 140.364,567.314 161.5,552C 173.294,542.541 184.794,532.708 196,522.5C 202.512,514.632 205.178,505.632 204,495.5C 203.439,493.275 202.439,491.275 201,489.5C 197.777,486.999 194.61,484.666 191.5,482.5C 196.421,480.637 201.421,478.971 206.5,477.5 Z"/></g>
<g><path style="opacity:0.996" fill="#dbc9e0" d="M 401.5,461.5 C 403.628,463.403 405.961,465.069 408.5,466.5C 422.407,484.574 438.407,500.407 456.5,514C 470.87,519.383 483.37,527.549 494,538.5C 498.667,544.5 503.333,550.5 508,556.5C 513.937,570.817 519.771,585.15 525.5,599.5C 524.5,599.5 523.5,599.5 522.5,599.5C 517.641,588.11 512.475,576.777 507,565.5C 500.152,552.021 490.985,540.188 479.5,530C 471.991,525.745 464.324,521.745 456.5,518C 434.941,502.275 416.608,483.442 401.5,461.5 Z"/></g>
<g><path style="opacity:0.996" fill="#efb2db" d="M 191.5,482.5 C 194.61,484.666 197.777,486.999 201,489.5C 202.439,491.275 203.439,493.275 204,495.5C 205.178,505.632 202.512,514.632 196,522.5C 184.794,532.708 173.294,542.541 161.5,552C 140.364,567.314 119.697,583.147 99.5,599.5C 95.5,599.5 91.5,599.5 87.5,599.5C 109.61,583.599 131.61,567.432 153.5,551C 165.3,540.869 176.8,530.369 188,519.5C 189.709,516.582 191.542,513.748 193.5,511C 193.167,510.667 192.833,510.333 192.5,510C 195.074,504.117 193.907,498.95 189,494.5C 187.853,495.458 186.853,495.125 186,493.5C 183.031,493.519 179.865,493.686 176.5,494C 162.445,499.861 148.778,506.528 135.5,514C 101.296,534.263 68.2958,556.263 36.5,580C 32.0121,584.301 27.5121,588.468 23,592.5C 21.2765,594.717 19.7765,597.05 18.5,599.5C 12.1667,599.5 5.83333,599.5 -0.5,599.5C -0.5,598.833 -0.5,598.167 -0.5,597.5C 17.0608,583.778 35.0608,570.612 53.5,558C 89.8008,535.178 126.467,512.844 163.5,491C 162.207,490.51 160.873,490.343 159.5,490.5C 170.059,487.86 180.726,485.193 191.5,482.5 Z"/></g>
<g><path style="opacity:0.996" fill="#f5afdc" d="M 159.5,490.5 C 160.873,490.343 162.207,490.51 163.5,491C 126.467,512.844 89.8008,535.178 53.5,558C 35.0608,570.612 17.0608,583.778 -0.5,597.5C -0.5,593.167 -0.5,588.833 -0.5,584.5C 47.469,553.396 96.1357,523.23 145.5,494C 144.552,493.517 143.552,493.351 142.5,493.5C 147.948,491.98 153.614,490.98 159.5,490.5 Z"/></g>
<g><path style="opacity:0.989" fill="#cecddf" d="M 338.5,374.5 C 346.088,384.6 353.921,394.6 362,404.5C 362.333,405.833 362.667,407.167 363,408.5C 370.842,414.839 377.008,422.506 381.5,431.5C 383.747,432.245 385.58,433.578 387,435.5C 404.343,458.185 423.177,479.685 443.5,500C 454.804,508.998 467.138,516.331 480.5,522C 489.384,529.218 498.551,536.052 508,542.5C 509.566,541.939 510.899,542.606 512,544.5C 517.756,563.947 525.923,582.28 536.5,599.5C 532.833,599.5 529.167,599.5 525.5,599.5C 519.771,585.15 513.937,570.817 508,556.5C 503.333,550.5 498.667,544.5 494,538.5C 483.37,527.549 470.87,519.383 456.5,514C 438.407,500.407 422.407,484.574 408.5,466.5C 405.961,465.069 403.628,463.403 401.5,461.5C 393.318,448.809 384.152,436.809 374,425.5C 371.558,422.952 369.892,419.952 369,416.5C 362.801,411.641 358.134,405.641 355,398.5C 347.528,392.214 342.028,384.547 338.5,375.5C 338.5,375.167 338.5,374.833 338.5,374.5 Z"/></g>
<g><path style="opacity:0.996" fill="#a9d2dd" d="M 599.5,462.5 C 599.5,473.167 599.5,483.833 599.5,494.5C 587.905,500.595 578.739,509.261 572,520.5C 570.523,524.43 569.356,528.43 568.5,532.5C 568.217,533.289 567.717,533.956 567,534.5C 565.865,527.35 564.199,520.35 562,513.5C 560.826,516.239 558.993,518.239 556.5,519.5C 549.478,517.821 543.145,514.821 537.5,510.5C 548.752,496.57 562.086,485.237 577.5,476.5C 585.101,472.228 592.434,467.561 599.5,462.5 Z"/></g>
<g><path style="opacity:0.997" fill="#faaada" d="M 142.5,493.5 C 143.552,493.351 144.552,493.517 145.5,494C 96.1357,523.23 47.469,553.396 -0.5,584.5C -0.5,581.833 -0.5,579.167 -0.5,576.5C 43.8103,549.676 88.1436,522.843 132.5,496C 130.527,495.505 128.527,495.338 126.5,495.5C 131.646,494.449 136.979,493.782 142.5,493.5 Z"/></g>
<g><path style="opacity:1" fill="#fea5da" d="M 126.5,495.5 C 128.527,495.338 130.527,495.505 132.5,496C 88.1436,522.843 43.8103,549.676 -0.5,576.5C -0.5,572.833 -0.5,569.167 -0.5,565.5C 38.2023,542.485 76.869,519.485 115.5,496.5C 119.099,495.656 122.766,495.323 126.5,495.5 Z"/></g>
<g><path style="opacity:0.996" fill="#eab6db" d="M 87.5,599.5 C 82.8333,599.5 78.1667,599.5 73.5,599.5C 106.323,580.375 136.99,558.042 165.5,532.5C 168.012,529.489 170.678,526.656 173.5,524C 173.167,523.667 172.833,523.333 172.5,523C 173.973,522.29 174.64,521.124 174.5,519.5C 175.675,519.719 176.675,519.386 177.5,518.5C 181.043,513.879 180.543,509.545 176,505.5C 167.803,506.536 159.969,508.703 152.5,512C 112.55,531.277 76.3833,556.11 44,586.5C 40.7777,590.442 39.9444,594.775 41.5,599.5C 33.8333,599.5 26.1667,599.5 18.5,599.5C 19.7765,597.05 21.2765,594.717 23,592.5C 27.5121,588.468 32.0121,584.301 36.5,580C 68.2958,556.263 101.296,534.263 135.5,514C 148.778,506.528 162.445,499.861 176.5,494C 179.865,493.686 183.031,493.519 186,493.5C 186.853,495.125 187.853,495.458 189,494.5C 193.907,498.95 195.074,504.117 192.5,510C 192.833,510.333 193.167,510.667 193.5,511C 191.542,513.748 189.709,516.582 188,519.5C 176.8,530.369 165.3,540.869 153.5,551C 131.61,567.432 109.61,583.599 87.5,599.5 Z"/></g>
<g><path style="opacity:1" fill="#fc9ed6" d="M 115.5,496.5 C 76.869,519.485 38.2023,542.485 -0.5,565.5C -0.5,562.167 -0.5,558.833 -0.5,555.5C 31.28,536.893 62.9467,518.06 94.5,499C 93.552,498.517 92.552,498.351 91.5,498.5C 99.2992,497.183 107.299,496.517 115.5,496.5 Z"/></g>
<g><path style="opacity:0.994" fill="#c0d2de" d="M 341.5,370.5 C 342.601,375.695 345.435,379.695 350,382.5C 354.183,388.862 358.85,394.862 364,400.5C 365.751,402.49 366.751,404.823 367,407.5C 371.64,411.473 375.973,415.806 380,420.5C 391.151,437.821 403.984,453.821 418.5,468.5C 435.396,492.231 457.396,509.398 484.5,520C 490,523.5 495.5,527 501,530.5C 501.667,529.833 502.333,529.167 503,528.5C 505.041,528.357 507.208,528.691 509.5,529.5C 511.991,529.091 513.991,527.924 515.5,526C 516.635,525.251 517.635,525.417 518.5,526.5C 520.427,529.35 522.594,532.017 525,534.5C 534.453,558.091 546.953,579.758 562.5,599.5C 553.833,599.5 545.167,599.5 536.5,599.5C 525.923,582.28 517.756,563.947 512,544.5C 510.899,542.606 509.566,541.939 508,542.5C 498.551,536.052 489.384,529.218 480.5,522C 467.138,516.331 454.804,508.998 443.5,500C 423.177,479.685 404.343,458.185 387,435.5C 385.58,433.578 383.747,432.245 381.5,431.5C 377.008,422.506 370.842,414.839 363,408.5C 362.667,407.167 362.333,405.833 362,404.5C 353.921,394.6 346.088,384.6 338.5,374.5C 339.026,372.77 340.026,371.436 341.5,370.5 Z"/></g>
<g><path style="opacity:0.996" fill="#e4b8db" d="M 73.5,599.5 C 62.8333,599.5 52.1667,599.5 41.5,599.5C 39.9444,594.775 40.7777,590.442 44,586.5C 76.3833,556.11 112.55,531.277 152.5,512C 159.969,508.703 167.803,506.536 176,505.5C 180.543,509.545 181.043,513.879 177.5,518.5C 176.675,519.386 175.675,519.719 174.5,519.5C 174.64,521.124 173.973,522.29 172.5,523C 172.833,523.333 173.167,523.667 173.5,524C 170.678,526.656 168.012,529.489 165.5,532.5C 136.99,558.042 106.323,580.375 73.5,599.5 Z"/></g>
<g><path style="opacity:0.996" fill="#b4d0de" d="M 418.5,468.5 C 426.133,476.327 433.8,484.16 441.5,492C 445.475,495.304 449.475,498.637 453.5,502C 467.989,510.55 482.989,518.05 498.5,524.5C 500.541,523.009 502.041,523.342 503,525.5C 508.173,523.249 512.839,520.249 517,516.5C 518.169,517.009 519.002,517.842 519.5,519C 524.595,518.996 527.762,521.496 529,526.5C 529.26,522.75 529.927,519.084 531,515.5C 532.145,514.364 533.312,513.364 534.5,512.5C 535.5,511.833 536.5,511.167 537.5,510.5C 543.145,514.821 549.478,517.821 556.5,519.5C 558.993,518.239 560.826,516.239 562,513.5C 564.199,520.35 565.865,527.35 567,534.5C 567.717,533.956 568.217,533.289 568.5,532.5C 570.514,541.354 574.014,549.687 579,557.5C 585.328,565.659 592.161,573.325 599.5,580.5C 599.5,586.833 599.5,593.167 599.5,599.5C 587.167,599.5 574.833,599.5 562.5,599.5C 546.953,579.758 534.453,558.091 525,534.5C 522.594,532.017 520.427,529.35 518.5,526.5C 517.635,525.417 516.635,525.251 515.5,526C 513.991,527.924 511.991,529.091 509.5,529.5C 507.208,528.691 505.041,528.357 503,528.5C 502.333,529.167 501.667,529.833 501,530.5C 495.5,527 490,523.5 484.5,520C 457.396,509.398 435.396,492.231 418.5,468.5 Z"/></g>
<g><path style="opacity:0.996" fill="#a9ccdc" d="M 599.5,494.5 C 599.5,523.167 599.5,551.833 599.5,580.5C 592.161,573.325 585.328,565.659 579,557.5C 574.014,549.687 570.514,541.354 568.5,532.5C 569.356,528.43 570.523,524.43 572,520.5C 578.739,509.261 587.905,500.595 599.5,494.5 Z"/></g>
<g><path style="opacity:0.996" fill="#debadb" d="M 136.5,531.5 C 137.688,532.684 138.855,532.684 140,531.5C 141.017,534.028 142.184,534.028 143.5,531.5C 143.94,532.698 144.273,533.865 144.5,535C 143.5,535.833 142.5,536.667 141.5,537.5C 141.746,538.773 141.746,539.94 141.5,541C 124.492,558.35 104.825,572.017 82.5,582C 69.1468,586.939 66.9801,583.439 76,571.5C 93.6865,553.63 113.853,540.297 136.5,531.5 Z"/></g>
<g><path style="opacity:1" fill="#fea5da" d="M 300.5,599.5 C 299.167,599.5 297.833,599.5 296.5,599.5C 278.363,581.528 260.696,563.028 243.5,544C 239.515,541.757 235.348,539.924 231,538.5C 211.366,549.71 191.533,560.544 171.5,571C 159.313,580.364 147.313,589.864 135.5,599.5C 130.167,599.5 124.833,599.5 119.5,599.5C 143.917,580.112 168.584,560.945 193.5,542C 206.527,535.318 219.694,528.818 233,522.5C 234.205,523.071 235.372,523.738 236.5,524.5C 243.441,536.716 251.608,548.05 261,558.5C 274.755,571.752 287.922,585.419 300.5,599.5 Z"/></g>
<g><path style="opacity:1" fill="#fe9fd8" d="M 296.5,599.5 C 294.5,599.5 292.5,599.5 290.5,599.5C 274.574,583.906 258.907,567.906 243.5,551.5C 235.993,548.651 228.66,549.151 221.5,553C 196.761,567.614 172.761,583.114 149.5,599.5C 144.833,599.5 140.167,599.5 135.5,599.5C 147.313,589.864 159.313,580.364 171.5,571C 191.533,560.544 211.366,549.71 231,538.5C 235.348,539.924 239.515,541.757 243.5,544C 260.696,563.028 278.363,581.528 296.5,599.5 Z"/></g>
<g><path style="opacity:1" fill="#fe98d5" d="M 290.5,599.5 C 286.167,599.5 281.833,599.5 277.5,599.5C 264.451,588.286 252.118,576.119 240.5,563C 236.788,559.534 232.455,558.867 227.5,561C 205.659,571.72 185.325,584.554 166.5,599.5C 160.833,599.5 155.167,599.5 149.5,599.5C 172.761,583.114 196.761,567.614 221.5,553C 228.66,549.151 235.993,548.651 243.5,551.5C 258.907,567.906 274.574,583.906 290.5,599.5 Z"/></g>
<g><path style="opacity:1" fill="#fe94d4" d="M 277.5,599.5 C 240.5,599.5 203.5,599.5 166.5,599.5C 185.325,584.554 205.659,571.72 227.5,561C 232.455,558.867 236.788,559.534 240.5,563C 252.118,576.119 264.451,588.286 277.5,599.5 Z"/></g>
</svg>
